<?xml version="1.0" encoding="utf-8"?>
<svg xmlns="http://www.w3.org/2000/svg" xmlns:xlink="http://www.w3.org/1999/xlink" width="600" height="400" viewBox="0 0 2400 1600">
<defs>
  <clipPath id="clip750">
    <rect x="0" y="0" width="2400" height="1600"/>
  </clipPath>
</defs>
<path clip-path="url(#clip750)" d="M0 1600 L2400 1600 L2400 0 L0 0  Z" fill="#ffffff" fill-rule="evenodd" fill-opacity="1"/>
<defs>
  <clipPath id="clip751">
    <rect x="480" y="0" width="1681" height="1600"/>
  </clipPath>
</defs>
<path clip-path="url(#clip750)" d="M141.853 1486.45 L2352.76 1486.45 L2352.76 47.2441 L141.853 47.2441  Z" fill="#ffffff" fill-rule="evenodd" fill-opacity="1"/>
<defs>
  <clipPath id="clip752">
    <rect x="141" y="47" width="2212" height="1440"/>
  </clipPath>
</defs>
<polyline clip-path="url(#clip752)" style="stroke:#000000; stroke-linecap:round; stroke-linejoin:round; stroke-width:2; stroke-opacity:0.1; fill:none" points="204.426,1486.45 204.426,47.2441 "/>
<polyline clip-path="url(#clip752)" style="stroke:#000000; stroke-linecap:round; stroke-linejoin:round; stroke-width:2; stroke-opacity:0.1; fill:none" points="725.865,1486.45 725.865,47.2441 "/>
<polyline clip-path="url(#clip752)" style="stroke:#000000; stroke-linecap:round; stroke-linejoin:round; stroke-width:2; stroke-opacity:0.1; fill:none" points="1247.3,1486.45 1247.3,47.2441 "/>
<polyline clip-path="url(#clip752)" style="stroke:#000000; stroke-linecap:round; stroke-linejoin:round; stroke-width:2; stroke-opacity:0.1; fill:none" points="1768.74,1486.45 1768.74,47.2441 "/>
<polyline clip-path="url(#clip752)" style="stroke:#000000; stroke-linecap:round; stroke-linejoin:round; stroke-width:2; stroke-opacity:0.1; fill:none" points="2290.18,1486.45 2290.18,47.2441 "/>
<polyline clip-path="url(#clip750)" style="stroke:#000000; stroke-linecap:round; stroke-linejoin:round; stroke-width:4; stroke-opacity:1; fill:none" points="141.853,1486.45 2352.76,1486.45 "/>
<polyline clip-path="url(#clip750)" style="stroke:#000000; stroke-linecap:round; stroke-linejoin:round; stroke-width:4; stroke-opacity:1; fill:none" points="204.426,1486.45 204.426,1467.55 "/>
<polyline clip-path="url(#clip750)" style="stroke:#000000; stroke-linecap:round; stroke-linejoin:round; stroke-width:4; stroke-opacity:1; fill:none" points="725.865,1486.45 725.865,1467.55 "/>
<polyline clip-path="url(#clip750)" style="stroke:#000000; stroke-linecap:round; stroke-linejoin:round; stroke-width:4; stroke-opacity:1; fill:none" points="1247.3,1486.45 1247.3,1467.55 "/>
<polyline clip-path="url(#clip750)" style="stroke:#000000; stroke-linecap:round; stroke-linejoin:round; stroke-width:4; stroke-opacity:1; fill:none" points="1768.74,1486.45 1768.74,1467.55 "/>
<polyline clip-path="url(#clip750)" style="stroke:#000000; stroke-linecap:round; stroke-linejoin:round; stroke-width:4; stroke-opacity:1; fill:none" points="2290.18,1486.45 2290.18,1467.55 "/>
<path clip-path="url(#clip750)" d="M204.426 1517.37 Q200.815 1517.37 198.986 1520.93 Q197.18 1524.47 197.18 1531.6 Q197.18 1538.71 198.986 1542.27 Q200.815 1545.82 204.426 1545.82 Q208.06 1545.82 209.865 1542.27 Q211.694 1538.71 211.694 1531.6 Q211.694 1524.47 209.865 1520.93 Q208.06 1517.37 204.426 1517.37 M204.426 1513.66 Q210.236 1513.66 213.291 1518.27 Q216.37 1522.85 216.37 1531.6 Q216.37 1540.33 213.291 1544.94 Q210.236 1549.52 204.426 1549.52 Q198.616 1549.52 195.537 1544.94 Q192.481 1540.33 192.481 1531.6 Q192.481 1522.85 195.537 1518.27 Q198.616 1513.66 204.426 1513.66 Z" fill="#000000" fill-rule="nonzero" fill-opacity="1" /><path clip-path="url(#clip750)" d="M705.136 1544.91 L721.455 1544.91 L721.455 1548.85 L699.511 1548.85 L699.511 1544.91 Q702.173 1542.16 706.756 1537.53 Q711.363 1532.88 712.543 1531.53 Q714.789 1529.01 715.668 1527.27 Q716.571 1525.51 716.571 1523.82 Q716.571 1521.07 714.627 1519.33 Q712.705 1517.6 709.604 1517.6 Q707.404 1517.6 704.951 1518.36 Q702.52 1519.13 699.743 1520.68 L699.743 1515.95 Q702.567 1514.82 705.02 1514.24 Q707.474 1513.66 709.511 1513.66 Q714.881 1513.66 718.076 1516.35 Q721.27 1519.03 721.27 1523.52 Q721.27 1525.65 720.46 1527.57 Q719.673 1529.47 717.566 1532.07 Q716.988 1532.74 713.886 1535.95 Q710.784 1539.15 705.136 1544.91 Z" fill="#000000" fill-rule="nonzero" fill-opacity="1" /><path clip-path="url(#clip750)" d="M731.316 1514.29 L749.673 1514.29 L749.673 1518.22 L735.599 1518.22 L735.599 1526.7 Q736.617 1526.35 737.636 1526.19 Q738.654 1526 739.673 1526 Q745.46 1526 748.839 1529.17 Q752.219 1532.34 752.219 1537.76 Q752.219 1543.34 748.747 1546.44 Q745.275 1549.52 738.955 1549.52 Q736.779 1549.52 734.511 1549.15 Q732.265 1548.78 729.858 1548.04 L729.858 1543.34 Q731.941 1544.47 734.164 1545.03 Q736.386 1545.58 738.863 1545.58 Q742.867 1545.58 745.205 1543.48 Q747.543 1541.37 747.543 1537.76 Q747.543 1534.15 745.205 1532.04 Q742.867 1529.94 738.863 1529.94 Q736.988 1529.94 735.113 1530.35 Q733.261 1530.77 731.316 1531.65 L731.316 1514.29 Z" fill="#000000" fill-rule="nonzero" fill-opacity="1" /><path clip-path="url(#clip750)" d="M1222 1514.29 L1240.36 1514.29 L1240.36 1518.22 L1226.29 1518.22 L1226.29 1526.7 Q1227.3 1526.35 1228.32 1526.19 Q1229.34 1526 1230.36 1526 Q1236.15 1526 1239.53 1529.17 Q1242.91 1532.34 1242.91 1537.76 Q1242.91 1543.34 1239.43 1546.44 Q1235.96 1549.52 1229.64 1549.52 Q1227.47 1549.52 1225.2 1549.15 Q1222.95 1548.78 1220.55 1548.04 L1220.55 1543.34 Q1222.63 1544.47 1224.85 1545.03 Q1227.07 1545.58 1229.55 1545.58 Q1233.55 1545.58 1235.89 1543.48 Q1238.23 1541.37 1238.23 1537.76 Q1238.23 1534.15 1235.89 1532.04 Q1233.55 1529.94 1229.55 1529.94 Q1227.67 1529.94 1225.8 1530.35 Q1223.95 1530.77 1222 1531.65 L1222 1514.29 Z" fill="#000000" fill-rule="nonzero" fill-opacity="1" /><path clip-path="url(#clip750)" d="M1262.12 1517.37 Q1258.51 1517.37 1256.68 1520.93 Q1254.87 1524.47 1254.87 1531.6 Q1254.87 1538.71 1256.68 1542.27 Q1258.51 1545.82 1262.12 1545.82 Q1265.75 1545.82 1267.56 1542.27 Q1269.39 1538.71 1269.39 1531.6 Q1269.39 1524.47 1267.56 1520.93 Q1265.75 1517.37 1262.12 1517.37 M1262.12 1513.66 Q1267.93 1513.66 1270.98 1518.27 Q1274.06 1522.85 1274.06 1531.6 Q1274.06 1540.33 1270.98 1544.94 Q1267.93 1549.52 1262.12 1549.52 Q1256.31 1549.52 1253.23 1544.94 Q1250.17 1540.33 1250.17 1531.6 Q1250.17 1522.85 1253.23 1518.27 Q1256.31 1513.66 1262.12 1513.66 Z" fill="#000000" fill-rule="nonzero" fill-opacity="1" /><path clip-path="url(#clip750)" d="M1742.6 1514.29 L1764.82 1514.29 L1764.82 1516.28 L1752.27 1548.85 L1747.39 1548.85 L1759.2 1518.22 L1742.6 1518.22 L1742.6 1514.29 Z" fill="#000000" fill-rule="nonzero" fill-opacity="1" /><path clip-path="url(#clip750)" d="M1773.99 1514.29 L1792.34 1514.29 L1792.34 1518.22 L1778.27 1518.22 L1778.27 1526.7 Q1779.29 1526.35 1780.31 1526.19 Q1781.32 1526 1782.34 1526 Q1788.13 1526 1791.51 1529.17 Q1794.89 1532.34 1794.89 1537.76 Q1794.89 1543.34 1791.42 1546.44 Q1787.95 1549.52 1781.63 1549.52 Q1779.45 1549.52 1777.18 1549.15 Q1774.94 1548.78 1772.53 1548.04 L1772.53 1543.34 Q1774.61 1544.47 1776.83 1545.03 Q1779.06 1545.58 1781.53 1545.58 Q1785.54 1545.58 1787.88 1543.48 Q1790.21 1541.37 1790.21 1537.76 Q1790.21 1534.15 1787.88 1532.04 Q1785.54 1529.94 1781.53 1529.94 Q1779.66 1529.94 1777.78 1530.35 Q1775.93 1530.77 1773.99 1531.65 L1773.99 1514.29 Z" fill="#000000" fill-rule="nonzero" fill-opacity="1" /><path clip-path="url(#clip750)" d="M2249.79 1544.91 L2257.43 1544.91 L2257.43 1518.55 L2249.12 1520.21 L2249.12 1515.95 L2257.38 1514.29 L2262.06 1514.29 L2262.06 1544.91 L2269.7 1544.91 L2269.7 1548.85 L2249.79 1548.85 L2249.79 1544.91 Z" fill="#000000" fill-rule="nonzero" fill-opacity="1" /><path clip-path="url(#clip750)" d="M2289.14 1517.37 Q2285.53 1517.37 2283.7 1520.93 Q2281.9 1524.47 2281.9 1531.6 Q2281.9 1538.71 2283.7 1542.27 Q2285.53 1545.82 2289.14 1545.82 Q2292.78 1545.82 2294.58 1542.27 Q2296.41 1538.71 2296.41 1531.6 Q2296.41 1524.47 2294.58 1520.93 Q2292.78 1517.37 2289.14 1517.37 M2289.14 1513.66 Q2294.95 1513.66 2298.01 1518.27 Q2301.09 1522.85 2301.09 1531.6 Q2301.09 1540.33 2298.01 1544.94 Q2294.95 1549.52 2289.14 1549.52 Q2283.33 1549.52 2280.25 1544.94 Q2277.2 1540.33 2277.2 1531.6 Q2277.2 1522.85 2280.25 1518.27 Q2283.33 1513.66 2289.14 1513.66 Z" fill="#000000" fill-rule="nonzero" fill-opacity="1" /><path clip-path="url(#clip750)" d="M2319.3 1517.37 Q2315.69 1517.37 2313.86 1520.93 Q2312.06 1524.47 2312.06 1531.6 Q2312.06 1538.71 2313.86 1542.27 Q2315.69 1545.82 2319.3 1545.82 Q2322.94 1545.82 2324.74 1542.27 Q2326.57 1538.71 2326.57 1531.6 Q2326.57 1524.47 2324.74 1520.93 Q2322.94 1517.37 2319.3 1517.37 M2319.3 1513.66 Q2325.11 1513.66 2328.17 1518.27 Q2331.25 1522.85 2331.25 1531.6 Q2331.25 1540.33 2328.17 1544.94 Q2325.11 1549.52 2319.3 1549.52 Q2313.49 1549.52 2310.41 1544.94 Q2307.36 1540.33 2307.36 1531.6 Q2307.36 1522.85 2310.41 1518.27 Q2313.49 1513.66 2319.3 1513.66 Z" fill="#000000" fill-rule="nonzero" fill-opacity="1" /><polyline clip-path="url(#clip752)" style="stroke:#000000; stroke-linecap:round; stroke-linejoin:round; stroke-width:2; stroke-opacity:0.1; fill:none" points="141.853,1445.72 2352.76,1445.72 "/>
<polyline clip-path="url(#clip752)" style="stroke:#000000; stroke-linecap:round; stroke-linejoin:round; stroke-width:2; stroke-opacity:0.1; fill:none" points="141.853,1175.04 2352.76,1175.04 "/>
<polyline clip-path="url(#clip752)" style="stroke:#000000; stroke-linecap:round; stroke-linejoin:round; stroke-width:2; stroke-opacity:0.1; fill:none" points="141.853,904.356 2352.76,904.356 "/>
<polyline clip-path="url(#clip752)" style="stroke:#000000; stroke-linecap:round; stroke-linejoin:round; stroke-width:2; stroke-opacity:0.1; fill:none" points="141.853,633.675 2352.76,633.675 "/>
<polyline clip-path="url(#clip752)" style="stroke:#000000; stroke-linecap:round; stroke-linejoin:round; stroke-width:2; stroke-opacity:0.1; fill:none" points="141.853,362.995 2352.76,362.995 "/>
<polyline clip-path="url(#clip752)" style="stroke:#000000; stroke-linecap:round; stroke-linejoin:round; stroke-width:2; stroke-opacity:0.1; fill:none" points="141.853,92.3153 2352.76,92.3153 "/>
<polyline clip-path="url(#clip750)" style="stroke:#000000; stroke-linecap:round; stroke-linejoin:round; stroke-width:4; stroke-opacity:1; fill:none" points="141.853,1486.45 141.853,47.2441 "/>
<polyline clip-path="url(#clip750)" style="stroke:#000000; stroke-linecap:round; stroke-linejoin:round; stroke-width:4; stroke-opacity:1; fill:none" points="141.853,1445.72 160.751,1445.72 "/>
<polyline clip-path="url(#clip750)" style="stroke:#000000; stroke-linecap:round; stroke-linejoin:round; stroke-width:4; stroke-opacity:1; fill:none" points="141.853,1175.04 160.751,1175.04 "/>
<polyline clip-path="url(#clip750)" style="stroke:#000000; stroke-linecap:round; stroke-linejoin:round; stroke-width:4; stroke-opacity:1; fill:none" points="141.853,904.356 160.751,904.356 "/>
<polyline clip-path="url(#clip750)" style="stroke:#000000; stroke-linecap:round; stroke-linejoin:round; stroke-width:4; stroke-opacity:1; fill:none" points="141.853,633.675 160.751,633.675 "/>
<polyline clip-path="url(#clip750)" style="stroke:#000000; stroke-linecap:round; stroke-linejoin:round; stroke-width:4; stroke-opacity:1; fill:none" points="141.853,362.995 160.751,362.995 "/>
<polyline clip-path="url(#clip750)" style="stroke:#000000; stroke-linecap:round; stroke-linejoin:round; stroke-width:4; stroke-opacity:1; fill:none" points="141.853,92.3153 160.751,92.3153 "/>
<path clip-path="url(#clip750)" d="M93.9086 1431.51 Q90.2975 1431.51 88.4688 1435.08 Q86.6632 1438.62 86.6632 1445.75 Q86.6632 1452.86 88.4688 1456.42 Q90.2975 1459.96 93.9086 1459.96 Q97.5428 1459.96 99.3483 1456.42 Q101.177 1452.86 101.177 1445.75 Q101.177 1438.62 99.3483 1435.08 Q97.5428 1431.51 93.9086 1431.51 M93.9086 1427.81 Q99.7187 1427.81 102.774 1432.42 Q105.853 1437 105.853 1445.75 Q105.853 1454.48 102.774 1459.08 Q99.7187 1463.67 93.9086 1463.67 Q88.0984 1463.67 85.0197 1459.08 Q81.9642 1454.48 81.9642 1445.75 Q81.9642 1437 85.0197 1432.42 Q88.0984 1427.81 93.9086 1427.81 Z" fill="#000000" fill-rule="nonzero" fill-opacity="1" /><path clip-path="url(#clip750)" d="M54.5569 1188.38 L62.1958 1188.38 L62.1958 1162.01 L53.8856 1163.68 L53.8856 1159.42 L62.1495 1157.76 L66.8254 1157.76 L66.8254 1188.38 L74.4642 1188.38 L74.4642 1192.32 L54.5569 1192.32 L54.5569 1188.38 Z" fill="#000000" fill-rule="nonzero" fill-opacity="1" /><path clip-path="url(#clip750)" d="M93.9086 1160.83 Q90.2975 1160.83 88.4688 1164.4 Q86.6632 1167.94 86.6632 1175.07 Q86.6632 1182.18 88.4688 1185.74 Q90.2975 1189.28 93.9086 1189.28 Q97.5428 1189.28 99.3483 1185.74 Q101.177 1182.18 101.177 1175.07 Q101.177 1167.94 99.3483 1164.4 Q97.5428 1160.83 93.9086 1160.83 M93.9086 1157.13 Q99.7187 1157.13 102.774 1161.74 Q105.853 1166.32 105.853 1175.07 Q105.853 1183.8 102.774 1188.4 Q99.7187 1192.99 93.9086 1192.99 Q88.0984 1192.99 85.0197 1188.4 Q81.9642 1183.8 81.9642 1175.07 Q81.9642 1166.32 85.0197 1161.74 Q88.0984 1157.13 93.9086 1157.13 Z" fill="#000000" fill-rule="nonzero" fill-opacity="1" /><path clip-path="url(#clip750)" d="M57.7745 917.7 L74.0939 917.7 L74.0939 921.636 L52.1495 921.636 L52.1495 917.7 Q54.8115 914.946 59.3949 910.316 Q64.0013 905.663 65.1819 904.321 Q67.4272 901.798 68.3068 900.062 Q69.2096 898.302 69.2096 896.613 Q69.2096 893.858 67.2652 892.122 Q65.3439 890.386 62.2421 890.386 Q60.043 890.386 57.5893 891.15 Q55.1588 891.913 52.381 893.464 L52.381 888.742 Q55.2051 887.608 57.6588 887.029 Q60.1124 886.451 62.1495 886.451 Q67.5198 886.451 70.7142 889.136 Q73.9087 891.821 73.9087 896.312 Q73.9087 898.441 73.0985 900.362 Q72.3115 902.261 70.205 904.853 Q69.6263 905.525 66.5245 908.742 Q63.4226 911.937 57.7745 917.7 Z" fill="#000000" fill-rule="nonzero" fill-opacity="1" /><path clip-path="url(#clip750)" d="M93.9086 890.154 Q90.2975 890.154 88.4688 893.719 Q86.6632 897.261 86.6632 904.39 Q86.6632 911.497 88.4688 915.061 Q90.2975 918.603 93.9086 918.603 Q97.5428 918.603 99.3483 915.061 Q101.177 911.497 101.177 904.39 Q101.177 897.261 99.3483 893.719 Q97.5428 890.154 93.9086 890.154 M93.9086 886.451 Q99.7187 886.451 102.774 891.057 Q105.853 895.64 105.853 904.39 Q105.853 913.117 102.774 917.724 Q99.7187 922.307 93.9086 922.307 Q88.0984 922.307 85.0197 917.724 Q81.9642 913.117 81.9642 904.39 Q81.9642 895.64 85.0197 891.057 Q88.0984 886.451 93.9086 886.451 Z" fill="#000000" fill-rule="nonzero" fill-opacity="1" /><path clip-path="url(#clip750)" d="M67.9133 632.321 Q71.2698 633.039 73.1448 635.307 Q75.0429 637.576 75.0429 640.909 Q75.0429 646.025 71.5244 648.826 Q68.0059 651.627 61.5245 651.627 Q59.3486 651.627 57.0338 651.187 Q54.7421 650.77 52.2884 649.914 L52.2884 645.4 Q54.2328 646.534 56.5477 647.113 Q58.8625 647.692 61.3856 647.692 Q65.7837 647.692 68.0754 645.955 Q70.3902 644.219 70.3902 640.909 Q70.3902 637.854 68.2374 636.141 Q66.1078 634.405 62.2884 634.405 L58.2606 634.405 L58.2606 630.562 L62.4735 630.562 Q65.9226 630.562 67.7513 629.196 Q69.58 627.807 69.58 625.215 Q69.58 622.553 67.6819 621.141 Q65.8069 619.706 62.2884 619.706 Q60.3671 619.706 58.168 620.122 Q55.969 620.539 53.3301 621.419 L53.3301 617.252 Q55.9921 616.511 58.3069 616.141 Q60.6449 615.77 62.705 615.77 Q68.0291 615.77 71.1309 618.201 Q74.2327 620.608 74.2327 624.729 Q74.2327 627.599 72.5892 629.59 Q70.9457 631.557 67.9133 632.321 Z" fill="#000000" fill-rule="nonzero" fill-opacity="1" /><path clip-path="url(#clip750)" d="M93.9086 619.474 Q90.2975 619.474 88.4688 623.039 Q86.6632 626.581 86.6632 633.71 Q86.6632 640.817 88.4688 644.381 Q90.2975 647.923 93.9086 647.923 Q97.5428 647.923 99.3483 644.381 Q101.177 640.817 101.177 633.71 Q101.177 626.581 99.3483 623.039 Q97.5428 619.474 93.9086 619.474 M93.9086 615.77 Q99.7187 615.77 102.774 620.377 Q105.853 624.96 105.853 633.71 Q105.853 642.437 102.774 647.043 Q99.7187 651.627 93.9086 651.627 Q88.0984 651.627 85.0197 647.043 Q81.9642 642.437 81.9642 633.71 Q81.9642 624.96 85.0197 620.377 Q88.0984 615.77 93.9086 615.77 Z" fill="#000000" fill-rule="nonzero" fill-opacity="1" /><path clip-path="url(#clip750)" d="M66.5939 349.789 L54.7884 368.238 L66.5939 368.238 L66.5939 349.789 M65.367 345.715 L71.2466 345.715 L71.2466 368.238 L76.1772 368.238 L76.1772 372.127 L71.2466 372.127 L71.2466 380.275 L66.5939 380.275 L66.5939 372.127 L50.9921 372.127 L50.9921 367.613 L65.367 345.715 Z" fill="#000000" fill-rule="nonzero" fill-opacity="1" /><path clip-path="url(#clip750)" d="M93.9086 348.794 Q90.2975 348.794 88.4688 352.359 Q86.6632 355.9 86.6632 363.03 Q86.6632 370.137 88.4688 373.701 Q90.2975 377.243 93.9086 377.243 Q97.5428 377.243 99.3483 373.701 Q101.177 370.137 101.177 363.03 Q101.177 355.9 99.3483 352.359 Q97.5428 348.794 93.9086 348.794 M93.9086 345.09 Q99.7187 345.09 102.774 349.697 Q105.853 354.28 105.853 363.03 Q105.853 371.757 102.774 376.363 Q99.7187 380.947 93.9086 380.947 Q88.0984 380.947 85.0197 376.363 Q81.9642 371.757 81.9642 363.03 Q81.9642 354.28 85.0197 349.697 Q88.0984 345.09 93.9086 345.09 Z" fill="#000000" fill-rule="nonzero" fill-opacity="1" /><path clip-path="url(#clip750)" d="M53.793 75.0353 L72.1494 75.0353 L72.1494 78.9704 L58.0754 78.9704 L58.0754 87.4426 Q59.0939 87.0954 60.1124 86.9334 Q61.131 86.7482 62.1495 86.7482 Q67.9365 86.7482 71.3161 89.9195 Q74.6957 93.0907 74.6957 98.5074 Q74.6957 104.086 71.2235 107.188 Q67.7513 110.267 61.4319 110.267 Q59.256 110.267 56.9875 109.896 Q54.7421 109.526 52.3347 108.785 L52.3347 104.086 Q54.418 105.22 56.6402 105.776 Q58.8625 106.331 61.3393 106.331 Q65.3439 106.331 67.6819 104.225 Q70.0198 102.118 70.0198 98.5074 Q70.0198 94.8963 67.6819 92.7898 Q65.3439 90.6833 61.3393 90.6833 Q59.4643 90.6833 57.5893 91.1 Q55.7375 91.5167 53.793 92.3963 L53.793 75.0353 Z" fill="#000000" fill-rule="nonzero" fill-opacity="1" /><path clip-path="url(#clip750)" d="M93.9086 78.114 Q90.2975 78.114 88.4688 81.6788 Q86.6632 85.2204 86.6632 92.35 Q86.6632 99.4564 88.4688 103.021 Q90.2975 106.563 93.9086 106.563 Q97.5428 106.563 99.3483 103.021 Q101.177 99.4564 101.177 92.35 Q101.177 85.2204 99.3483 81.6788 Q97.5428 78.114 93.9086 78.114 M93.9086 74.4103 Q99.7187 74.4103 102.774 79.0167 Q105.853 83.6 105.853 92.35 Q105.853 101.077 102.774 105.683 Q99.7187 110.267 93.9086 110.267 Q88.0984 110.267 85.0197 105.683 Q81.9642 101.077 81.9642 92.35 Q81.9642 83.6 85.0197 79.0167 Q88.0984 74.4103 93.9086 74.4103 Z" fill="#000000" fill-rule="nonzero" fill-opacity="1" /><polyline clip-path="url(#clip752)" style="stroke:#009af9; stroke-linecap:round; stroke-linejoin:round; stroke-width:12; stroke-opacity:1; fill:none" points="204.426,1445.72 225.283,1174.29 246.141,904.393 266.998,633.868 287.856,363.179 308.714,92.096 329.571,91.4356 350.429,91.108 371.286,92.6726 392.144,93.2951 413.001,94.6458 433.859,96.1616 454.717,94.7379 475.574,93.1544 496.432,91.0458 517.289,89.4217 538.147,89.9143 559.004,92.0365 579.862,90.6533 600.72,91.8903 621.577,91.1676 642.435,89.8548 663.292,88.9588 684.15,90.296 705.007,89.9604 725.865,92.1637 746.723,92.8269 767.58,91.5763 788.438,90.5559 809.295,90.9592 830.153,91.9661 851.01,90.8915 871.868,91.6656 892.726,92.3992 913.583,92.502 934.441,90.2337 955.298,91.3923 976.156,92.6645 997.014,93.7255 1017.87,93.712 1038.73,93.6876 1059.59,92.586 1080.44,91.3733 1101.3,89.327 1122.16,88.8858 1143.02,88.8235 1163.87,89.2458 1184.73,90.6235 1205.59,93.2762 1226.45,93.0136 1247.3,93.9096 1268.16,93.9123 1289.02,91.9336 1309.88,89.4758 1330.73,90.3772 1351.59,89.5435 1372.45,89.4379 1393.31,89.9577 1414.17,91.1459 1435.02,90.2175 1455.88,90.7968 1476.74,91.6819 1497.6,91.4843 1518.45,90.5965 1539.31,90.9104 1560.17,90.3718 1581.03,89.8981 1601.88,91.1811 1622.74,91.7604 1643.6,92.9622 1664.46,92.0879 1685.31,93.1977 1706.17,94.1126 1727.03,95.2278 1747.89,93.0651 1768.74,95.4362 1789.6,94.7433 1810.46,93.4197 1831.32,91.4762 1852.17,92.8756 1873.03,89.5381 1893.89,89.1213 1914.75,87.9763 1935.6,88.477 1956.46,89.4136 1977.32,90.4774 1998.18,90.2013 2019.03,90.6533 2039.89,92.0635 2060.75,92.6103 2081.61,93.8148 2102.47,93.5983 2123.32,91.4545 2144.18,89.798 2165.04,88.2334 2185.9,88.4391 2206.75,89.5219 2227.61,91.6305 2248.47,91.6954 2269.33,91.4464 2290.18,89.3189 "/>
<path clip-path="url(#clip750)" d="M2005.54 1438.47 L2279.06 1438.47 L2279.06 1334.79 L2005.54 1334.79  Z" fill="#ffffff" fill-rule="evenodd" fill-opacity="1"/>
<polyline clip-path="url(#clip750)" style="stroke:#000000; stroke-linecap:round; stroke-linejoin:round; stroke-width:4; stroke-opacity:1; fill:none" points="2005.54,1438.47 2279.06,1438.47 2279.06,1334.79 2005.54,1334.79 2005.54,1438.47 "/>
<polyline clip-path="url(#clip750)" style="stroke:#009af9; stroke-linecap:round; stroke-linejoin:round; stroke-width:12; stroke-opacity:1; fill:none" points="2030.1,1386.63 2177.5,1386.63 "/>
<path clip-path="url(#clip750)" d="M2215.91 1406.32 Q2214.1 1410.95 2212.39 1412.36 Q2210.67 1413.78 2207.8 1413.78 L2204.4 1413.78 L2204.4 1410.21 L2206.9 1410.21 Q2208.66 1410.21 2209.63 1409.38 Q2210.6 1408.54 2211.79 1405.44 L2212.55 1403.5 L2202.06 1377.99 L2206.58 1377.99 L2214.68 1398.27 L2222.78 1377.99 L2227.29 1377.99 L2215.91 1406.32 Z" fill="#000000" fill-rule="nonzero" fill-opacity="1" /><path clip-path="url(#clip750)" d="M2234.59 1399.98 L2242.23 1399.98 L2242.23 1373.61 L2233.91 1375.28 L2233.91 1371.02 L2242.18 1369.35 L2246.85 1369.35 L2246.85 1399.98 L2254.49 1399.98 L2254.49 1403.91 L2234.59 1403.91 L2234.59 1399.98 Z" fill="#000000" fill-rule="nonzero" fill-opacity="1" /></svg>
