<?xml version="1.0" encoding="utf-8"?>
<svg xmlns="http://www.w3.org/2000/svg" xmlns:xlink="http://www.w3.org/1999/xlink" width="600" height="400" viewBox="0 0 2400 1600">
<defs>
  <clipPath id="clip830">
    <rect x="0" y="0" width="2400" height="1600"/>
  </clipPath>
</defs>
<path clip-path="url(#clip830)" d="M0 1600 L2400 1600 L2400 0 L0 0  Z" fill="#ffffff" fill-rule="evenodd" fill-opacity="1"/>
<defs>
  <clipPath id="clip831">
    <rect x="480" y="0" width="1681" height="1600"/>
  </clipPath>
</defs>
<path clip-path="url(#clip830)" d="M184.191 1486.45 L2352.76 1486.45 L2352.76 47.2441 L184.191 47.2441  Z" fill="#ffffff" fill-rule="evenodd" fill-opacity="1"/>
<defs>
  <clipPath id="clip832">
    <rect x="184" y="47" width="2170" height="1440"/>
  </clipPath>
</defs>
<polyline clip-path="url(#clip832)" style="stroke:#000000; stroke-linecap:round; stroke-linejoin:round; stroke-width:2; stroke-opacity:0.1; fill:none" points="245.565,1486.45 245.565,47.2441 "/>
<polyline clip-path="url(#clip832)" style="stroke:#000000; stroke-linecap:round; stroke-linejoin:round; stroke-width:2; stroke-opacity:0.1; fill:none" points="757.019,1486.45 757.019,47.2441 "/>
<polyline clip-path="url(#clip832)" style="stroke:#000000; stroke-linecap:round; stroke-linejoin:round; stroke-width:2; stroke-opacity:0.1; fill:none" points="1268.47,1486.45 1268.47,47.2441 "/>
<polyline clip-path="url(#clip832)" style="stroke:#000000; stroke-linecap:round; stroke-linejoin:round; stroke-width:2; stroke-opacity:0.1; fill:none" points="1779.93,1486.45 1779.93,47.2441 "/>
<polyline clip-path="url(#clip832)" style="stroke:#000000; stroke-linecap:round; stroke-linejoin:round; stroke-width:2; stroke-opacity:0.1; fill:none" points="2291.38,1486.45 2291.38,47.2441 "/>
<polyline clip-path="url(#clip830)" style="stroke:#000000; stroke-linecap:round; stroke-linejoin:round; stroke-width:4; stroke-opacity:1; fill:none" points="184.191,1486.45 2352.76,1486.45 "/>
<polyline clip-path="url(#clip830)" style="stroke:#000000; stroke-linecap:round; stroke-linejoin:round; stroke-width:4; stroke-opacity:1; fill:none" points="245.565,1486.45 245.565,1467.55 "/>
<polyline clip-path="url(#clip830)" style="stroke:#000000; stroke-linecap:round; stroke-linejoin:round; stroke-width:4; stroke-opacity:1; fill:none" points="757.019,1486.45 757.019,1467.55 "/>
<polyline clip-path="url(#clip830)" style="stroke:#000000; stroke-linecap:round; stroke-linejoin:round; stroke-width:4; stroke-opacity:1; fill:none" points="1268.47,1486.45 1268.47,1467.55 "/>
<polyline clip-path="url(#clip830)" style="stroke:#000000; stroke-linecap:round; stroke-linejoin:round; stroke-width:4; stroke-opacity:1; fill:none" points="1779.93,1486.45 1779.93,1467.55 "/>
<polyline clip-path="url(#clip830)" style="stroke:#000000; stroke-linecap:round; stroke-linejoin:round; stroke-width:4; stroke-opacity:1; fill:none" points="2291.38,1486.45 2291.38,1467.55 "/>
<path clip-path="url(#clip830)" d="M245.565 1517.37 Q241.954 1517.37 240.125 1520.93 Q238.32 1524.47 238.32 1531.6 Q238.32 1538.71 240.125 1542.27 Q241.954 1545.82 245.565 1545.82 Q249.199 1545.82 251.005 1542.27 Q252.834 1538.71 252.834 1531.6 Q252.834 1524.47 251.005 1520.93 Q249.199 1517.37 245.565 1517.37 M245.565 1513.66 Q251.375 1513.66 254.431 1518.27 Q257.51 1522.85 257.51 1531.6 Q257.51 1540.33 254.431 1544.94 Q251.375 1549.52 245.565 1549.52 Q239.755 1549.52 236.676 1544.94 Q233.621 1540.33 233.621 1531.6 Q233.621 1522.85 236.676 1518.27 Q239.755 1513.66 245.565 1513.66 Z" fill="#000000" fill-rule="nonzero" fill-opacity="1" /><path clip-path="url(#clip830)" d="M731.718 1514.29 L750.075 1514.29 L750.075 1518.22 L736.001 1518.22 L736.001 1526.7 Q737.019 1526.35 738.038 1526.19 Q739.056 1526 740.075 1526 Q745.862 1526 749.241 1529.17 Q752.621 1532.34 752.621 1537.76 Q752.621 1543.34 749.149 1546.44 Q745.677 1549.52 739.357 1549.52 Q737.181 1549.52 734.913 1549.15 Q732.668 1548.78 730.26 1548.04 L730.26 1543.34 Q732.343 1544.47 734.566 1545.03 Q736.788 1545.58 739.265 1545.58 Q743.269 1545.58 745.607 1543.48 Q747.945 1541.37 747.945 1537.76 Q747.945 1534.15 745.607 1532.04 Q743.269 1529.94 739.265 1529.94 Q737.39 1529.94 735.515 1530.35 Q733.663 1530.77 731.718 1531.65 L731.718 1514.29 Z" fill="#000000" fill-rule="nonzero" fill-opacity="1" /><path clip-path="url(#clip830)" d="M771.834 1517.37 Q768.223 1517.37 766.394 1520.93 Q764.589 1524.47 764.589 1531.6 Q764.589 1538.71 766.394 1542.27 Q768.223 1545.82 771.834 1545.82 Q775.468 1545.82 777.274 1542.27 Q779.102 1538.71 779.102 1531.6 Q779.102 1524.47 777.274 1520.93 Q775.468 1517.37 771.834 1517.37 M771.834 1513.66 Q777.644 1513.66 780.7 1518.27 Q783.778 1522.85 783.778 1531.6 Q783.778 1540.33 780.7 1544.94 Q777.644 1549.52 771.834 1549.52 Q766.024 1549.52 762.945 1544.94 Q759.89 1540.33 759.89 1531.6 Q759.89 1522.85 762.945 1518.27 Q766.024 1513.66 771.834 1513.66 Z" fill="#000000" fill-rule="nonzero" fill-opacity="1" /><path clip-path="url(#clip830)" d="M1228.08 1544.91 L1235.72 1544.91 L1235.72 1518.55 L1227.41 1520.21 L1227.41 1515.95 L1235.67 1514.29 L1240.35 1514.29 L1240.35 1544.91 L1247.99 1544.91 L1247.99 1548.85 L1228.08 1548.85 L1228.08 1544.91 Z" fill="#000000" fill-rule="nonzero" fill-opacity="1" /><path clip-path="url(#clip830)" d="M1267.43 1517.37 Q1263.82 1517.37 1261.99 1520.93 Q1260.19 1524.47 1260.19 1531.6 Q1260.19 1538.71 1261.99 1542.27 Q1263.82 1545.82 1267.43 1545.82 Q1271.07 1545.82 1272.87 1542.27 Q1274.7 1538.71 1274.7 1531.6 Q1274.7 1524.47 1272.87 1520.93 Q1271.07 1517.37 1267.43 1517.37 M1267.43 1513.66 Q1273.24 1513.66 1276.3 1518.27 Q1279.38 1522.85 1279.38 1531.6 Q1279.38 1540.33 1276.3 1544.94 Q1273.24 1549.52 1267.43 1549.52 Q1261.62 1549.52 1258.54 1544.94 Q1255.49 1540.33 1255.49 1531.6 Q1255.49 1522.85 1258.54 1518.27 Q1261.62 1513.66 1267.43 1513.66 Z" fill="#000000" fill-rule="nonzero" fill-opacity="1" /><path clip-path="url(#clip830)" d="M1297.59 1517.37 Q1293.98 1517.37 1292.15 1520.93 Q1290.35 1524.47 1290.35 1531.6 Q1290.35 1538.71 1292.15 1542.27 Q1293.98 1545.82 1297.59 1545.82 Q1301.23 1545.82 1303.03 1542.27 Q1304.86 1538.71 1304.86 1531.6 Q1304.86 1524.47 1303.03 1520.93 Q1301.23 1517.37 1297.59 1517.37 M1297.59 1513.66 Q1303.4 1513.66 1306.46 1518.27 Q1309.54 1522.85 1309.54 1531.6 Q1309.54 1540.33 1306.46 1544.94 Q1303.4 1549.52 1297.59 1549.52 Q1291.78 1549.52 1288.7 1544.94 Q1285.65 1540.33 1285.65 1531.6 Q1285.65 1522.85 1288.7 1518.27 Q1291.78 1513.66 1297.59 1513.66 Z" fill="#000000" fill-rule="nonzero" fill-opacity="1" /><path clip-path="url(#clip830)" d="M1739.53 1544.91 L1747.17 1544.91 L1747.17 1518.55 L1738.86 1520.21 L1738.86 1515.95 L1747.13 1514.29 L1751.8 1514.29 L1751.8 1544.91 L1759.44 1544.91 L1759.44 1548.85 L1739.53 1548.85 L1739.53 1544.91 Z" fill="#000000" fill-rule="nonzero" fill-opacity="1" /><path clip-path="url(#clip830)" d="M1768.93 1514.29 L1787.29 1514.29 L1787.29 1518.22 L1773.21 1518.22 L1773.21 1526.7 Q1774.23 1526.35 1775.25 1526.19 Q1776.27 1526 1777.29 1526 Q1783.08 1526 1786.46 1529.17 Q1789.83 1532.34 1789.83 1537.76 Q1789.83 1543.34 1786.36 1546.44 Q1782.89 1549.52 1776.57 1549.52 Q1774.39 1549.52 1772.13 1549.15 Q1769.88 1548.78 1767.47 1548.04 L1767.47 1543.34 Q1769.56 1544.47 1771.78 1545.03 Q1774 1545.58 1776.48 1545.58 Q1780.48 1545.58 1782.82 1543.48 Q1785.16 1541.37 1785.16 1537.76 Q1785.16 1534.15 1782.82 1532.04 Q1780.48 1529.94 1776.48 1529.94 Q1774.6 1529.94 1772.73 1530.35 Q1770.88 1530.77 1768.93 1531.65 L1768.93 1514.29 Z" fill="#000000" fill-rule="nonzero" fill-opacity="1" /><path clip-path="url(#clip830)" d="M1809.05 1517.37 Q1805.44 1517.37 1803.61 1520.93 Q1801.8 1524.47 1801.8 1531.6 Q1801.8 1538.71 1803.61 1542.27 Q1805.44 1545.82 1809.05 1545.82 Q1812.68 1545.82 1814.49 1542.27 Q1816.32 1538.71 1816.32 1531.6 Q1816.32 1524.47 1814.49 1520.93 Q1812.68 1517.37 1809.05 1517.37 M1809.05 1513.66 Q1814.86 1513.66 1817.91 1518.27 Q1820.99 1522.85 1820.99 1531.6 Q1820.99 1540.33 1817.91 1544.94 Q1814.86 1549.52 1809.05 1549.52 Q1803.24 1549.52 1800.16 1544.94 Q1797.1 1540.33 1797.1 1531.6 Q1797.1 1522.85 1800.16 1518.27 Q1803.24 1513.66 1809.05 1513.66 Z" fill="#000000" fill-rule="nonzero" fill-opacity="1" /><path clip-path="url(#clip830)" d="M2255.07 1544.91 L2271.39 1544.91 L2271.39 1548.85 L2249.45 1548.85 L2249.45 1544.91 Q2252.11 1542.16 2256.69 1537.53 Q2261.3 1532.88 2262.48 1531.53 Q2264.73 1529.01 2265.61 1527.27 Q2266.51 1525.51 2266.51 1523.82 Q2266.51 1521.07 2264.56 1519.33 Q2262.64 1517.6 2259.54 1517.6 Q2257.34 1517.6 2254.89 1518.36 Q2252.46 1519.13 2249.68 1520.68 L2249.68 1515.95 Q2252.5 1514.82 2254.96 1514.24 Q2257.41 1513.66 2259.45 1513.66 Q2264.82 1513.66 2268.01 1516.35 Q2271.21 1519.03 2271.21 1523.52 Q2271.21 1525.65 2270.4 1527.57 Q2269.61 1529.47 2267.5 1532.07 Q2266.93 1532.74 2263.82 1535.95 Q2260.72 1539.15 2255.07 1544.91 Z" fill="#000000" fill-rule="nonzero" fill-opacity="1" /><path clip-path="url(#clip830)" d="M2291.21 1517.37 Q2287.6 1517.37 2285.77 1520.93 Q2283.96 1524.47 2283.96 1531.6 Q2283.96 1538.71 2285.77 1542.27 Q2287.6 1545.82 2291.21 1545.82 Q2294.84 1545.82 2296.65 1542.27 Q2298.48 1538.71 2298.48 1531.6 Q2298.48 1524.47 2296.65 1520.93 Q2294.84 1517.37 2291.21 1517.37 M2291.21 1513.66 Q2297.02 1513.66 2300.07 1518.27 Q2303.15 1522.85 2303.15 1531.6 Q2303.15 1540.33 2300.07 1544.94 Q2297.02 1549.52 2291.21 1549.52 Q2285.4 1549.52 2282.32 1544.94 Q2279.26 1540.33 2279.26 1531.6 Q2279.26 1522.85 2282.32 1518.27 Q2285.4 1513.66 2291.21 1513.66 Z" fill="#000000" fill-rule="nonzero" fill-opacity="1" /><path clip-path="url(#clip830)" d="M2321.37 1517.37 Q2317.76 1517.37 2315.93 1520.93 Q2314.12 1524.47 2314.12 1531.6 Q2314.12 1538.71 2315.93 1542.27 Q2317.76 1545.82 2321.37 1545.82 Q2325 1545.82 2326.81 1542.27 Q2328.64 1538.71 2328.64 1531.6 Q2328.64 1524.47 2326.81 1520.93 Q2325 1517.37 2321.37 1517.37 M2321.37 1513.66 Q2327.18 1513.66 2330.24 1518.27 Q2333.31 1522.85 2333.31 1531.6 Q2333.31 1540.33 2330.24 1544.94 Q2327.18 1549.52 2321.37 1549.52 Q2315.56 1549.52 2312.48 1544.94 Q2309.43 1540.33 2309.43 1531.6 Q2309.43 1522.85 2312.48 1518.27 Q2315.56 1513.66 2321.37 1513.66 Z" fill="#000000" fill-rule="nonzero" fill-opacity="1" /><polyline clip-path="url(#clip832)" style="stroke:#000000; stroke-linecap:round; stroke-linejoin:round; stroke-width:2; stroke-opacity:0.1; fill:none" points="184.191,1445.72 2352.76,1445.72 "/>
<polyline clip-path="url(#clip832)" style="stroke:#000000; stroke-linecap:round; stroke-linejoin:round; stroke-width:2; stroke-opacity:0.1; fill:none" points="184.191,1154.69 2352.76,1154.69 "/>
<polyline clip-path="url(#clip832)" style="stroke:#000000; stroke-linecap:round; stroke-linejoin:round; stroke-width:2; stroke-opacity:0.1; fill:none" points="184.191,863.668 2352.76,863.668 "/>
<polyline clip-path="url(#clip832)" style="stroke:#000000; stroke-linecap:round; stroke-linejoin:round; stroke-width:2; stroke-opacity:0.1; fill:none" points="184.191,572.645 2352.76,572.645 "/>
<polyline clip-path="url(#clip832)" style="stroke:#000000; stroke-linecap:round; stroke-linejoin:round; stroke-width:2; stroke-opacity:0.1; fill:none" points="184.191,281.621 2352.76,281.621 "/>
<polyline clip-path="url(#clip830)" style="stroke:#000000; stroke-linecap:round; stroke-linejoin:round; stroke-width:4; stroke-opacity:1; fill:none" points="184.191,1486.45 184.191,47.2441 "/>
<polyline clip-path="url(#clip830)" style="stroke:#000000; stroke-linecap:round; stroke-linejoin:round; stroke-width:4; stroke-opacity:1; fill:none" points="184.191,1445.72 203.088,1445.72 "/>
<polyline clip-path="url(#clip830)" style="stroke:#000000; stroke-linecap:round; stroke-linejoin:round; stroke-width:4; stroke-opacity:1; fill:none" points="184.191,1154.69 203.088,1154.69 "/>
<polyline clip-path="url(#clip830)" style="stroke:#000000; stroke-linecap:round; stroke-linejoin:round; stroke-width:4; stroke-opacity:1; fill:none" points="184.191,863.668 203.088,863.668 "/>
<polyline clip-path="url(#clip830)" style="stroke:#000000; stroke-linecap:round; stroke-linejoin:round; stroke-width:4; stroke-opacity:1; fill:none" points="184.191,572.645 203.088,572.645 "/>
<polyline clip-path="url(#clip830)" style="stroke:#000000; stroke-linecap:round; stroke-linejoin:round; stroke-width:4; stroke-opacity:1; fill:none" points="184.191,281.621 203.088,281.621 "/>
<path clip-path="url(#clip830)" d="M91.0151 1431.51 Q87.404 1431.51 85.5753 1435.08 Q83.7697 1438.62 83.7697 1445.75 Q83.7697 1452.86 85.5753 1456.42 Q87.404 1459.96 91.0151 1459.96 Q94.6493 1459.96 96.4548 1456.42 Q98.2835 1452.86 98.2835 1445.75 Q98.2835 1438.62 96.4548 1435.08 Q94.6493 1431.51 91.0151 1431.51 M91.0151 1427.81 Q96.8252 1427.81 99.8808 1432.42 Q102.959 1437 102.959 1445.75 Q102.959 1454.48 99.8808 1459.08 Q96.8252 1463.67 91.0151 1463.67 Q85.2049 1463.67 82.1262 1459.08 Q79.0707 1454.48 79.0707 1445.75 Q79.0707 1437 82.1262 1432.42 Q85.2049 1427.81 91.0151 1427.81 Z" fill="#000000" fill-rule="nonzero" fill-opacity="1" /><path clip-path="url(#clip830)" d="M111.177 1457.12 L116.061 1457.12 L116.061 1463 L111.177 1463 L111.177 1457.12 Z" fill="#000000" fill-rule="nonzero" fill-opacity="1" /><path clip-path="url(#clip830)" d="M136.246 1431.51 Q132.635 1431.51 130.807 1435.08 Q129.001 1438.62 129.001 1445.75 Q129.001 1452.86 130.807 1456.42 Q132.635 1459.96 136.246 1459.96 Q139.881 1459.96 141.686 1456.42 Q143.515 1452.86 143.515 1445.75 Q143.515 1438.62 141.686 1435.08 Q139.881 1431.51 136.246 1431.51 M136.246 1427.81 Q142.056 1427.81 145.112 1432.42 Q148.191 1437 148.191 1445.75 Q148.191 1454.48 145.112 1459.08 Q142.056 1463.67 136.246 1463.67 Q130.436 1463.67 127.357 1459.08 Q124.302 1454.48 124.302 1445.75 Q124.302 1437 127.357 1432.42 Q130.436 1427.81 136.246 1427.81 Z" fill="#000000" fill-rule="nonzero" fill-opacity="1" /><path clip-path="url(#clip830)" d="M86.0382 1168.04 L102.358 1168.04 L102.358 1171.97 L80.4133 1171.97 L80.4133 1168.04 Q83.0753 1165.28 87.6586 1160.65 Q92.2651 1156 93.4456 1154.66 Q95.691 1152.13 96.5706 1150.4 Q97.4734 1148.64 97.4734 1146.95 Q97.4734 1144.19 95.5289 1142.46 Q93.6076 1140.72 90.5058 1140.72 Q88.3067 1140.72 85.8531 1141.49 Q83.4225 1142.25 80.6447 1143.8 L80.6447 1139.08 Q83.4688 1137.94 85.9225 1137.37 Q88.3762 1136.79 90.4132 1136.79 Q95.7836 1136.79 98.978 1139.47 Q102.172 1142.16 102.172 1146.65 Q102.172 1148.78 101.362 1150.7 Q100.575 1152.6 98.4687 1155.19 Q97.89 1155.86 94.7882 1159.08 Q91.6864 1162.27 86.0382 1168.04 Z" fill="#000000" fill-rule="nonzero" fill-opacity="1" /><path clip-path="url(#clip830)" d="M112.172 1166.09 L117.057 1166.09 L117.057 1171.97 L112.172 1171.97 L112.172 1166.09 Z" fill="#000000" fill-rule="nonzero" fill-opacity="1" /><path clip-path="url(#clip830)" d="M127.288 1137.41 L145.644 1137.41 L145.644 1141.35 L131.57 1141.35 L131.57 1149.82 Q132.589 1149.47 133.607 1149.31 Q134.626 1149.12 135.644 1149.12 Q141.431 1149.12 144.811 1152.3 Q148.191 1155.47 148.191 1160.88 Q148.191 1166.46 144.718 1169.56 Q141.246 1172.64 134.927 1172.64 Q132.751 1172.64 130.482 1172.27 Q128.237 1171.9 125.83 1171.16 L125.83 1166.46 Q127.913 1167.6 130.135 1168.15 Q132.357 1168.71 134.834 1168.71 Q138.839 1168.71 141.177 1166.6 Q143.515 1164.5 143.515 1160.88 Q143.515 1157.27 141.177 1155.17 Q138.839 1153.06 134.834 1153.06 Q132.959 1153.06 131.084 1153.48 Q129.232 1153.89 127.288 1154.77 L127.288 1137.41 Z" fill="#000000" fill-rule="nonzero" fill-opacity="1" /><path clip-path="url(#clip830)" d="M81.0614 846.388 L99.4178 846.388 L99.4178 850.324 L85.3438 850.324 L85.3438 858.796 Q86.3623 858.449 87.3808 858.286 Q88.3993 858.101 89.4178 858.101 Q95.2049 858.101 98.5845 861.273 Q101.964 864.444 101.964 869.86 Q101.964 875.439 98.4919 878.541 Q95.0197 881.62 88.7003 881.62 Q86.5243 881.62 84.2558 881.249 Q82.0105 880.879 79.6031 880.138 L79.6031 875.439 Q81.6864 876.573 83.9086 877.129 Q86.1308 877.685 88.6077 877.685 Q92.6123 877.685 94.9502 875.578 Q97.2882 873.472 97.2882 869.86 Q97.2882 866.249 94.9502 864.143 Q92.6123 862.036 88.6077 862.036 Q86.7327 862.036 84.8577 862.453 Q83.0058 862.87 81.0614 863.749 L81.0614 846.388 Z" fill="#000000" fill-rule="nonzero" fill-opacity="1" /><path clip-path="url(#clip830)" d="M111.177 875.069 L116.061 875.069 L116.061 880.948 L111.177 880.948 L111.177 875.069 Z" fill="#000000" fill-rule="nonzero" fill-opacity="1" /><path clip-path="url(#clip830)" d="M136.246 849.467 Q132.635 849.467 130.807 853.032 Q129.001 856.574 129.001 863.703 Q129.001 870.81 130.807 874.374 Q132.635 877.916 136.246 877.916 Q139.881 877.916 141.686 874.374 Q143.515 870.81 143.515 863.703 Q143.515 856.574 141.686 853.032 Q139.881 849.467 136.246 849.467 M136.246 845.763 Q142.056 845.763 145.112 850.37 Q148.191 854.953 148.191 863.703 Q148.191 872.43 145.112 877.036 Q142.056 881.62 136.246 881.62 Q130.436 881.62 127.357 877.036 Q124.302 872.43 124.302 863.703 Q124.302 854.953 127.357 850.37 Q130.436 845.763 136.246 845.763 Z" fill="#000000" fill-rule="nonzero" fill-opacity="1" /><path clip-path="url(#clip830)" d="M80.8299 555.365 L103.052 555.365 L103.052 557.355 L90.5058 589.925 L85.6216 589.925 L97.4271 559.3 L80.8299 559.3 L80.8299 555.365 Z" fill="#000000" fill-rule="nonzero" fill-opacity="1" /><path clip-path="url(#clip830)" d="M112.172 584.045 L117.057 584.045 L117.057 589.925 L112.172 589.925 L112.172 584.045 Z" fill="#000000" fill-rule="nonzero" fill-opacity="1" /><path clip-path="url(#clip830)" d="M127.288 555.365 L145.644 555.365 L145.644 559.3 L131.57 559.3 L131.57 567.772 Q132.589 567.425 133.607 567.263 Q134.626 567.078 135.644 567.078 Q141.431 567.078 144.811 570.249 Q148.191 573.42 148.191 578.837 Q148.191 584.416 144.718 587.517 Q141.246 590.596 134.927 590.596 Q132.751 590.596 130.482 590.226 Q128.237 589.855 125.83 589.115 L125.83 584.416 Q127.913 585.55 130.135 586.105 Q132.357 586.661 134.834 586.661 Q138.839 586.661 141.177 584.554 Q143.515 582.448 143.515 578.837 Q143.515 575.226 141.177 573.119 Q138.839 571.013 134.834 571.013 Q132.959 571.013 131.084 571.429 Q129.232 571.846 127.288 572.726 L127.288 555.365 Z" fill="#000000" fill-rule="nonzero" fill-opacity="1" /><path clip-path="url(#clip830)" d="M51.6634 294.966 L59.3023 294.966 L59.3023 268.6 L50.9921 270.267 L50.9921 266.008 L59.256 264.341 L63.9319 264.341 L63.9319 294.966 L71.5707 294.966 L71.5707 298.901 L51.6634 298.901 L51.6634 294.966 Z" fill="#000000" fill-rule="nonzero" fill-opacity="1" /><path clip-path="url(#clip830)" d="M91.0151 267.42 Q87.404 267.42 85.5753 270.985 Q83.7697 274.526 83.7697 281.656 Q83.7697 288.762 85.5753 292.327 Q87.404 295.869 91.0151 295.869 Q94.6493 295.869 96.4548 292.327 Q98.2835 288.762 98.2835 281.656 Q98.2835 274.526 96.4548 270.985 Q94.6493 267.42 91.0151 267.42 M91.0151 263.716 Q96.8252 263.716 99.8808 268.323 Q102.959 272.906 102.959 281.656 Q102.959 290.383 99.8808 294.989 Q96.8252 299.572 91.0151 299.572 Q85.2049 299.572 82.1262 294.989 Q79.0707 290.383 79.0707 281.656 Q79.0707 272.906 82.1262 268.323 Q85.2049 263.716 91.0151 263.716 Z" fill="#000000" fill-rule="nonzero" fill-opacity="1" /><path clip-path="url(#clip830)" d="M111.177 293.021 L116.061 293.021 L116.061 298.901 L111.177 298.901 L111.177 293.021 Z" fill="#000000" fill-rule="nonzero" fill-opacity="1" /><path clip-path="url(#clip830)" d="M136.246 267.42 Q132.635 267.42 130.807 270.985 Q129.001 274.526 129.001 281.656 Q129.001 288.762 130.807 292.327 Q132.635 295.869 136.246 295.869 Q139.881 295.869 141.686 292.327 Q143.515 288.762 143.515 281.656 Q143.515 274.526 141.686 270.985 Q139.881 267.42 136.246 267.42 M136.246 263.716 Q142.056 263.716 145.112 268.323 Q148.191 272.906 148.191 281.656 Q148.191 290.383 145.112 294.989 Q142.056 299.572 136.246 299.572 Q130.436 299.572 127.357 294.989 Q124.302 290.383 124.302 281.656 Q124.302 272.906 127.357 268.323 Q130.436 263.716 136.246 263.716 Z" fill="#000000" fill-rule="nonzero" fill-opacity="1" /><polyline clip-path="url(#clip832)" style="stroke:#009af9; stroke-linecap:round; stroke-linejoin:round; stroke-width:12; stroke-opacity:1; fill:none" points="245.565,1445.72 255.794,1434.47 266.023,1422.69 276.252,1411.35 286.481,1400.48 296.711,1388.68 306.94,1377.27 317.169,1366.27 327.398,1355.02 337.627,1343.89 347.856,1333.08 358.085,1321.64 368.314,1309.87 378.543,1298.86 388.772,1287.43 399.001,1275.94 409.23,1264.6 419.46,1253.17 429.689,1242.1 439.918,1230.73 450.147,1219.32 460.376,1208.04 470.605,1196.38 480.834,1185.17 491.063,1174.18 501.292,1162.62 511.521,1151.39 521.75,1140.39 531.979,1129.08 542.209,1117.69 552.438,1106.13 562.667,1094.93 572.896,1082.92 583.125,1071.97 593.354,1060.42 603.583,1048.85 613.812,1037.33 624.041,1025.85 634.27,1014.47 644.499,1003.52 654.728,992.345 664.957,980.569 675.187,968.932 685.416,957.465 695.645,946.028 705.874,934.937 716.103,923.757 726.332,912.205 736.561,901.087 746.79,889.544 757.019,877.799 767.248,866.233 777.477,855.181 787.706,843.789 797.936,832.741 808.165,821.617 818.394,810.21 828.623,799.109 838.852,787.814 849.081,776.772 859.31,765.501 869.539,753.854 879.768,742.703 889.997,731.617 900.226,720.324 910.455,709.346 920.685,698.033 930.914,686.833 941.143,675.608 951.372,664.222 961.601,653.483 971.83,641.913 982.059,630.372 992.288,619.021 1002.52,607.747 1012.75,596.457 1022.98,585.059 1033.2,573.974 1043.43,562.084 1053.66,550.409 1063.89,539.495 1074.12,528.677 1084.35,517.294 1094.58,505.962 1104.81,494.518 1115.04,483.849 1125.27,472.025 1135.5,460.393 1145.72,448.701 1155.95,437.37 1166.18,426.691 1176.41,414.932 1186.64,403.676 1196.87,392.602 1207.1,381.557 1217.33,370.556 1227.56,359.237 1237.79,347.711 1248.02,335.887 1258.24,324.393 1268.47,313.133 1278.7,301.859 1288.93,290.46 1299.16,279.502 1309.39,268.03 1319.62,256.371 1329.85,245.803 1340.08,234.16 1350.31,223.335 1360.54,212.042 1370.76,200.579 1380.99,189.482 1391.22,177.941 1401.45,166.643 1411.68,155.633 1421.91,144.59 1432.14,133.596 1442.37,122.376 1452.6,111.21 1462.83,99.7825 1473.05,88.5024 1483.28,87.9763 1493.51,88.5246 1503.74,88.4559 1513.97,88.2417 1524.2,88.7644 1534.43,88.6037 1544.66,88.4943 1554.89,88.9052 1565.12,89.0694 1575.35,88.5432 1585.57,88.6782 1595.8,89.1869 1606.03,89.3033 1616.26,90.1578 1626.49,89.9029 1636.72,90.1799 1646.95,90.0693 1657.18,89.8237 1667.41,89.897 1677.64,89.9669 1687.87,89.9005 1698.09,90.4279 1708.32,90.436 1718.55,89.9646 1728.78,90.1706 1739.01,90.3638 1749.24,89.8342 1759.47,90.0344 1769.7,89.7538 1779.93,89.5862 1790.16,89.7213 1800.39,89.9238 1810.61,89.4652 1820.84,89.6805 1831.07,89.3662 1841.3,89.8388 1851.53,89.8062 1861.76,89.535 1871.99,89.1648 1882.22,88.8505 1892.45,89.1811 1902.68,89.3068 1912.91,89.1578 1923.13,89.542 1933.36,89.1613 1943.59,89.2312 1953.82,89.5164 1964.05,89.0892 1974.28,89.5536 1984.51,89.833 1994.74,90.0996 2004.97,89.6025 2015.2,89.833 2025.43,89.2067 2035.65,89.0333 2045.88,89.2801 2056.11,89.0973 2066.34,89.3895 2076.57,88.6817 2086.8,89.2719 2097.03,89.9273 2107.26,90.1136 2117.49,89.9063 2127.72,90.365 2137.95,90.2986 2148.17,90.4872 2158.4,90.2253 2168.63,90.2661 2178.86,89.9727 2189.09,89.9913 2199.32,89.7166 2209.55,89.9215 2219.78,89.8749 2230.01,89.4768 2240.24,89.443 2250.47,89.3429 2260.69,89.1881 2270.92,89.5199 2281.15,90.3883 2291.38,90.0775 "/>
<path clip-path="url(#clip830)" d="M256.476 198.898 L525.763 198.898 L525.763 95.2176 L256.476 95.2176  Z" fill="#ffffff" fill-rule="evenodd" fill-opacity="1"/>
<polyline clip-path="url(#clip830)" style="stroke:#000000; stroke-linecap:round; stroke-linejoin:round; stroke-width:4; stroke-opacity:1; fill:none" points="256.476,198.898 525.763,198.898 525.763,95.2176 256.476,95.2176 256.476,198.898 "/>
<polyline clip-path="url(#clip830)" style="stroke:#009af9; stroke-linecap:round; stroke-linejoin:round; stroke-width:12; stroke-opacity:1; fill:none" points="280.571,147.058 425.142,147.058 "/>
<path clip-path="url(#clip830)" d="M463.08 166.745 Q461.275 171.375 459.562 172.787 Q457.849 174.199 454.978 174.199 L451.575 174.199 L451.575 170.634 L454.075 170.634 Q455.835 170.634 456.807 169.8 Q457.779 168.967 458.96 165.865 L459.724 163.921 L449.238 138.412 L453.751 138.412 L461.853 158.689 L469.955 138.412 L474.469 138.412 L463.08 166.745 Z" fill="#000000" fill-rule="nonzero" fill-opacity="1" /><path clip-path="url(#clip830)" d="M481.761 160.402 L489.399 160.402 L489.399 134.037 L481.089 135.703 L481.089 131.444 L489.353 129.778 L494.029 129.778 L494.029 160.402 L501.668 160.402 L501.668 164.338 L481.761 164.338 L481.761 160.402 Z" fill="#000000" fill-rule="nonzero" fill-opacity="1" /></svg>
