<?xml version="1.0" encoding="utf-8"?>
<svg xmlns="http://www.w3.org/2000/svg" xmlns:xlink="http://www.w3.org/1999/xlink" width="600" height="400" viewBox="0 0 2400 1600">
<defs>
  <clipPath id="clip910">
    <rect x="0" y="0" width="2400" height="1600"/>
  </clipPath>
</defs>
<path clip-path="url(#clip910)" d="M0 1600 L2400 1600 L2400 0 L0 0  Z" fill="#ffffff" fill-rule="evenodd" fill-opacity="1"/>
<defs>
  <clipPath id="clip911">
    <rect x="480" y="0" width="1681" height="1600"/>
  </clipPath>
</defs>
<path clip-path="url(#clip910)" d="M140.696 1486.45 L2352.76 1486.45 L2352.76 47.2441 L140.696 47.2441  Z" fill="#ffffff" fill-rule="evenodd" fill-opacity="1"/>
<defs>
  <clipPath id="clip912">
    <rect x="140" y="47" width="2213" height="1440"/>
  </clipPath>
</defs>
<polyline clip-path="url(#clip912)" style="stroke:#000000; stroke-linecap:round; stroke-linejoin:round; stroke-width:2; stroke-opacity:0.1; fill:none" points="203.301,1486.45 203.301,47.2441 "/>
<polyline clip-path="url(#clip912)" style="stroke:#000000; stroke-linecap:round; stroke-linejoin:round; stroke-width:2; stroke-opacity:0.1; fill:none" points="725.013,1486.45 725.013,47.2441 "/>
<polyline clip-path="url(#clip912)" style="stroke:#000000; stroke-linecap:round; stroke-linejoin:round; stroke-width:2; stroke-opacity:0.1; fill:none" points="1246.73,1486.45 1246.73,47.2441 "/>
<polyline clip-path="url(#clip912)" style="stroke:#000000; stroke-linecap:round; stroke-linejoin:round; stroke-width:2; stroke-opacity:0.1; fill:none" points="1768.44,1486.45 1768.44,47.2441 "/>
<polyline clip-path="url(#clip912)" style="stroke:#000000; stroke-linecap:round; stroke-linejoin:round; stroke-width:2; stroke-opacity:0.1; fill:none" points="2290.15,1486.45 2290.15,47.2441 "/>
<polyline clip-path="url(#clip910)" style="stroke:#000000; stroke-linecap:round; stroke-linejoin:round; stroke-width:4; stroke-opacity:1; fill:none" points="140.696,1486.45 2352.76,1486.45 "/>
<polyline clip-path="url(#clip910)" style="stroke:#000000; stroke-linecap:round; stroke-linejoin:round; stroke-width:4; stroke-opacity:1; fill:none" points="203.301,1486.45 203.301,1467.55 "/>
<polyline clip-path="url(#clip910)" style="stroke:#000000; stroke-linecap:round; stroke-linejoin:round; stroke-width:4; stroke-opacity:1; fill:none" points="725.013,1486.45 725.013,1467.55 "/>
<polyline clip-path="url(#clip910)" style="stroke:#000000; stroke-linecap:round; stroke-linejoin:round; stroke-width:4; stroke-opacity:1; fill:none" points="1246.73,1486.45 1246.73,1467.55 "/>
<polyline clip-path="url(#clip910)" style="stroke:#000000; stroke-linecap:round; stroke-linejoin:round; stroke-width:4; stroke-opacity:1; fill:none" points="1768.44,1486.45 1768.44,1467.55 "/>
<polyline clip-path="url(#clip910)" style="stroke:#000000; stroke-linecap:round; stroke-linejoin:round; stroke-width:4; stroke-opacity:1; fill:none" points="2290.15,1486.45 2290.15,1467.55 "/>
<path clip-path="url(#clip910)" d="M203.301 1517.37 Q199.69 1517.37 197.861 1520.93 Q196.056 1524.47 196.056 1531.6 Q196.056 1538.71 197.861 1542.27 Q199.69 1545.82 203.301 1545.82 Q206.935 1545.82 208.741 1542.27 Q210.57 1538.71 210.57 1531.6 Q210.57 1524.47 208.741 1520.93 Q206.935 1517.37 203.301 1517.37 M203.301 1513.66 Q209.111 1513.66 212.167 1518.27 Q215.245 1522.85 215.245 1531.6 Q215.245 1540.33 212.167 1544.94 Q209.111 1549.52 203.301 1549.52 Q197.491 1549.52 194.412 1544.94 Q191.357 1540.33 191.357 1531.6 Q191.357 1522.85 194.412 1518.27 Q197.491 1513.66 203.301 1513.66 Z" fill="#000000" fill-rule="nonzero" fill-opacity="1" /><path clip-path="url(#clip910)" d="M699.713 1514.29 L718.069 1514.29 L718.069 1518.22 L703.995 1518.22 L703.995 1526.7 Q705.013 1526.35 706.032 1526.19 Q707.051 1526 708.069 1526 Q713.856 1526 717.236 1529.17 Q720.615 1532.34 720.615 1537.76 Q720.615 1543.34 717.143 1546.44 Q713.671 1549.52 707.351 1549.52 Q705.176 1549.52 702.907 1549.15 Q700.662 1548.78 698.254 1548.04 L698.254 1543.34 Q700.338 1544.47 702.56 1545.03 Q704.782 1545.58 707.259 1545.58 Q711.263 1545.58 713.601 1543.48 Q715.939 1541.37 715.939 1537.76 Q715.939 1534.15 713.601 1532.04 Q711.263 1529.94 707.259 1529.94 Q705.384 1529.94 703.509 1530.35 Q701.657 1530.77 699.713 1531.65 L699.713 1514.29 Z" fill="#000000" fill-rule="nonzero" fill-opacity="1" /><path clip-path="url(#clip910)" d="M739.828 1517.37 Q736.217 1517.37 734.388 1520.93 Q732.583 1524.47 732.583 1531.6 Q732.583 1538.71 734.388 1542.27 Q736.217 1545.82 739.828 1545.82 Q743.462 1545.82 745.268 1542.27 Q747.097 1538.71 747.097 1531.6 Q747.097 1524.47 745.268 1520.93 Q743.462 1517.37 739.828 1517.37 M739.828 1513.66 Q745.638 1513.66 748.694 1518.27 Q751.772 1522.85 751.772 1531.6 Q751.772 1540.33 748.694 1544.94 Q745.638 1549.52 739.828 1549.52 Q734.018 1549.52 730.939 1544.94 Q727.884 1540.33 727.884 1531.6 Q727.884 1522.85 730.939 1518.27 Q734.018 1513.66 739.828 1513.66 Z" fill="#000000" fill-rule="nonzero" fill-opacity="1" /><path clip-path="url(#clip910)" d="M1206.33 1544.91 L1213.97 1544.91 L1213.97 1518.55 L1205.66 1520.21 L1205.66 1515.95 L1213.92 1514.29 L1218.6 1514.29 L1218.6 1544.91 L1226.24 1544.91 L1226.24 1548.85 L1206.33 1548.85 L1206.33 1544.91 Z" fill="#000000" fill-rule="nonzero" fill-opacity="1" /><path clip-path="url(#clip910)" d="M1245.68 1517.37 Q1242.07 1517.37 1240.24 1520.93 Q1238.44 1524.47 1238.44 1531.6 Q1238.44 1538.71 1240.24 1542.27 Q1242.07 1545.82 1245.68 1545.82 Q1249.32 1545.82 1251.12 1542.27 Q1252.95 1538.71 1252.95 1531.6 Q1252.95 1524.47 1251.12 1520.93 Q1249.32 1517.37 1245.68 1517.37 M1245.68 1513.66 Q1251.49 1513.66 1254.55 1518.27 Q1257.63 1522.85 1257.63 1531.6 Q1257.63 1540.33 1254.55 1544.94 Q1251.49 1549.52 1245.68 1549.52 Q1239.87 1549.52 1236.8 1544.94 Q1233.74 1540.33 1233.74 1531.6 Q1233.74 1522.85 1236.8 1518.27 Q1239.87 1513.66 1245.68 1513.66 Z" fill="#000000" fill-rule="nonzero" fill-opacity="1" /><path clip-path="url(#clip910)" d="M1275.85 1517.37 Q1272.23 1517.37 1270.41 1520.93 Q1268.6 1524.47 1268.6 1531.6 Q1268.6 1538.71 1270.41 1542.27 Q1272.23 1545.82 1275.85 1545.82 Q1279.48 1545.82 1281.29 1542.27 Q1283.11 1538.71 1283.11 1531.6 Q1283.11 1524.47 1281.29 1520.93 Q1279.48 1517.37 1275.85 1517.37 M1275.85 1513.66 Q1281.66 1513.66 1284.71 1518.27 Q1287.79 1522.85 1287.79 1531.6 Q1287.79 1540.33 1284.71 1544.94 Q1281.66 1549.52 1275.85 1549.52 Q1270.04 1549.52 1266.96 1544.94 Q1263.9 1540.33 1263.9 1531.6 Q1263.9 1522.85 1266.96 1518.27 Q1270.04 1513.66 1275.85 1513.66 Z" fill="#000000" fill-rule="nonzero" fill-opacity="1" /><path clip-path="url(#clip910)" d="M1728.04 1544.91 L1735.68 1544.91 L1735.68 1518.55 L1727.37 1520.21 L1727.37 1515.95 L1735.64 1514.29 L1740.31 1514.29 L1740.31 1544.91 L1747.95 1544.91 L1747.95 1548.85 L1728.04 1548.85 L1728.04 1544.91 Z" fill="#000000" fill-rule="nonzero" fill-opacity="1" /><path clip-path="url(#clip910)" d="M1757.44 1514.29 L1775.8 1514.29 L1775.8 1518.22 L1761.73 1518.22 L1761.73 1526.7 Q1762.74 1526.35 1763.76 1526.19 Q1764.78 1526 1765.8 1526 Q1771.59 1526 1774.97 1529.17 Q1778.35 1532.34 1778.35 1537.76 Q1778.35 1543.34 1774.87 1546.44 Q1771.4 1549.52 1765.08 1549.52 Q1762.91 1549.52 1760.64 1549.15 Q1758.39 1548.78 1755.98 1548.04 L1755.98 1543.34 Q1758.07 1544.47 1760.29 1545.03 Q1762.51 1545.58 1764.99 1545.58 Q1768.99 1545.58 1771.33 1543.48 Q1773.67 1541.37 1773.67 1537.76 Q1773.67 1534.15 1771.33 1532.04 Q1768.99 1529.94 1764.99 1529.94 Q1763.11 1529.94 1761.24 1530.35 Q1759.39 1530.77 1757.44 1531.65 L1757.44 1514.29 Z" fill="#000000" fill-rule="nonzero" fill-opacity="1" /><path clip-path="url(#clip910)" d="M1797.56 1517.37 Q1793.95 1517.37 1792.12 1520.93 Q1790.31 1524.47 1790.31 1531.6 Q1790.31 1538.71 1792.12 1542.27 Q1793.95 1545.82 1797.56 1545.82 Q1801.19 1545.82 1803 1542.27 Q1804.83 1538.71 1804.83 1531.6 Q1804.83 1524.47 1803 1520.93 Q1801.19 1517.37 1797.56 1517.37 M1797.56 1513.66 Q1803.37 1513.66 1806.42 1518.27 Q1809.5 1522.85 1809.5 1531.6 Q1809.5 1540.33 1806.42 1544.94 Q1803.37 1549.52 1797.56 1549.52 Q1791.75 1549.52 1788.67 1544.94 Q1785.61 1540.33 1785.61 1531.6 Q1785.61 1522.85 1788.67 1518.27 Q1791.75 1513.66 1797.56 1513.66 Z" fill="#000000" fill-rule="nonzero" fill-opacity="1" /><path clip-path="url(#clip910)" d="M2253.84 1544.91 L2270.16 1544.91 L2270.16 1548.85 L2248.22 1548.85 L2248.22 1544.91 Q2250.88 1542.16 2255.46 1537.53 Q2260.07 1532.88 2261.25 1531.53 Q2263.5 1529.01 2264.38 1527.27 Q2265.28 1525.51 2265.28 1523.82 Q2265.28 1521.07 2263.33 1519.33 Q2261.41 1517.6 2258.31 1517.6 Q2256.11 1517.6 2253.66 1518.36 Q2251.23 1519.13 2248.45 1520.68 L2248.45 1515.95 Q2251.27 1514.82 2253.73 1514.24 Q2256.18 1513.66 2258.22 1513.66 Q2263.59 1513.66 2266.78 1516.35 Q2269.98 1519.03 2269.98 1523.52 Q2269.98 1525.65 2269.17 1527.57 Q2268.38 1529.47 2266.27 1532.07 Q2265.69 1532.74 2262.59 1535.95 Q2259.49 1539.15 2253.84 1544.91 Z" fill="#000000" fill-rule="nonzero" fill-opacity="1" /><path clip-path="url(#clip910)" d="M2289.98 1517.37 Q2286.37 1517.37 2284.54 1520.93 Q2282.73 1524.47 2282.73 1531.6 Q2282.73 1538.71 2284.54 1542.27 Q2286.37 1545.82 2289.98 1545.82 Q2293.61 1545.82 2295.42 1542.27 Q2297.25 1538.71 2297.25 1531.6 Q2297.25 1524.47 2295.42 1520.93 Q2293.61 1517.37 2289.98 1517.37 M2289.98 1513.66 Q2295.79 1513.66 2298.84 1518.27 Q2301.92 1522.85 2301.92 1531.6 Q2301.92 1540.33 2298.84 1544.94 Q2295.79 1549.52 2289.98 1549.52 Q2284.17 1549.52 2281.09 1544.94 Q2278.03 1540.33 2278.03 1531.6 Q2278.03 1522.85 2281.09 1518.27 Q2284.17 1513.66 2289.98 1513.66 Z" fill="#000000" fill-rule="nonzero" fill-opacity="1" /><path clip-path="url(#clip910)" d="M2320.14 1517.37 Q2316.53 1517.37 2314.7 1520.93 Q2312.89 1524.47 2312.89 1531.6 Q2312.89 1538.71 2314.7 1542.27 Q2316.53 1545.82 2320.14 1545.82 Q2323.77 1545.82 2325.58 1542.27 Q2327.41 1538.71 2327.41 1531.6 Q2327.41 1524.47 2325.58 1520.93 Q2323.77 1517.37 2320.14 1517.37 M2320.14 1513.66 Q2325.95 1513.66 2329 1518.27 Q2332.08 1522.85 2332.08 1531.6 Q2332.08 1540.33 2329 1544.94 Q2325.95 1549.52 2320.14 1549.52 Q2314.33 1549.52 2311.25 1544.94 Q2308.19 1540.33 2308.19 1531.6 Q2308.19 1522.85 2311.25 1518.27 Q2314.33 1513.66 2320.14 1513.66 Z" fill="#000000" fill-rule="nonzero" fill-opacity="1" /><polyline clip-path="url(#clip912)" style="stroke:#000000; stroke-linecap:round; stroke-linejoin:round; stroke-width:2; stroke-opacity:0.1; fill:none" points="140.696,1445.72 2352.76,1445.72 "/>
<polyline clip-path="url(#clip912)" style="stroke:#000000; stroke-linecap:round; stroke-linejoin:round; stroke-width:2; stroke-opacity:0.1; fill:none" points="140.696,1135.35 2352.76,1135.35 "/>
<polyline clip-path="url(#clip912)" style="stroke:#000000; stroke-linecap:round; stroke-linejoin:round; stroke-width:2; stroke-opacity:0.1; fill:none" points="140.696,824.981 2352.76,824.981 "/>
<polyline clip-path="url(#clip912)" style="stroke:#000000; stroke-linecap:round; stroke-linejoin:round; stroke-width:2; stroke-opacity:0.1; fill:none" points="140.696,514.614 2352.76,514.614 "/>
<polyline clip-path="url(#clip912)" style="stroke:#000000; stroke-linecap:round; stroke-linejoin:round; stroke-width:2; stroke-opacity:0.1; fill:none" points="140.696,204.246 2352.76,204.246 "/>
<polyline clip-path="url(#clip910)" style="stroke:#000000; stroke-linecap:round; stroke-linejoin:round; stroke-width:4; stroke-opacity:1; fill:none" points="140.696,1486.45 140.696,47.2441 "/>
<polyline clip-path="url(#clip910)" style="stroke:#000000; stroke-linecap:round; stroke-linejoin:round; stroke-width:4; stroke-opacity:1; fill:none" points="140.696,1445.72 159.593,1445.72 "/>
<polyline clip-path="url(#clip910)" style="stroke:#000000; stroke-linecap:round; stroke-linejoin:round; stroke-width:4; stroke-opacity:1; fill:none" points="140.696,1135.35 159.593,1135.35 "/>
<polyline clip-path="url(#clip910)" style="stroke:#000000; stroke-linecap:round; stroke-linejoin:round; stroke-width:4; stroke-opacity:1; fill:none" points="140.696,824.981 159.593,824.981 "/>
<polyline clip-path="url(#clip910)" style="stroke:#000000; stroke-linecap:round; stroke-linejoin:round; stroke-width:4; stroke-opacity:1; fill:none" points="140.696,514.614 159.593,514.614 "/>
<polyline clip-path="url(#clip910)" style="stroke:#000000; stroke-linecap:round; stroke-linejoin:round; stroke-width:4; stroke-opacity:1; fill:none" points="140.696,204.246 159.593,204.246 "/>
<path clip-path="url(#clip910)" d="M92.7512 1431.51 Q89.1401 1431.51 87.3114 1435.08 Q85.5058 1438.62 85.5058 1445.75 Q85.5058 1452.86 87.3114 1456.42 Q89.1401 1459.96 92.7512 1459.96 Q96.3854 1459.96 98.1909 1456.42 Q100.02 1452.86 100.02 1445.75 Q100.02 1438.62 98.1909 1435.08 Q96.3854 1431.51 92.7512 1431.51 M92.7512 1427.81 Q98.5613 1427.81 101.617 1432.42 Q104.696 1437 104.696 1445.75 Q104.696 1454.48 101.617 1459.08 Q98.5613 1463.67 92.7512 1463.67 Q86.941 1463.67 83.8623 1459.08 Q80.8068 1454.48 80.8068 1445.75 Q80.8068 1437 83.8623 1432.42 Q86.941 1427.81 92.7512 1427.81 Z" fill="#000000" fill-rule="nonzero" fill-opacity="1" /><path clip-path="url(#clip910)" d="M83.7929 1118.07 L102.149 1118.07 L102.149 1122 L88.0753 1122 L88.0753 1130.48 Q89.0938 1130.13 90.1123 1129.97 Q91.1308 1129.78 92.1493 1129.78 Q97.9363 1129.78 101.316 1132.95 Q104.696 1136.12 104.696 1141.54 Q104.696 1147.12 101.223 1150.22 Q97.7511 1153.3 91.4317 1153.3 Q89.2558 1153.3 86.9873 1152.93 Q84.7419 1152.56 82.3346 1151.82 L82.3346 1147.12 Q84.4179 1148.25 86.6401 1148.81 Q88.8623 1149.36 91.3391 1149.36 Q95.3437 1149.36 97.6817 1147.26 Q100.02 1145.15 100.02 1141.54 Q100.02 1137.93 97.6817 1135.82 Q95.3437 1133.72 91.3391 1133.72 Q89.4641 1133.72 87.5892 1134.13 Q85.7373 1134.55 83.7929 1135.43 L83.7929 1118.07 Z" fill="#000000" fill-rule="nonzero" fill-opacity="1" /><path clip-path="url(#clip910)" d="M53.3995 838.326 L61.0384 838.326 L61.0384 811.96 L52.7282 813.627 L52.7282 809.368 L60.9921 807.701 L65.668 807.701 L65.668 838.326 L73.3068 838.326 L73.3068 842.261 L53.3995 842.261 L53.3995 838.326 Z" fill="#000000" fill-rule="nonzero" fill-opacity="1" /><path clip-path="url(#clip910)" d="M92.7512 810.78 Q89.1401 810.78 87.3114 814.344 Q85.5058 817.886 85.5058 825.016 Q85.5058 832.122 87.3114 835.687 Q89.1401 839.229 92.7512 839.229 Q96.3854 839.229 98.1909 835.687 Q100.02 832.122 100.02 825.016 Q100.02 817.886 98.1909 814.344 Q96.3854 810.78 92.7512 810.78 M92.7512 807.076 Q98.5613 807.076 101.617 811.682 Q104.696 816.266 104.696 825.016 Q104.696 833.742 101.617 838.349 Q98.5613 842.932 92.7512 842.932 Q86.941 842.932 83.8623 838.349 Q80.8068 833.742 80.8068 825.016 Q80.8068 816.266 83.8623 811.682 Q86.941 807.076 92.7512 807.076 Z" fill="#000000" fill-rule="nonzero" fill-opacity="1" /><path clip-path="url(#clip910)" d="M54.3949 527.958 L62.0337 527.958 L62.0337 501.593 L53.7236 503.259 L53.7236 499 L61.9874 497.334 L66.6633 497.334 L66.6633 527.958 L74.3022 527.958 L74.3022 531.894 L54.3949 531.894 L54.3949 527.958 Z" fill="#000000" fill-rule="nonzero" fill-opacity="1" /><path clip-path="url(#clip910)" d="M83.7929 497.334 L102.149 497.334 L102.149 501.269 L88.0753 501.269 L88.0753 509.741 Q89.0938 509.394 90.1123 509.232 Q91.1308 509.046 92.1493 509.046 Q97.9363 509.046 101.316 512.218 Q104.696 515.389 104.696 520.806 Q104.696 526.384 101.223 529.486 Q97.7511 532.565 91.4317 532.565 Q89.2558 532.565 86.9873 532.194 Q84.7419 531.824 82.3346 531.083 L82.3346 526.384 Q84.4179 527.519 86.6401 528.074 Q88.8623 528.63 91.3391 528.63 Q95.3437 528.63 97.6817 526.523 Q100.02 524.417 100.02 520.806 Q100.02 517.195 97.6817 515.088 Q95.3437 512.982 91.3391 512.982 Q89.4641 512.982 87.5892 513.398 Q85.7373 513.815 83.7929 514.695 L83.7929 497.334 Z" fill="#000000" fill-rule="nonzero" fill-opacity="1" /><path clip-path="url(#clip910)" d="M56.6171 217.591 L72.9365 217.591 L72.9365 221.526 L50.9921 221.526 L50.9921 217.591 Q53.6541 214.836 58.2375 210.207 Q62.8439 205.554 64.0245 204.211 Q66.2698 201.688 67.1494 199.952 Q68.0522 198.193 68.0522 196.503 Q68.0522 193.748 66.1078 192.012 Q64.1865 190.276 61.0847 190.276 Q58.8856 190.276 56.4319 191.04 Q54.0014 191.804 51.2236 193.355 L51.2236 188.633 Q54.0477 187.499 56.5014 186.92 Q58.955 186.341 60.9921 186.341 Q66.3624 186.341 69.5568 189.026 Q72.7513 191.711 72.7513 196.202 Q72.7513 198.332 71.9411 200.253 Q71.1541 202.151 69.0476 204.744 Q68.4689 205.415 65.367 208.633 Q62.2652 211.827 56.6171 217.591 Z" fill="#000000" fill-rule="nonzero" fill-opacity="1" /><path clip-path="url(#clip910)" d="M92.7512 190.045 Q89.1401 190.045 87.3114 193.61 Q85.5058 197.151 85.5058 204.281 Q85.5058 211.387 87.3114 214.952 Q89.1401 218.494 92.7512 218.494 Q96.3854 218.494 98.1909 214.952 Q100.02 211.387 100.02 204.281 Q100.02 197.151 98.1909 193.61 Q96.3854 190.045 92.7512 190.045 M92.7512 186.341 Q98.5613 186.341 101.617 190.948 Q104.696 195.531 104.696 204.281 Q104.696 213.008 101.617 217.614 Q98.5613 222.197 92.7512 222.197 Q86.941 222.197 83.8623 217.614 Q80.8068 213.008 80.8068 204.281 Q80.8068 195.531 83.8623 190.948 Q86.941 186.341 92.7512 186.341 Z" fill="#000000" fill-rule="nonzero" fill-opacity="1" /><polyline clip-path="url(#clip912)" style="stroke:#009af9; stroke-linecap:round; stroke-linejoin:round; stroke-width:12; stroke-opacity:1; fill:none" points="203.301,1445.72 213.735,1437.14 224.17,1411.84 234.604,1369.59 245.038,1310.41 255.472,1236.6 265.907,1159.24 276.341,1086.29 286.775,1018.6 297.209,957.806 307.643,903.616 318.078,850.63 328.512,800.505 338.946,755.334 349.38,710.331 359.815,667.507 370.249,629.536 380.683,597.5 391.117,565.681 401.552,536.19 411.986,507.072 422.42,484.191 432.854,457.953 443.289,434.458 453.723,415.141 464.157,399.722 474.591,383.328 485.026,367.201 495.46,352.341 505.894,337.22 516.328,319.181 526.763,301.236 537.197,286.965 547.631,269.684 558.065,259.38 568.5,249.938 578.934,240.503 589.368,232.074 599.802,231.043 610.237,221.676 620.671,214.842 631.105,203.706 641.539,194.96 651.974,185.593 662.408,178.293 672.842,171.459 683.276,168.045 693.711,162.98 704.145,154.463 714.579,147.163 725.013,143.669 735.448,141.049 745.882,140.553 756.316,142.57 766.75,145.674 777.185,145.444 787.619,147.871 798.053,150.193 808.487,148.759 818.922,149.795 829.356,150.968 839.79,145.94 850.224,142.409 860.659,141.037 871.093,139.392 881.527,140.335 891.961,143.886 902.396,141.626 912.83,141.837 923.264,139.106 933.698,134.19 944.133,133.464 954.567,134.904 965.001,135.059 975.435,132.092 985.87,133.402 996.304,127.908 1006.74,124.401 1017.17,118.51 1027.61,115.487 1038.04,108.802 1048.48,106.828 1058.91,107.101 1069.34,108.858 1079.78,110.41 1090.21,113.426 1100.65,114.407 1111.08,112.489 1121.51,113.873 1131.95,117.56 1142.38,115.239 1152.82,114.513 1163.25,116.456 1173.69,114.196 1184.12,113.606 1194.55,113.911 1204.99,118.026 1215.42,118.585 1225.86,120.112 1236.29,118.057 1246.73,118.485 1257.16,114.972 1267.59,113.215 1278.03,112.626 1288.46,110.658 1298.9,107.92 1309.33,108.144 1319.77,110.919 1330.2,113.172 1340.63,116.096 1351.07,118.703 1361.5,117.678 1371.94,115.829 1382.37,113.83 1392.81,113.551 1403.24,116.766 1413.67,119.373 1424.11,117.939 1434.54,115.928 1444.98,116.778 1455.41,115.798 1465.84,118.355 1476.28,117.672 1486.71,119.932 1497.15,119.727 1507.58,118.727 1518.02,115.338 1528.45,112.905 1538.88,107.852 1549.32,104.37 1559.75,101.235 1570.19,99.8696 1580.62,103.246 1591.06,103.904 1601.49,102.216 1611.92,101.092 1622.36,99.0316 1632.79,93.4698 1643.23,88.9632 1653.66,87.9763 1664.1,88.8453 1674.53,92.7249 1684.96,96.8093 1695.4,105.04 1705.83,113.985 1716.27,122.619 1726.7,125.326 1737.14,130.012 1747.57,134.24 1758,134.618 1768.44,131.763 1778.87,132.173 1789.31,133.787 1799.74,132.34 1810.18,129.95 1820.61,128.864 1831.04,125.984 1841.48,121.794 1851.91,120.863 1862.35,118.206 1872.78,112.93 1883.21,109.404 1893.65,106.356 1904.08,100.552 1914.52,97.6287 1924.95,95.8596 1935.39,93.6374 1945.82,91.769 1956.25,93.1284 1966.69,92.849 1977.12,94.5685 1987.56,94.3388 1997.99,92.5449 2008.43,89.7516 2018.86,91.0924 2029.29,90.8006 2039.73,90.0247 2050.16,93.1035 2060.6,95.1147 2071.03,94.5312 2081.47,97.0576 2091.9,100.273 2102.33,101.614 2112.77,103.681 2123.2,107.039 2133.64,109.249 2144.07,114.202 2154.51,119.112 2164.94,119.789 2175.37,123.079 2185.81,126.704 2196.24,128.175 2206.68,127.542 2217.11,132.781 2227.54,135.512 2237.98,133.743 2248.41,131.434 2258.85,130.801 2269.28,124.73 2279.72,120.242 2290.15,117.908 "/>
<path clip-path="url(#clip910)" d="M2005.38 1438.47 L2279.02 1438.47 L2279.02 1334.79 L2005.38 1334.79  Z" fill="#ffffff" fill-rule="evenodd" fill-opacity="1"/>
<polyline clip-path="url(#clip910)" style="stroke:#000000; stroke-linecap:round; stroke-linejoin:round; stroke-width:4; stroke-opacity:1; fill:none" points="2005.38,1438.47 2279.02,1438.47 2279.02,1334.79 2005.38,1334.79 2005.38,1438.47 "/>
<polyline clip-path="url(#clip910)" style="stroke:#009af9; stroke-linecap:round; stroke-linejoin:round; stroke-width:12; stroke-opacity:1; fill:none" points="2029.96,1386.63 2177.43,1386.63 "/>
<path clip-path="url(#clip910)" d="M2215.85 1406.32 Q2214.05 1410.95 2212.34 1412.36 Q2210.62 1413.78 2207.75 1413.78 L2204.35 1413.78 L2204.35 1410.21 L2206.85 1410.21 Q2208.61 1410.21 2209.58 1409.38 Q2210.55 1408.54 2211.73 1405.44 L2212.5 1403.5 L2202.01 1377.99 L2206.53 1377.99 L2214.63 1398.27 L2222.73 1377.99 L2227.24 1377.99 L2215.85 1406.32 Z" fill="#000000" fill-rule="nonzero" fill-opacity="1" /><path clip-path="url(#clip910)" d="M2234.53 1399.98 L2242.17 1399.98 L2242.17 1373.61 L2233.86 1375.28 L2233.86 1371.02 L2242.13 1369.35 L2246.8 1369.35 L2246.8 1399.98 L2254.44 1399.98 L2254.44 1403.91 L2234.53 1403.91 L2234.53 1399.98 Z" fill="#000000" fill-rule="nonzero" fill-opacity="1" /></svg>
