<?xml version="1.0" encoding="utf-8"?>
<svg xmlns="http://www.w3.org/2000/svg" xmlns:xlink="http://www.w3.org/1999/xlink" width="600" height="400" viewBox="0 0 2400 1600">
<defs>
  <clipPath id="clip070">
    <rect x="0" y="0" width="2400" height="1600"/>
  </clipPath>
</defs>
<path clip-path="url(#clip070)" d="M0 1600 L2400 1600 L2400 0 L0 0  Z" fill="#ffffff" fill-rule="evenodd" fill-opacity="1"/>
<defs>
  <clipPath id="clip071">
    <rect x="480" y="0" width="1681" height="1600"/>
  </clipPath>
</defs>
<path clip-path="url(#clip070)" d="M140.696 1486.45 L2352.76 1486.45 L2352.76 47.2441 L140.696 47.2441  Z" fill="#ffffff" fill-rule="evenodd" fill-opacity="1"/>
<defs>
  <clipPath id="clip072">
    <rect x="140" y="47" width="2213" height="1440"/>
  </clipPath>
</defs>
<polyline clip-path="url(#clip072)" style="stroke:#000000; stroke-linecap:round; stroke-linejoin:round; stroke-width:2; stroke-opacity:0.1; fill:none" points="203.301,1486.45 203.301,47.2441 "/>
<polyline clip-path="url(#clip072)" style="stroke:#000000; stroke-linecap:round; stroke-linejoin:round; stroke-width:2; stroke-opacity:0.1; fill:none" points="725.013,1486.45 725.013,47.2441 "/>
<polyline clip-path="url(#clip072)" style="stroke:#000000; stroke-linecap:round; stroke-linejoin:round; stroke-width:2; stroke-opacity:0.1; fill:none" points="1246.73,1486.45 1246.73,47.2441 "/>
<polyline clip-path="url(#clip072)" style="stroke:#000000; stroke-linecap:round; stroke-linejoin:round; stroke-width:2; stroke-opacity:0.1; fill:none" points="1768.44,1486.45 1768.44,47.2441 "/>
<polyline clip-path="url(#clip072)" style="stroke:#000000; stroke-linecap:round; stroke-linejoin:round; stroke-width:2; stroke-opacity:0.1; fill:none" points="2290.15,1486.45 2290.15,47.2441 "/>
<polyline clip-path="url(#clip070)" style="stroke:#000000; stroke-linecap:round; stroke-linejoin:round; stroke-width:4; stroke-opacity:1; fill:none" points="140.696,1486.45 2352.76,1486.45 "/>
<polyline clip-path="url(#clip070)" style="stroke:#000000; stroke-linecap:round; stroke-linejoin:round; stroke-width:4; stroke-opacity:1; fill:none" points="203.301,1486.45 203.301,1467.55 "/>
<polyline clip-path="url(#clip070)" style="stroke:#000000; stroke-linecap:round; stroke-linejoin:round; stroke-width:4; stroke-opacity:1; fill:none" points="725.013,1486.45 725.013,1467.55 "/>
<polyline clip-path="url(#clip070)" style="stroke:#000000; stroke-linecap:round; stroke-linejoin:round; stroke-width:4; stroke-opacity:1; fill:none" points="1246.73,1486.45 1246.73,1467.55 "/>
<polyline clip-path="url(#clip070)" style="stroke:#000000; stroke-linecap:round; stroke-linejoin:round; stroke-width:4; stroke-opacity:1; fill:none" points="1768.44,1486.45 1768.44,1467.55 "/>
<polyline clip-path="url(#clip070)" style="stroke:#000000; stroke-linecap:round; stroke-linejoin:round; stroke-width:4; stroke-opacity:1; fill:none" points="2290.15,1486.45 2290.15,1467.55 "/>
<path clip-path="url(#clip070)" d="M203.301 1517.37 Q199.69 1517.37 197.861 1520.93 Q196.056 1524.47 196.056 1531.6 Q196.056 1538.71 197.861 1542.27 Q199.69 1545.82 203.301 1545.82 Q206.935 1545.82 208.741 1542.27 Q210.57 1538.71 210.57 1531.6 Q210.57 1524.47 208.741 1520.93 Q206.935 1517.37 203.301 1517.37 M203.301 1513.66 Q209.111 1513.66 212.167 1518.27 Q215.245 1522.85 215.245 1531.6 Q215.245 1540.33 212.167 1544.94 Q209.111 1549.52 203.301 1549.52 Q197.491 1549.52 194.412 1544.94 Q191.357 1540.33 191.357 1531.6 Q191.357 1522.85 194.412 1518.27 Q197.491 1513.66 203.301 1513.66 Z" fill="#000000" fill-rule="nonzero" fill-opacity="1" /><path clip-path="url(#clip070)" d="M684.62 1544.91 L692.259 1544.91 L692.259 1518.55 L683.949 1520.21 L683.949 1515.95 L692.213 1514.29 L696.889 1514.29 L696.889 1544.91 L704.527 1544.91 L704.527 1548.85 L684.62 1548.85 L684.62 1544.91 Z" fill="#000000" fill-rule="nonzero" fill-opacity="1" /><path clip-path="url(#clip070)" d="M723.972 1517.37 Q720.361 1517.37 718.532 1520.93 Q716.726 1524.47 716.726 1531.6 Q716.726 1538.71 718.532 1542.27 Q720.361 1545.82 723.972 1545.82 Q727.606 1545.82 729.411 1542.27 Q731.24 1538.71 731.24 1531.6 Q731.24 1524.47 729.411 1520.93 Q727.606 1517.37 723.972 1517.37 M723.972 1513.66 Q729.782 1513.66 732.837 1518.27 Q735.916 1522.85 735.916 1531.6 Q735.916 1540.33 732.837 1544.94 Q729.782 1549.52 723.972 1549.52 Q718.162 1549.52 715.083 1544.94 Q712.027 1540.33 712.027 1531.6 Q712.027 1522.85 715.083 1518.27 Q718.162 1513.66 723.972 1513.66 Z" fill="#000000" fill-rule="nonzero" fill-opacity="1" /><path clip-path="url(#clip070)" d="M754.134 1517.37 Q750.522 1517.37 748.694 1520.93 Q746.888 1524.47 746.888 1531.6 Q746.888 1538.71 748.694 1542.27 Q750.522 1545.82 754.134 1545.82 Q757.768 1545.82 759.573 1542.27 Q761.402 1538.71 761.402 1531.6 Q761.402 1524.47 759.573 1520.93 Q757.768 1517.37 754.134 1517.37 M754.134 1513.66 Q759.944 1513.66 762.999 1518.27 Q766.078 1522.85 766.078 1531.6 Q766.078 1540.33 762.999 1544.94 Q759.944 1549.52 754.134 1549.52 Q748.323 1549.52 745.245 1544.94 Q742.189 1540.33 742.189 1531.6 Q742.189 1522.85 745.245 1518.27 Q748.323 1513.66 754.134 1513.66 Z" fill="#000000" fill-rule="nonzero" fill-opacity="1" /><path clip-path="url(#clip070)" d="M1210.42 1544.91 L1226.74 1544.91 L1226.74 1548.85 L1204.79 1548.85 L1204.79 1544.91 Q1207.46 1542.16 1212.04 1537.53 Q1216.64 1532.88 1217.83 1531.53 Q1220.07 1529.01 1220.95 1527.27 Q1221.85 1525.51 1221.85 1523.82 Q1221.85 1521.07 1219.91 1519.33 Q1217.99 1517.6 1214.89 1517.6 Q1212.69 1517.6 1210.23 1518.36 Q1207.8 1519.13 1205.02 1520.68 L1205.02 1515.95 Q1207.85 1514.82 1210.3 1514.24 Q1212.76 1513.66 1214.79 1513.66 Q1220.16 1513.66 1223.36 1516.35 Q1226.55 1519.03 1226.55 1523.52 Q1226.55 1525.65 1225.74 1527.57 Q1224.96 1529.47 1222.85 1532.07 Q1222.27 1532.74 1219.17 1535.95 Q1216.07 1539.15 1210.42 1544.91 Z" fill="#000000" fill-rule="nonzero" fill-opacity="1" /><path clip-path="url(#clip070)" d="M1246.55 1517.37 Q1242.94 1517.37 1241.11 1520.93 Q1239.31 1524.47 1239.31 1531.6 Q1239.31 1538.71 1241.11 1542.27 Q1242.94 1545.82 1246.55 1545.82 Q1250.19 1545.82 1251.99 1542.27 Q1253.82 1538.71 1253.82 1531.6 Q1253.82 1524.47 1251.99 1520.93 Q1250.19 1517.37 1246.55 1517.37 M1246.55 1513.66 Q1252.36 1513.66 1255.42 1518.27 Q1258.5 1522.85 1258.5 1531.6 Q1258.5 1540.33 1255.42 1544.94 Q1252.36 1549.52 1246.55 1549.52 Q1240.74 1549.52 1237.66 1544.94 Q1234.61 1540.33 1234.61 1531.6 Q1234.61 1522.85 1237.66 1518.27 Q1240.74 1513.66 1246.55 1513.66 Z" fill="#000000" fill-rule="nonzero" fill-opacity="1" /><path clip-path="url(#clip070)" d="M1276.71 1517.37 Q1273.1 1517.37 1271.27 1520.93 Q1269.47 1524.47 1269.47 1531.6 Q1269.47 1538.71 1271.27 1542.27 Q1273.1 1545.82 1276.71 1545.82 Q1280.35 1545.82 1282.15 1542.27 Q1283.98 1538.71 1283.98 1531.6 Q1283.98 1524.47 1282.15 1520.93 Q1280.35 1517.37 1276.71 1517.37 M1276.71 1513.66 Q1282.52 1513.66 1285.58 1518.27 Q1288.66 1522.85 1288.66 1531.6 Q1288.66 1540.33 1285.58 1544.94 Q1282.52 1549.52 1276.71 1549.52 Q1270.9 1549.52 1267.83 1544.94 Q1264.77 1540.33 1264.77 1531.6 Q1264.77 1522.85 1267.83 1518.27 Q1270.9 1513.66 1276.71 1513.66 Z" fill="#000000" fill-rule="nonzero" fill-opacity="1" /><path clip-path="url(#clip070)" d="M1742.2 1530.21 Q1745.56 1530.93 1747.43 1533.2 Q1749.33 1535.47 1749.33 1538.8 Q1749.33 1543.92 1745.81 1546.72 Q1742.29 1549.52 1735.81 1549.52 Q1733.64 1549.52 1731.32 1549.08 Q1729.03 1548.66 1726.57 1547.81 L1726.57 1543.29 Q1728.52 1544.43 1730.83 1545.01 Q1733.15 1545.58 1735.67 1545.58 Q1740.07 1545.58 1742.36 1543.85 Q1744.68 1542.11 1744.68 1538.8 Q1744.68 1535.75 1742.52 1534.03 Q1740.39 1532.3 1736.57 1532.3 L1732.55 1532.3 L1732.55 1528.45 L1736.76 1528.45 Q1740.21 1528.45 1742.04 1527.09 Q1743.87 1525.7 1743.87 1523.11 Q1743.87 1520.45 1741.97 1519.03 Q1740.09 1517.6 1736.57 1517.6 Q1734.65 1517.6 1732.45 1518.01 Q1730.26 1518.43 1727.62 1519.31 L1727.62 1515.14 Q1730.28 1514.4 1732.59 1514.03 Q1734.93 1513.66 1736.99 1513.66 Q1742.32 1513.66 1745.42 1516.09 Q1748.52 1518.5 1748.52 1522.62 Q1748.52 1525.49 1746.88 1527.48 Q1745.23 1529.45 1742.2 1530.21 Z" fill="#000000" fill-rule="nonzero" fill-opacity="1" /><path clip-path="url(#clip070)" d="M1768.2 1517.37 Q1764.58 1517.37 1762.76 1520.93 Q1760.95 1524.47 1760.95 1531.6 Q1760.95 1538.71 1762.76 1542.27 Q1764.58 1545.82 1768.2 1545.82 Q1771.83 1545.82 1773.63 1542.27 Q1775.46 1538.71 1775.46 1531.6 Q1775.46 1524.47 1773.63 1520.93 Q1771.83 1517.37 1768.2 1517.37 M1768.2 1513.66 Q1774.01 1513.66 1777.06 1518.27 Q1780.14 1522.85 1780.14 1531.6 Q1780.14 1540.33 1777.06 1544.94 Q1774.01 1549.52 1768.2 1549.52 Q1762.38 1549.52 1759.31 1544.94 Q1756.25 1540.33 1756.25 1531.6 Q1756.25 1522.85 1759.31 1518.27 Q1762.38 1513.66 1768.2 1513.66 Z" fill="#000000" fill-rule="nonzero" fill-opacity="1" /><path clip-path="url(#clip070)" d="M1798.36 1517.37 Q1794.75 1517.37 1792.92 1520.93 Q1791.11 1524.47 1791.11 1531.6 Q1791.11 1538.71 1792.92 1542.27 Q1794.75 1545.82 1798.36 1545.82 Q1801.99 1545.82 1803.8 1542.27 Q1805.63 1538.71 1805.63 1531.6 Q1805.63 1524.47 1803.8 1520.93 Q1801.99 1517.37 1798.36 1517.37 M1798.36 1513.66 Q1804.17 1513.66 1807.22 1518.27 Q1810.3 1522.85 1810.3 1531.6 Q1810.3 1540.33 1807.22 1544.94 Q1804.17 1549.52 1798.36 1549.52 Q1792.55 1549.52 1789.47 1544.94 Q1786.41 1540.33 1786.41 1531.6 Q1786.41 1522.85 1789.47 1518.27 Q1792.55 1513.66 1798.36 1513.66 Z" fill="#000000" fill-rule="nonzero" fill-opacity="1" /><path clip-path="url(#clip070)" d="M2263.24 1518.36 L2251.44 1536.81 L2263.24 1536.81 L2263.24 1518.36 M2262.01 1514.29 L2267.89 1514.29 L2267.89 1536.81 L2272.82 1536.81 L2272.82 1540.7 L2267.89 1540.7 L2267.89 1548.85 L2263.24 1548.85 L2263.24 1540.7 L2247.64 1540.7 L2247.64 1536.19 L2262.01 1514.29 Z" fill="#000000" fill-rule="nonzero" fill-opacity="1" /><path clip-path="url(#clip070)" d="M2290.56 1517.37 Q2286.94 1517.37 2285.12 1520.93 Q2283.31 1524.47 2283.31 1531.6 Q2283.31 1538.71 2285.12 1542.27 Q2286.94 1545.82 2290.56 1545.82 Q2294.19 1545.82 2296 1542.27 Q2297.82 1538.71 2297.82 1531.6 Q2297.82 1524.47 2296 1520.93 Q2294.19 1517.37 2290.56 1517.37 M2290.56 1513.66 Q2296.37 1513.66 2299.42 1518.27 Q2302.5 1522.85 2302.5 1531.6 Q2302.5 1540.33 2299.42 1544.94 Q2296.37 1549.52 2290.56 1549.52 Q2284.75 1549.52 2281.67 1544.94 Q2278.61 1540.33 2278.61 1531.6 Q2278.61 1522.85 2281.67 1518.27 Q2284.75 1513.66 2290.56 1513.66 Z" fill="#000000" fill-rule="nonzero" fill-opacity="1" /><path clip-path="url(#clip070)" d="M2320.72 1517.37 Q2317.11 1517.37 2315.28 1520.93 Q2313.47 1524.47 2313.47 1531.6 Q2313.47 1538.71 2315.28 1542.27 Q2317.11 1545.82 2320.72 1545.82 Q2324.35 1545.82 2326.16 1542.27 Q2327.99 1538.71 2327.99 1531.6 Q2327.99 1524.47 2326.16 1520.93 Q2324.35 1517.37 2320.72 1517.37 M2320.72 1513.66 Q2326.53 1513.66 2329.58 1518.27 Q2332.66 1522.85 2332.66 1531.6 Q2332.66 1540.33 2329.58 1544.94 Q2326.53 1549.52 2320.72 1549.52 Q2314.91 1549.52 2311.83 1544.94 Q2308.77 1540.33 2308.77 1531.6 Q2308.77 1522.85 2311.83 1518.27 Q2314.91 1513.66 2320.72 1513.66 Z" fill="#000000" fill-rule="nonzero" fill-opacity="1" /><polyline clip-path="url(#clip072)" style="stroke:#000000; stroke-linecap:round; stroke-linejoin:round; stroke-width:2; stroke-opacity:0.1; fill:none" points="140.696,1445.72 2352.76,1445.72 "/>
<polyline clip-path="url(#clip072)" style="stroke:#000000; stroke-linecap:round; stroke-linejoin:round; stroke-width:2; stroke-opacity:0.1; fill:none" points="140.696,1106.41 2352.76,1106.41 "/>
<polyline clip-path="url(#clip072)" style="stroke:#000000; stroke-linecap:round; stroke-linejoin:round; stroke-width:2; stroke-opacity:0.1; fill:none" points="140.696,767.111 2352.76,767.111 "/>
<polyline clip-path="url(#clip072)" style="stroke:#000000; stroke-linecap:round; stroke-linejoin:round; stroke-width:2; stroke-opacity:0.1; fill:none" points="140.696,427.808 2352.76,427.808 "/>
<polyline clip-path="url(#clip072)" style="stroke:#000000; stroke-linecap:round; stroke-linejoin:round; stroke-width:2; stroke-opacity:0.1; fill:none" points="140.696,88.5056 2352.76,88.5056 "/>
<polyline clip-path="url(#clip070)" style="stroke:#000000; stroke-linecap:round; stroke-linejoin:round; stroke-width:4; stroke-opacity:1; fill:none" points="140.696,1486.45 140.696,47.2441 "/>
<polyline clip-path="url(#clip070)" style="stroke:#000000; stroke-linecap:round; stroke-linejoin:round; stroke-width:4; stroke-opacity:1; fill:none" points="140.696,1445.72 159.593,1445.72 "/>
<polyline clip-path="url(#clip070)" style="stroke:#000000; stroke-linecap:round; stroke-linejoin:round; stroke-width:4; stroke-opacity:1; fill:none" points="140.696,1106.41 159.593,1106.41 "/>
<polyline clip-path="url(#clip070)" style="stroke:#000000; stroke-linecap:round; stroke-linejoin:round; stroke-width:4; stroke-opacity:1; fill:none" points="140.696,767.111 159.593,767.111 "/>
<polyline clip-path="url(#clip070)" style="stroke:#000000; stroke-linecap:round; stroke-linejoin:round; stroke-width:4; stroke-opacity:1; fill:none" points="140.696,427.808 159.593,427.808 "/>
<polyline clip-path="url(#clip070)" style="stroke:#000000; stroke-linecap:round; stroke-linejoin:round; stroke-width:4; stroke-opacity:1; fill:none" points="140.696,88.5056 159.593,88.5056 "/>
<path clip-path="url(#clip070)" d="M92.7512 1431.51 Q89.1401 1431.51 87.3114 1435.08 Q85.5058 1438.62 85.5058 1445.75 Q85.5058 1452.86 87.3114 1456.42 Q89.1401 1459.96 92.7512 1459.96 Q96.3854 1459.96 98.1909 1456.42 Q100.02 1452.86 100.02 1445.75 Q100.02 1438.62 98.1909 1435.08 Q96.3854 1431.51 92.7512 1431.51 M92.7512 1427.81 Q98.5613 1427.81 101.617 1432.42 Q104.696 1437 104.696 1445.75 Q104.696 1454.48 101.617 1459.08 Q98.5613 1463.67 92.7512 1463.67 Q86.941 1463.67 83.8623 1459.08 Q80.8068 1454.48 80.8068 1445.75 Q80.8068 1437 83.8623 1432.42 Q86.941 1427.81 92.7512 1427.81 Z" fill="#000000" fill-rule="nonzero" fill-opacity="1" /><path clip-path="url(#clip070)" d="M83.7929 1089.13 L102.149 1089.13 L102.149 1093.07 L88.0753 1093.07 L88.0753 1101.54 Q89.0938 1101.19 90.1123 1101.03 Q91.1308 1100.85 92.1493 1100.85 Q97.9363 1100.85 101.316 1104.02 Q104.696 1107.19 104.696 1112.61 Q104.696 1118.18 101.223 1121.29 Q97.7511 1124.36 91.4317 1124.36 Q89.2558 1124.36 86.9873 1123.99 Q84.7419 1123.62 82.3346 1122.88 L82.3346 1118.18 Q84.4179 1119.32 86.6401 1119.87 Q88.8623 1120.43 91.3391 1120.43 Q95.3437 1120.43 97.6817 1118.32 Q100.02 1116.22 100.02 1112.61 Q100.02 1108.99 97.6817 1106.89 Q95.3437 1104.78 91.3391 1104.78 Q89.4641 1104.78 87.5892 1105.2 Q85.7373 1105.61 83.7929 1106.49 L83.7929 1089.13 Z" fill="#000000" fill-rule="nonzero" fill-opacity="1" /><path clip-path="url(#clip070)" d="M53.3995 780.455 L61.0384 780.455 L61.0384 754.09 L52.7282 755.757 L52.7282 751.497 L60.9921 749.831 L65.668 749.831 L65.668 780.455 L73.3068 780.455 L73.3068 784.391 L53.3995 784.391 L53.3995 780.455 Z" fill="#000000" fill-rule="nonzero" fill-opacity="1" /><path clip-path="url(#clip070)" d="M92.7512 752.909 Q89.1401 752.909 87.3114 756.474 Q85.5058 760.016 85.5058 767.145 Q85.5058 774.252 87.3114 777.817 Q89.1401 781.358 92.7512 781.358 Q96.3854 781.358 98.1909 777.817 Q100.02 774.252 100.02 767.145 Q100.02 760.016 98.1909 756.474 Q96.3854 752.909 92.7512 752.909 M92.7512 749.206 Q98.5613 749.206 101.617 753.812 Q104.696 758.395 104.696 767.145 Q104.696 775.872 101.617 780.479 Q98.5613 785.062 92.7512 785.062 Q86.941 785.062 83.8623 780.479 Q80.8068 775.872 80.8068 767.145 Q80.8068 758.395 83.8623 753.812 Q86.941 749.206 92.7512 749.206 Z" fill="#000000" fill-rule="nonzero" fill-opacity="1" /><path clip-path="url(#clip070)" d="M54.3949 441.153 L62.0337 441.153 L62.0337 414.787 L53.7236 416.454 L53.7236 412.195 L61.9874 410.528 L66.6633 410.528 L66.6633 441.153 L74.3022 441.153 L74.3022 445.088 L54.3949 445.088 L54.3949 441.153 Z" fill="#000000" fill-rule="nonzero" fill-opacity="1" /><path clip-path="url(#clip070)" d="M83.7929 410.528 L102.149 410.528 L102.149 414.463 L88.0753 414.463 L88.0753 422.935 Q89.0938 422.588 90.1123 422.426 Q91.1308 422.241 92.1493 422.241 Q97.9363 422.241 101.316 425.412 Q104.696 428.584 104.696 434 Q104.696 439.579 101.223 442.681 Q97.7511 445.759 91.4317 445.759 Q89.2558 445.759 86.9873 445.389 Q84.7419 445.019 82.3346 444.278 L82.3346 439.579 Q84.4179 440.713 86.6401 441.269 Q88.8623 441.824 91.3391 441.824 Q95.3437 441.824 97.6817 439.718 Q100.02 437.611 100.02 434 Q100.02 430.389 97.6817 428.283 Q95.3437 426.176 91.3391 426.176 Q89.4641 426.176 87.5892 426.593 Q85.7373 427.01 83.7929 427.889 L83.7929 410.528 Z" fill="#000000" fill-rule="nonzero" fill-opacity="1" /><path clip-path="url(#clip070)" d="M56.6171 101.85 L72.9365 101.85 L72.9365 105.786 L50.9921 105.786 L50.9921 101.85 Q53.6541 99.0958 58.2375 94.4662 Q62.8439 89.8135 64.0245 88.4709 Q66.2698 85.9477 67.1494 84.2116 Q68.0522 82.4524 68.0522 80.7626 Q68.0522 78.008 66.1078 76.2719 Q64.1865 74.5358 61.0847 74.5358 Q58.8856 74.5358 56.4319 75.2996 Q54.0014 76.0635 51.2236 77.6144 L51.2236 72.8922 Q54.0477 71.758 56.5014 71.1793 Q58.955 70.6006 60.9921 70.6006 Q66.3624 70.6006 69.5568 73.2858 Q72.7513 75.9709 72.7513 80.4617 Q72.7513 82.5913 71.9411 84.5126 Q71.1541 86.4107 69.0476 89.0033 Q68.4689 89.6746 65.367 92.8921 Q62.2652 96.0866 56.6171 101.85 Z" fill="#000000" fill-rule="nonzero" fill-opacity="1" /><path clip-path="url(#clip070)" d="M92.7512 74.3043 Q89.1401 74.3043 87.3114 77.8691 Q85.5058 81.4107 85.5058 88.5403 Q85.5058 95.6468 87.3114 99.2116 Q89.1401 102.753 92.7512 102.753 Q96.3854 102.753 98.1909 99.2116 Q100.02 95.6468 100.02 88.5403 Q100.02 81.4107 98.1909 77.8691 Q96.3854 74.3043 92.7512 74.3043 M92.7512 70.6006 Q98.5613 70.6006 101.617 75.207 Q104.696 79.7904 104.696 88.5403 Q104.696 97.2671 101.617 101.874 Q98.5613 106.457 92.7512 106.457 Q86.941 106.457 83.8623 101.874 Q80.8068 97.2671 80.8068 88.5403 Q80.8068 79.7904 83.8623 75.207 Q86.941 70.6006 92.7512 70.6006 Z" fill="#000000" fill-rule="nonzero" fill-opacity="1" /><polyline clip-path="url(#clip072)" style="stroke:#009af9; stroke-linecap:round; stroke-linejoin:round; stroke-width:12; stroke-opacity:1; fill:none" points="203.301,1445.72 208.518,1377.54 213.735,1310.37 218.952,1242.68 224.17,1175.03 229.387,1107.49 234.604,1040.26 239.821,971.866 245.038,905.112 250.255,835.27 255.472,766.948 260.689,699.332 265.907,631.485 271.124,562.952 276.341,494.461 281.558,427.923 286.775,360.246 291.992,292.08 297.209,223.657 302.426,155.43 307.643,87.9763 312.861,100.782 318.078,129.582 323.295,166.532 328.512,209.141 333.729,256.365 338.946,304.879 344.163,357.613 349.38,409.771 354.598,466.977 359.815,523.804 365.032,580.603 370.249,638.149 375.466,697.187 380.683,756.945 385.9,815.4 391.117,874.676 396.335,934.841 401.552,996.303 406.769,1057.97 411.986,1118.83 417.203,1168.11 422.42,1199.54 427.637,1222.01 432.854,1237.16 438.072,1246.13 443.289,1250.93 448.506,1250.81 453.723,1246.44 458.94,1236.37 464.157,1223.43 469.374,1206.24 474.591,1185.42 479.809,1161.28 485.026,1133 490.243,1101.27 495.46,1068.24 500.677,1031.57 505.894,991.295 511.111,948.658 516.328,903.788 521.546,857.345 526.763,810.738 531.98,763.473 537.197,717.891 542.414,673.782 547.631,632.082 552.848,593.544 558.065,559.084 563.283,530.915 568.5,506.411 573.717,486.541 578.934,472.501 584.151,463.564 589.368,461.148 594.585,462.967 599.802,469.223 605.02,480.794 610.237,496.795 615.454,517.825 620.671,542.085 625.888,570.308 631.105,600.723 636.322,634.491 641.539,670.314 646.757,706.776 651.974,744.771 657.191,782.861 662.408,820.259 667.625,855.641 672.842,888.656 678.059,920.693 683.276,949.554 688.494,975.775 693.711,998.352 698.928,1019.12 704.145,1035.6 709.362,1048.07 714.579,1058.35 719.796,1064.44 725.013,1067.7 730.23,1066.49 735.448,1062.49 740.665,1054.81 745.882,1043.34 751.099,1029.36 756.316,1012.69 761.533,993.045 766.75,971.907 771.967,948.169 777.185,923.407 782.402,898.109 787.619,871.806 792.836,844.716 798.053,817.694 803.27,790.774 808.487,764.444 813.704,740.082 818.922,716.969 824.139,694.839 829.356,675.804 834.573,658.547 839.79,643.353 845.007,631.159 850.224,622.656 855.441,616.956 860.659,613.298 865.876,612.151 871.093,614.587 876.31,620.281 881.527,628.696 886.744,638.617 891.961,651.727 897.178,666.806 902.396,682.794 907.613,700.017 912.83,719.9 918.047,739.817 923.264,760.718 928.481,780.764 933.698,800.383 938.915,819.879 944.133,839.212 949.35,858.505 954.567,875.606 959.784,891.641 965.001,907.012 970.218,920.041 975.435,930.756 980.652,939.205 985.87,945.848 991.087,950.918 996.304,953.72 1001.52,953.903 1006.74,952.987 1011.96,950.551 1017.17,944.776 1022.39,937.054 1027.61,926.42 1032.82,917.279 1038.04,905.94 1043.26,894.152 1048.48,881.401 1053.69,866.268 1058.91,851.794 1064.13,835.412 1069.34,818.936 1074.56,803.864 1079.78,788.548 1084.99,773.998 1090.21,759.103 1095.43,745.877 1100.65,734.877 1105.86,725.512 1111.08,716.419 1116.3,708.893 1121.51,702.996 1126.73,699.698 1131.95,697.995 1137.17,696.787 1142.38,697.214 1147.6,698.714 1152.82,701.218 1158.03,706.111 1163.25,711.655 1168.47,721.366 1173.69,730.439 1178.9,740.91 1184.12,752.175 1189.34,764.627 1194.55,778.219 1199.77,790.251 1204.99,801.55 1210.21,812.428 1215.42,824.928 1220.64,835.514 1225.86,846.08 1231.07,855.872 1236.29,864.233 1241.51,872.342 1246.73,879.108 1251.94,886.199 1257.16,891.194 1262.38,895.455 1267.59,898.217 1272.81,898.007 1278.03,897.342 1283.25,895.177 1288.46,891.675 1293.68,886.45 1298.9,880.092 1304.11,874.418 1309.33,867.266 1314.55,860.344 1319.77,850.097 1324.98,841.513 1330.2,832.644 1335.42,823.082 1340.63,814.016 1345.85,804.814 1351.07,796.562 1356.29,786.872 1361.5,778.538 1366.72,771.318 1371.94,763.982 1377.15,757.909 1382.37,754.02 1387.59,749.48 1392.81,746.135 1398.02,744.065 1403.24,742.552 1408.46,741.914 1413.67,741.548 1418.89,741.649 1424.11,745.314 1429.33,748.558 1434.54,751.815 1439.76,756.063 1444.98,761.003 1450.19,766.683 1455.41,772.207 1460.63,779.176 1465.84,786.641 1471.06,792.898 1476.28,800.193 1481.5,806.836 1486.71,812.774 1491.93,818.603 1497.15,823.991 1502.36,829.393 1507.58,836.098 1512.8,840.861 1518.02,846.304 1523.23,850.966 1528.45,853.083 1533.67,854.467 1538.88,856.198 1544.1,857.962 1549.32,858.627 1554.54,857.08 1559.75,856.055 1564.97,853.531 1570.19,850.796 1575.4,847.668 1580.62,843.474 1585.84,839.545 1591.06,834.313 1596.27,830.628 1601.49,827.167 1606.71,822.336 1611.92,817.103 1617.14,811.892 1622.36,805.784 1627.58,799.589 1632.79,795.632 1638.01,791.724 1643.23,787.286 1648.44,782.406 1653.66,778.375 1658.88,775.546 1664.1,774.134 1669.31,772.601 1674.53,771.827 1679.75,771.583 1684.96,771.06 1690.18,771.522 1695.4,773.313 1700.62,774.996 1705.83,775.695 1711.05,777.751 1716.27,779.794 1721.48,782.746 1726.7,785.589 1731.92,789.925 1737.14,793.284 1742.35,797.675 1747.57,802.697 1752.79,807.793 1758,812.448 1763.22,816.846 1768.44,819.947 1773.66,823.326 1778.87,825.023 1784.09,826.801 1789.31,830.37 1794.52,831.836 1799.74,833.125 1804.96,833.451 1810.18,835.134 1815.39,836.451 1820.61,835.894 1825.83,836.091 1831.04,836.579 1836.26,836.749 1841.48,835.582 1846.69,834.143 1851.91,831.693 1857.13,828.219 1862.35,825.505 1867.56,822.688 1872.78,818.759 1878,816.506 1883.21,813.493 1888.43,810.392 1893.65,806.463 1898.87,804.481 1904.08,802.629 1909.3,800.824 1914.52,798.15 1919.73,794.621 1924.95,792.823 1930.17,791.221 1935.39,789.281 1940.6,787.218 1945.82,785.732 1951.04,783.974 1956.25,782.549 1961.47,783.133 1966.69,783.35 1971.91,784.313 1977.12,785.956 1982.34,786.207 1987.56,789.423 1992.77,790.699 1997.99,793.135 2003.21,795.212 2008.43,797.071 2013.64,798.15 2018.86,800.464 2024.08,804.169 2029.29,806.673 2034.51,808.641 2039.73,811.552 2044.95,813.805 2050.16,815.984 2055.38,818.366 2060.6,821.508 2065.81,822.593 2071.03,823.964 2076.25,823.883 2081.47,825.104 2086.68,825.199 2091.9,824.622 2097.12,825.681 2102.33,825.912 2107.55,825.552 2112.77,824.711 2117.99,825.539 2123.2,824.629 2128.42,823.387 2133.64,821.894 2138.85,820.354 2144.07,819.343 2149.29,816.859 2154.51,815.862 2159.72,813.656 2164.94,812.55 2170.16,811.322 2175.37,809.062 2180.59,808.811 2185.81,806.87 2191.03,805.859 2196.24,805.472 2201.46,804.447 2206.68,803.667 2211.89,802.256 2217.11,801.903 2222.33,800.607 2227.54,800.546 2232.76,799.277 2237.98,800.125 2243.2,800.152 2248.41,799.623 2253.63,800.423 2258.85,799.874 2264.06,800.037 2269.28,799.087 2274.5,800.247 2279.72,801.333 2284.93,801.943 2290.15,803.66 "/>
<polyline clip-path="url(#clip072)" style="stroke:#e26f46; stroke-linecap:round; stroke-linejoin:round; stroke-width:12; stroke-opacity:1; fill:none" points="203.301,1445.72 208.518,1445.72 213.735,1445.72 218.952,1445.72 224.17,1445.72 229.387,1445.72 234.604,1445.72 239.821,1445.72 245.038,1445.72 250.255,1445.72 255.472,1445.72 260.689,1445.72 265.907,1445.72 271.124,1445.72 276.341,1445.72 281.558,1445.72 286.775,1445.72 291.992,1445.72 297.209,1445.72 302.426,1445.72 307.643,1445.72 312.861,1390.21 318.078,1349.43 323.295,1314.93 328.512,1285.37 333.729,1259.17 338.946,1234.34 344.163,1210.25 349.38,1190.74 354.598,1167.83 359.815,1148.68 365.032,1130.61 370.249,1114.18 375.466,1096.87 380.683,1080.19 385.9,1066.09 391.117,1051.01 396.335,1035.07 401.552,1019.8 406.769,1004.97 411.986,990.826 417.203,990.691 422.42,1006.2 427.637,1028.06 432.854,1054.69 438.072,1084.7 443.289,1114.24 448.506,1144.06 453.723,1173.07 458.94,1200.58 464.157,1227.76 469.374,1252.1 474.591,1275.49 479.809,1296.22 485.026,1314.36 490.243,1331.43 495.46,1346.73 500.677,1359.21 505.894,1371.2 511.111,1381.93 516.328,1390.8 521.546,1398.13 526.763,1402.88 531.98,1406.71 537.197,1408.11 542.414,1407.82 547.631,1405.63 552.848,1402.24 558.065,1396.95 563.283,1388.98 568.5,1380.97 573.717,1371.06 578.934,1359.59 584.151,1347.93 589.368,1335.86 594.585,1322.54 599.802,1309.48 605.02,1294.88 610.237,1280.29 615.454,1265.03 620.671,1250.17 625.888,1235.73 631.105,1222.07 636.322,1206.44 641.539,1193.56 646.757,1182.53 651.974,1170.54 657.191,1161.54 662.408,1153.47 667.625,1147.82 672.842,1144.02 678.059,1142.94 683.276,1143.26 688.494,1146.7 693.711,1152.36 698.928,1157.21 704.145,1165.37 709.362,1174.88 714.579,1184.8 719.796,1196.25 725.013,1208.31 730.23,1221.6 735.448,1234.59 740.665,1247.45 745.882,1260.26 751.099,1272.3 756.316,1284.12 761.533,1296 766.75,1306.96 771.967,1317.46 777.185,1326.11 782.402,1333.49 787.619,1339.32 792.836,1344.33 798.053,1348.64 803.27,1351.97 808.487,1353 813.704,1352.37 818.922,1352.04 824.139,1351.27 829.356,1348.72 834.573,1345.14 839.79,1340.58 845.007,1334.68 850.224,1327.65 855.441,1320.32 860.659,1312.76 865.876,1304.07 871.093,1295.82 876.31,1286.22 881.527,1276.7 886.744,1268.1 891.961,1260.09 897.178,1251.87 902.396,1243.69 907.613,1236.81 912.83,1229.51 918.047,1222.62 923.264,1215.79 928.481,1210.95 933.698,1207.36 938.915,1204.77 944.133,1202.62 949.35,1201.13 954.567,1202.39 959.784,1203.54 965.001,1205.33 970.218,1207.01 975.435,1210.85 980.652,1215.57 985.87,1221.82 991.087,1226.81 996.304,1233.56 1001.52,1240.63 1006.74,1246.42 1011.96,1252.16 1017.17,1260.35 1022.39,1265.77 1027.61,1273.76 1032.82,1279.56 1038.04,1284.95 1043.26,1290.14 1048.48,1295.71 1053.69,1301.04 1058.91,1305.67 1064.13,1309.6 1069.34,1313.74 1074.56,1315.16 1079.78,1316.54 1084.99,1316.6 1090.21,1316.69 1095.43,1315.99 1100.65,1314.98 1105.86,1312.41 1111.08,1310.37 1116.3,1307.9 1121.51,1304.71 1126.73,1299.79 1131.95,1295.12 1137.17,1291.48 1142.38,1285.8 1147.6,1281 1152.82,1275.88 1158.03,1270.64 1163.25,1265.44 1168.47,1259.7 1173.69,1254.14 1178.9,1249.9 1184.12,1245.3 1189.34,1241.69 1194.55,1236.92 1199.77,1233.84 1204.99,1232.44 1210.21,1232.43 1215.42,1231.35 1220.64,1231.11 1225.86,1231.23 1231.07,1231.28 1236.29,1232.3 1241.51,1234.36 1246.73,1236.38 1251.94,1238.67 1257.16,1239.79 1262.38,1241.82 1267.59,1245.04 1272.81,1249.69 1278.03,1253.45 1283.25,1258.3 1288.46,1262.09 1293.68,1266.84 1298.9,1270.95 1304.11,1274.02 1309.33,1277.93 1314.55,1281.38 1319.77,1286.24 1324.98,1288.71 1330.2,1290.76 1335.42,1292.9 1340.63,1294.35 1345.85,1295.76 1351.07,1296.81 1356.29,1297.54 1361.5,1297.11 1366.72,1296.92 1371.94,1296.39 1377.15,1295.85 1382.37,1294.09 1387.59,1292.93 1392.81,1290.05 1398.02,1287.68 1403.24,1284.51 1408.46,1282.35 1413.67,1278.62 1418.89,1276.05 1424.11,1271.78 1429.33,1269.58 1434.54,1266.66 1439.76,1263.82 1444.98,1259.83 1450.19,1257.08 1455.41,1254.57 1460.63,1252.39 1465.84,1249.89 1471.06,1248.45 1476.28,1246.68 1481.5,1245.43 1486.71,1246.45 1491.93,1246.42 1497.15,1245.49 1502.36,1245.31 1507.58,1245.57 1512.8,1246.27 1518.02,1247.14 1523.23,1247.86 1528.45,1250.98 1533.67,1253.56 1538.88,1254.69 1544.1,1256.58 1549.32,1258.22 1554.54,1260.65 1559.75,1262.91 1564.97,1264.09 1570.19,1267.05 1575.4,1269.24 1580.62,1270.91 1585.84,1273.27 1591.06,1274.88 1596.27,1276.76 1601.49,1277.02 1606.71,1278.73 1611.92,1281.11 1617.14,1282.71 1622.36,1284.83 1627.58,1285.37 1632.79,1285.18 1638.01,1284.75 1643.23,1285.26 1648.44,1285.15 1653.66,1284.42 1658.88,1283.31 1664.1,1282.52 1669.31,1281.2 1674.53,1279.38 1679.75,1278.07 1684.96,1276.38 1690.18,1274.82 1695.4,1272.65 1700.62,1271.06 1705.83,1270.28 1711.05,1268.54 1716.27,1267.08 1721.48,1265.37 1726.7,1263.6 1731.92,1260.79 1737.14,1259.38 1742.35,1258.2 1747.57,1257.48 1752.79,1255.67 1758,1255.27 1763.22,1254.65 1768.44,1255.96 1773.66,1255.84 1778.87,1256.61 1784.09,1256.91 1789.31,1256.6 1794.52,1257.17 1799.74,1257.66 1804.96,1258.23 1810.18,1258.92 1815.39,1259.43 1820.61,1260.72 1825.83,1261.98 1831.04,1262.73 1836.26,1264.18 1841.48,1265.25 1846.69,1266.71 1851.91,1268.74 1857.13,1271.15 1862.35,1272.68 1867.56,1274.78 1872.78,1276.69 1878,1277.88 1883.21,1278.2 1888.43,1278.35 1893.65,1279.71 1898.87,1279.16 1904.08,1279.76 1909.3,1279.69 1914.52,1279.14 1919.73,1278.46 1924.95,1276.59 1930.17,1276.87 1935.39,1275.66 1940.6,1275.94 1945.82,1275.11 1951.04,1274.56 1956.25,1272.83 1961.47,1271.35 1966.69,1269.69 1971.91,1268.69 1977.12,1266.38 1982.34,1266.28 1987.56,1264.64 1992.77,1263.26 1997.99,1262.17 2003.21,1261.12 2008.43,1261.45 2013.64,1260.7 2018.86,1260.34 2024.08,1259.3 2029.29,1259 2034.51,1258.91 2039.73,1258.99 2044.95,1260.33 2050.16,1260.06 2055.38,1260.46 2060.6,1259.83 2065.81,1260.69 2071.03,1261.16 2076.25,1261.39 2081.47,1261.62 2086.68,1262.09 2091.9,1263.53 2097.12,1262.7 2102.33,1263.53 2107.55,1265.02 2112.77,1266.08 2117.99,1265.6 2123.2,1265.67 2128.42,1267.4 2133.64,1268.04 2138.85,1269.11 2144.07,1270.22 2149.29,1272.07 2154.51,1272.44 2159.72,1273.71 2164.94,1274.4 2170.16,1274.45 2175.37,1274.36 2180.59,1273.51 2185.81,1274.61 2191.03,1273.76 2196.24,1272.98 2201.46,1272.85 2206.68,1274.31 2211.89,1274.03 2217.11,1274.02 2222.33,1274.36 2227.54,1274.31 2232.76,1273.53 2237.98,1272.55 2243.2,1272.52 2248.41,1273.02 2253.63,1272.11 2258.85,1271.39 2264.06,1270.23 2269.28,1270.6 2274.5,1269.69 2279.72,1267.65 2284.93,1267.7 2290.15,1266.56 "/>
<path clip-path="url(#clip070)" d="M2028.23 250.738 L2279.02 250.738 L2279.02 95.2176 L2028.23 95.2176  Z" fill="#ffffff" fill-rule="evenodd" fill-opacity="1"/>
<polyline clip-path="url(#clip070)" style="stroke:#000000; stroke-linecap:round; stroke-linejoin:round; stroke-width:4; stroke-opacity:1; fill:none" points="2028.23,250.738 2279.02,250.738 2279.02,95.2176 2028.23,95.2176 2028.23,250.738 "/>
<polyline clip-path="url(#clip070)" style="stroke:#009af9; stroke-linecap:round; stroke-linejoin:round; stroke-width:12; stroke-opacity:1; fill:none" points="2052.81,147.058 2200.28,147.058 "/>
<path clip-path="url(#clip070)" d="M2226.43 129.778 L2231.46 129.778 L2240.04 142.625 L2248.68 129.778 L2253.7 129.778 L2242.59 146.375 L2254.44 164.338 L2249.42 164.338 L2239.7 149.639 L2229.91 164.338 L2224.86 164.338 L2237.2 145.889 L2226.43 129.778 Z" fill="#000000" fill-rule="nonzero" fill-opacity="1" /><polyline clip-path="url(#clip070)" style="stroke:#e26f46; stroke-linecap:round; stroke-linejoin:round; stroke-width:12; stroke-opacity:1; fill:none" points="2052.81,198.898 2200.28,198.898 "/>
<path clip-path="url(#clip070)" d="M2224.86 181.618 L2229.88 181.618 L2239.47 195.83 L2248.98 181.618 L2254 181.618 L2241.78 199.719 L2241.78 216.178 L2237.08 216.178 L2237.08 199.719 L2224.86 181.618 Z" fill="#000000" fill-rule="nonzero" fill-opacity="1" /></svg>
