<?xml version="1.0" encoding="utf-8"?>
<svg xmlns="http://www.w3.org/2000/svg" xmlns:xlink="http://www.w3.org/1999/xlink" width="600" height="400" viewBox="0 0 2400 1600">
<defs>
  <clipPath id="clip720">
    <rect x="0" y="0" width="2400" height="1600"/>
  </clipPath>
</defs>
<path clip-path="url(#clip720)" d="M0 1600 L2400 1600 L2400 0 L0 0  Z" fill="#ffffff" fill-rule="evenodd" fill-opacity="1"/>
<defs>
  <clipPath id="clip721">
    <rect x="480" y="0" width="1681" height="1600"/>
  </clipPath>
</defs>
<path clip-path="url(#clip720)" d="M249.542 1423.18 L2352.76 1423.18 L2352.76 47.2441 L249.542 47.2441  Z" fill="#ffffff" fill-rule="evenodd" fill-opacity="1"/>
<defs>
  <clipPath id="clip722">
    <rect x="249" y="47" width="2104" height="1377"/>
  </clipPath>
</defs>
<polyline clip-path="url(#clip722)" style="stroke:#000000; stroke-linecap:round; stroke-linejoin:round; stroke-width:2; stroke-opacity:0.1; fill:none" points="606.692,1423.18 606.692,47.2441 "/>
<polyline clip-path="url(#clip722)" style="stroke:#000000; stroke-linecap:round; stroke-linejoin:round; stroke-width:2; stroke-opacity:0.1; fill:none" points="1102.73,1423.18 1102.73,47.2441 "/>
<polyline clip-path="url(#clip722)" style="stroke:#000000; stroke-linecap:round; stroke-linejoin:round; stroke-width:2; stroke-opacity:0.1; fill:none" points="1598.77,1423.18 1598.77,47.2441 "/>
<polyline clip-path="url(#clip722)" style="stroke:#000000; stroke-linecap:round; stroke-linejoin:round; stroke-width:2; stroke-opacity:0.1; fill:none" points="2094.81,1423.18 2094.81,47.2441 "/>
<polyline clip-path="url(#clip720)" style="stroke:#000000; stroke-linecap:round; stroke-linejoin:round; stroke-width:4; stroke-opacity:1; fill:none" points="249.542,1423.18 2352.76,1423.18 "/>
<polyline clip-path="url(#clip720)" style="stroke:#000000; stroke-linecap:round; stroke-linejoin:round; stroke-width:4; stroke-opacity:1; fill:none" points="606.692,1423.18 606.692,1404.28 "/>
<polyline clip-path="url(#clip720)" style="stroke:#000000; stroke-linecap:round; stroke-linejoin:round; stroke-width:4; stroke-opacity:1; fill:none" points="1102.73,1423.18 1102.73,1404.28 "/>
<polyline clip-path="url(#clip720)" style="stroke:#000000; stroke-linecap:round; stroke-linejoin:round; stroke-width:4; stroke-opacity:1; fill:none" points="1598.77,1423.18 1598.77,1404.28 "/>
<polyline clip-path="url(#clip720)" style="stroke:#000000; stroke-linecap:round; stroke-linejoin:round; stroke-width:4; stroke-opacity:1; fill:none" points="2094.81,1423.18 2094.81,1404.28 "/>
<path clip-path="url(#clip720)" d="M581.391 1451.02 L599.747 1451.02 L599.747 1454.96 L585.673 1454.96 L585.673 1463.43 Q586.692 1463.08 587.71 1462.92 Q588.729 1462.73 589.747 1462.73 Q595.534 1462.73 598.914 1465.9 Q602.293 1469.08 602.293 1474.49 Q602.293 1480.07 598.821 1483.17 Q595.349 1486.25 589.03 1486.25 Q586.854 1486.25 584.585 1485.88 Q582.34 1485.51 579.932 1484.77 L579.932 1480.07 Q582.016 1481.2 584.238 1481.76 Q586.46 1482.32 588.937 1482.32 Q592.942 1482.32 595.28 1480.21 Q597.618 1478.1 597.618 1474.49 Q597.618 1470.88 595.28 1468.77 Q592.942 1466.67 588.937 1466.67 Q587.062 1466.67 585.187 1467.08 Q583.335 1467.5 581.391 1468.38 L581.391 1451.02 Z" fill="#000000" fill-rule="evenodd" fill-opacity="1" /><path clip-path="url(#clip720)" d="M621.506 1454.1 Q617.895 1454.1 616.067 1457.66 Q614.261 1461.2 614.261 1468.33 Q614.261 1475.44 616.067 1479.01 Q617.895 1482.55 621.506 1482.55 Q625.141 1482.55 626.946 1479.01 Q628.775 1475.44 628.775 1468.33 Q628.775 1461.2 626.946 1457.66 Q625.141 1454.1 621.506 1454.1 M621.506 1450.39 Q627.316 1450.39 630.372 1455 Q633.451 1459.58 633.451 1468.33 Q633.451 1477.06 630.372 1481.67 Q627.316 1486.25 621.506 1486.25 Q615.696 1486.25 612.617 1481.67 Q609.562 1477.06 609.562 1468.33 Q609.562 1459.58 612.617 1455 Q615.696 1450.39 621.506 1450.39 Z" fill="#000000" fill-rule="evenodd" fill-opacity="1" /><path clip-path="url(#clip720)" d="M1062.34 1481.64 L1069.98 1481.64 L1069.98 1455.28 L1061.67 1456.95 L1061.67 1452.69 L1069.93 1451.02 L1074.61 1451.02 L1074.61 1481.64 L1082.25 1481.64 L1082.25 1485.58 L1062.34 1485.58 L1062.34 1481.64 Z" fill="#000000" fill-rule="evenodd" fill-opacity="1" /><path clip-path="url(#clip720)" d="M1101.69 1454.1 Q1098.08 1454.1 1096.25 1457.66 Q1094.45 1461.2 1094.45 1468.33 Q1094.45 1475.44 1096.25 1479.01 Q1098.08 1482.55 1101.69 1482.55 Q1105.33 1482.55 1107.13 1479.01 Q1108.96 1475.44 1108.96 1468.33 Q1108.96 1461.2 1107.13 1457.66 Q1105.33 1454.1 1101.69 1454.1 M1101.69 1450.39 Q1107.5 1450.39 1110.56 1455 Q1113.64 1459.58 1113.64 1468.33 Q1113.64 1477.06 1110.56 1481.67 Q1107.5 1486.25 1101.69 1486.25 Q1095.88 1486.25 1092.8 1481.67 Q1089.75 1477.06 1089.75 1468.33 Q1089.75 1459.58 1092.8 1455 Q1095.88 1450.39 1101.69 1450.39 Z" fill="#000000" fill-rule="evenodd" fill-opacity="1" /><path clip-path="url(#clip720)" d="M1131.85 1454.1 Q1128.24 1454.1 1126.41 1457.66 Q1124.61 1461.2 1124.61 1468.33 Q1124.61 1475.44 1126.41 1479.01 Q1128.24 1482.55 1131.85 1482.55 Q1135.49 1482.55 1137.29 1479.01 Q1139.12 1475.44 1139.12 1468.33 Q1139.12 1461.2 1137.29 1457.66 Q1135.49 1454.1 1131.85 1454.1 M1131.85 1450.39 Q1137.66 1450.39 1140.72 1455 Q1143.8 1459.58 1143.8 1468.33 Q1143.8 1477.06 1140.72 1481.67 Q1137.66 1486.25 1131.85 1486.25 Q1126.04 1486.25 1122.96 1481.67 Q1119.91 1477.06 1119.91 1468.33 Q1119.91 1459.58 1122.96 1455 Q1126.04 1450.39 1131.85 1450.39 Z" fill="#000000" fill-rule="evenodd" fill-opacity="1" /><path clip-path="url(#clip720)" d="M1558.38 1481.64 L1566.02 1481.64 L1566.02 1455.28 L1557.71 1456.95 L1557.71 1452.69 L1565.97 1451.02 L1570.65 1451.02 L1570.65 1481.64 L1578.29 1481.64 L1578.29 1485.58 L1558.38 1485.58 L1558.38 1481.64 Z" fill="#000000" fill-rule="evenodd" fill-opacity="1" /><path clip-path="url(#clip720)" d="M1587.78 1451.02 L1606.13 1451.02 L1606.13 1454.96 L1592.06 1454.96 L1592.06 1463.43 Q1593.08 1463.08 1594.1 1462.92 Q1595.12 1462.73 1596.13 1462.73 Q1601.92 1462.73 1605.3 1465.9 Q1608.68 1469.08 1608.68 1474.49 Q1608.68 1480.07 1605.21 1483.17 Q1601.74 1486.25 1595.42 1486.25 Q1593.24 1486.25 1590.97 1485.88 Q1588.73 1485.51 1586.32 1484.77 L1586.32 1480.07 Q1588.4 1481.2 1590.63 1481.76 Q1592.85 1482.32 1595.32 1482.32 Q1599.33 1482.32 1601.67 1480.21 Q1604.01 1478.1 1604.01 1474.49 Q1604.01 1470.88 1601.67 1468.77 Q1599.33 1466.67 1595.32 1466.67 Q1593.45 1466.67 1591.57 1467.08 Q1589.72 1467.5 1587.78 1468.38 L1587.78 1451.02 Z" fill="#000000" fill-rule="evenodd" fill-opacity="1" /><path clip-path="url(#clip720)" d="M1627.89 1454.1 Q1624.28 1454.1 1622.45 1457.66 Q1620.65 1461.2 1620.65 1468.33 Q1620.65 1475.44 1622.45 1479.01 Q1624.28 1482.55 1627.89 1482.55 Q1631.53 1482.55 1633.33 1479.01 Q1635.16 1475.44 1635.16 1468.33 Q1635.16 1461.2 1633.33 1457.66 Q1631.53 1454.1 1627.89 1454.1 M1627.89 1450.39 Q1633.7 1450.39 1636.76 1455 Q1639.84 1459.58 1639.84 1468.33 Q1639.84 1477.06 1636.76 1481.67 Q1633.7 1486.25 1627.89 1486.25 Q1622.08 1486.25 1619 1481.67 Q1615.95 1477.06 1615.95 1468.33 Q1615.95 1459.58 1619 1455 Q1622.08 1450.39 1627.89 1450.39 Z" fill="#000000" fill-rule="evenodd" fill-opacity="1" /><path clip-path="url(#clip720)" d="M2058.51 1481.64 L2074.83 1481.64 L2074.83 1485.58 L2052.88 1485.58 L2052.88 1481.64 Q2055.54 1478.89 2060.13 1474.26 Q2064.73 1469.61 2065.91 1468.27 Q2068.16 1465.74 2069.04 1464.01 Q2069.94 1462.25 2069.94 1460.56 Q2069.94 1457.8 2068 1456.07 Q2066.08 1454.33 2062.97 1454.33 Q2060.78 1454.33 2058.32 1455.09 Q2055.89 1455.86 2053.11 1457.41 L2053.11 1452.69 Q2055.94 1451.55 2058.39 1450.97 Q2060.84 1450.39 2062.88 1450.39 Q2068.25 1450.39 2071.45 1453.08 Q2074.64 1455.77 2074.64 1460.26 Q2074.64 1462.39 2073.83 1464.31 Q2073.04 1466.2 2070.94 1468.8 Q2070.36 1469.47 2067.26 1472.69 Q2064.16 1475.88 2058.51 1481.64 Z" fill="#000000" fill-rule="evenodd" fill-opacity="1" /><path clip-path="url(#clip720)" d="M2094.64 1454.1 Q2091.03 1454.1 2089.2 1457.66 Q2087.4 1461.2 2087.4 1468.33 Q2087.4 1475.44 2089.2 1479.01 Q2091.03 1482.55 2094.64 1482.55 Q2098.28 1482.55 2100.08 1479.01 Q2101.91 1475.44 2101.91 1468.33 Q2101.91 1461.2 2100.08 1457.66 Q2098.28 1454.1 2094.64 1454.1 M2094.64 1450.39 Q2100.45 1450.39 2103.51 1455 Q2106.59 1459.58 2106.59 1468.33 Q2106.59 1477.06 2103.51 1481.67 Q2100.45 1486.25 2094.64 1486.25 Q2088.83 1486.25 2085.75 1481.67 Q2082.7 1477.06 2082.7 1468.33 Q2082.7 1459.58 2085.75 1455 Q2088.83 1450.39 2094.64 1450.39 Z" fill="#000000" fill-rule="evenodd" fill-opacity="1" /><path clip-path="url(#clip720)" d="M2124.8 1454.1 Q2121.19 1454.1 2119.36 1457.66 Q2117.56 1461.2 2117.56 1468.33 Q2117.56 1475.44 2119.36 1479.01 Q2121.19 1482.55 2124.8 1482.55 Q2128.44 1482.55 2130.24 1479.01 Q2132.07 1475.44 2132.07 1468.33 Q2132.07 1461.2 2130.24 1457.66 Q2128.44 1454.1 2124.8 1454.1 M2124.8 1450.39 Q2130.61 1450.39 2133.67 1455 Q2136.75 1459.58 2136.75 1468.33 Q2136.75 1477.06 2133.67 1481.67 Q2130.61 1486.25 2124.8 1486.25 Q2118.99 1486.25 2115.91 1481.67 Q2112.86 1477.06 2112.86 1468.33 Q2112.86 1459.58 2115.91 1455 Q2118.99 1450.39 2124.8 1450.39 Z" fill="#000000" fill-rule="evenodd" fill-opacity="1" /><path clip-path="url(#clip720)" d="M1212.04 1520.52 L1252.24 1520.52 L1252.24 1525.93 L1235.38 1525.93 L1235.38 1568.04 L1228.91 1568.04 L1228.91 1525.93 L1212.04 1525.93 L1212.04 1520.52 Z" fill="#000000" fill-rule="evenodd" fill-opacity="1" /><path clip-path="url(#clip720)" d="M1260.14 1562.63 L1270.64 1562.63 L1270.64 1526.38 L1259.21 1528.67 L1259.21 1522.82 L1270.58 1520.52 L1277.01 1520.52 L1277.01 1562.63 L1287.51 1562.63 L1287.51 1568.04 L1260.14 1568.04 L1260.14 1562.63 Z" fill="#000000" fill-rule="evenodd" fill-opacity="1" /><path clip-path="url(#clip720)" d="M1310.08 1520.52 L1315.49 1520.52 L1298.94 1574.09 L1293.53 1574.09 L1310.08 1520.52 Z" fill="#000000" fill-rule="evenodd" fill-opacity="1" /><path clip-path="url(#clip720)" d="M1315.3 1520.52 L1355.5 1520.52 L1355.5 1525.93 L1338.63 1525.93 L1338.63 1568.04 L1332.17 1568.04 L1332.17 1525.93 L1315.3 1525.93 L1315.3 1520.52 Z" fill="#000000" fill-rule="evenodd" fill-opacity="1" /><path clip-path="url(#clip720)" d="M1367.81 1562.63 L1390.25 1562.63 L1390.25 1568.04 L1360.08 1568.04 L1360.08 1562.63 Q1363.74 1558.85 1370.04 1552.48 Q1376.38 1546.08 1378 1544.24 Q1381.09 1540.77 1382.3 1538.38 Q1383.54 1535.96 1383.54 1533.64 Q1383.54 1529.85 1380.86 1527.46 Q1378.22 1525.08 1373.96 1525.08 Q1370.93 1525.08 1367.56 1526.13 Q1364.22 1527.18 1360.4 1529.31 L1360.4 1522.82 Q1364.28 1521.26 1367.65 1520.46 Q1371.03 1519.66 1373.83 1519.66 Q1381.21 1519.66 1385.61 1523.36 Q1390 1527.05 1390 1533.22 Q1390 1536.15 1388.88 1538.79 Q1387.8 1541.4 1384.91 1544.97 Q1384.11 1545.89 1379.85 1550.32 Q1375.58 1554.71 1367.81 1562.63 Z" fill="#000000" fill-rule="evenodd" fill-opacity="1" /><polyline clip-path="url(#clip722)" style="stroke:#000000; stroke-linecap:round; stroke-linejoin:round; stroke-width:2; stroke-opacity:0.1; fill:none" points="249.542,1384.24 2352.76,1384.24 "/>
<polyline clip-path="url(#clip722)" style="stroke:#000000; stroke-linecap:round; stroke-linejoin:round; stroke-width:2; stroke-opacity:0.1; fill:none" points="249.542,1059.73 2352.76,1059.73 "/>
<polyline clip-path="url(#clip722)" style="stroke:#000000; stroke-linecap:round; stroke-linejoin:round; stroke-width:2; stroke-opacity:0.1; fill:none" points="249.542,735.212 2352.76,735.212 "/>
<polyline clip-path="url(#clip722)" style="stroke:#000000; stroke-linecap:round; stroke-linejoin:round; stroke-width:2; stroke-opacity:0.1; fill:none" points="249.542,410.699 2352.76,410.699 "/>
<polyline clip-path="url(#clip722)" style="stroke:#000000; stroke-linecap:round; stroke-linejoin:round; stroke-width:2; stroke-opacity:0.1; fill:none" points="249.542,86.1857 2352.76,86.1857 "/>
<polyline clip-path="url(#clip720)" style="stroke:#000000; stroke-linecap:round; stroke-linejoin:round; stroke-width:4; stroke-opacity:1; fill:none" points="249.542,1423.18 249.542,47.2441 "/>
<polyline clip-path="url(#clip720)" style="stroke:#000000; stroke-linecap:round; stroke-linejoin:round; stroke-width:4; stroke-opacity:1; fill:none" points="249.542,1384.24 268.44,1384.24 "/>
<polyline clip-path="url(#clip720)" style="stroke:#000000; stroke-linecap:round; stroke-linejoin:round; stroke-width:4; stroke-opacity:1; fill:none" points="249.542,1059.73 268.44,1059.73 "/>
<polyline clip-path="url(#clip720)" style="stroke:#000000; stroke-linecap:round; stroke-linejoin:round; stroke-width:4; stroke-opacity:1; fill:none" points="249.542,735.212 268.44,735.212 "/>
<polyline clip-path="url(#clip720)" style="stroke:#000000; stroke-linecap:round; stroke-linejoin:round; stroke-width:4; stroke-opacity:1; fill:none" points="249.542,410.699 268.44,410.699 "/>
<polyline clip-path="url(#clip720)" style="stroke:#000000; stroke-linecap:round; stroke-linejoin:round; stroke-width:4; stroke-opacity:1; fill:none" points="249.542,86.1857 268.44,86.1857 "/>
<path clip-path="url(#clip720)" d="M126.205 1370.04 Q122.593 1370.04 120.765 1373.6 Q118.959 1377.14 118.959 1384.27 Q118.959 1391.38 120.765 1394.94 Q122.593 1398.49 126.205 1398.49 Q129.839 1398.49 131.644 1394.94 Q133.473 1391.38 133.473 1384.27 Q133.473 1377.14 131.644 1373.6 Q129.839 1370.04 126.205 1370.04 M126.205 1366.33 Q132.015 1366.33 135.07 1370.94 Q138.149 1375.52 138.149 1384.27 Q138.149 1393 135.07 1397.61 Q132.015 1402.19 126.205 1402.19 Q120.394 1402.19 117.316 1397.61 Q114.26 1393 114.26 1384.27 Q114.26 1375.52 117.316 1370.94 Q120.394 1366.33 126.205 1366.33 Z" fill="#000000" fill-rule="evenodd" fill-opacity="1" /><path clip-path="url(#clip720)" d="M146.366 1395.64 L151.251 1395.64 L151.251 1401.52 L146.366 1401.52 L146.366 1395.64 Z" fill="#000000" fill-rule="evenodd" fill-opacity="1" /><path clip-path="url(#clip720)" d="M171.436 1370.04 Q167.825 1370.04 165.996 1373.6 Q164.19 1377.14 164.19 1384.27 Q164.19 1391.38 165.996 1394.94 Q167.825 1398.49 171.436 1398.49 Q175.07 1398.49 176.876 1394.94 Q178.704 1391.38 178.704 1384.27 Q178.704 1377.14 176.876 1373.6 Q175.07 1370.04 171.436 1370.04 M171.436 1366.33 Q177.246 1366.33 180.301 1370.94 Q183.38 1375.52 183.38 1384.27 Q183.38 1393 180.301 1397.61 Q177.246 1402.19 171.436 1402.19 Q165.626 1402.19 162.547 1397.61 Q159.491 1393 159.491 1384.27 Q159.491 1375.52 162.547 1370.94 Q165.626 1366.33 171.436 1366.33 Z" fill="#000000" fill-rule="evenodd" fill-opacity="1" /><path clip-path="url(#clip720)" d="M201.598 1370.04 Q197.987 1370.04 196.158 1373.6 Q194.352 1377.14 194.352 1384.27 Q194.352 1391.38 196.158 1394.94 Q197.987 1398.49 201.598 1398.49 Q205.232 1398.49 207.037 1394.94 Q208.866 1391.38 208.866 1384.27 Q208.866 1377.14 207.037 1373.6 Q205.232 1370.04 201.598 1370.04 M201.598 1366.33 Q207.408 1366.33 210.463 1370.94 Q213.542 1375.52 213.542 1384.27 Q213.542 1393 210.463 1397.61 Q207.408 1402.19 201.598 1402.19 Q195.787 1402.19 192.709 1397.61 Q189.653 1393 189.653 1384.27 Q189.653 1375.52 192.709 1370.94 Q195.787 1366.33 201.598 1366.33 Z" fill="#000000" fill-rule="evenodd" fill-opacity="1" /><path clip-path="url(#clip720)" d="M127.2 1045.52 Q123.589 1045.52 121.76 1049.09 Q119.955 1052.63 119.955 1059.76 Q119.955 1066.87 121.76 1070.43 Q123.589 1073.97 127.2 1073.97 Q130.834 1073.97 132.64 1070.43 Q134.468 1066.87 134.468 1059.76 Q134.468 1052.63 132.64 1049.09 Q130.834 1045.52 127.2 1045.52 M127.2 1041.82 Q133.01 1041.82 136.066 1046.43 Q139.144 1051.01 139.144 1059.76 Q139.144 1068.49 136.066 1073.09 Q133.01 1077.68 127.2 1077.68 Q121.39 1077.68 118.311 1073.09 Q115.256 1068.49 115.256 1059.76 Q115.256 1051.01 118.311 1046.43 Q121.39 1041.82 127.2 1041.82 Z" fill="#000000" fill-rule="evenodd" fill-opacity="1" /><path clip-path="url(#clip720)" d="M147.362 1071.13 L152.246 1071.13 L152.246 1077.01 L147.362 1077.01 L147.362 1071.13 Z" fill="#000000" fill-rule="evenodd" fill-opacity="1" /><path clip-path="url(#clip720)" d="M166.459 1073.07 L182.778 1073.07 L182.778 1077.01 L160.834 1077.01 L160.834 1073.07 Q163.496 1070.32 168.079 1065.69 Q172.686 1061.03 173.866 1059.69 Q176.112 1057.17 176.991 1055.43 Q177.894 1053.67 177.894 1051.98 Q177.894 1049.23 175.95 1047.49 Q174.028 1045.76 170.927 1045.76 Q168.727 1045.76 166.274 1046.52 Q163.843 1047.28 161.065 1048.83 L161.065 1044.11 Q163.89 1042.98 166.343 1042.4 Q168.797 1041.82 170.834 1041.82 Q176.204 1041.82 179.399 1044.51 Q182.593 1047.19 182.593 1051.68 Q182.593 1053.81 181.783 1055.73 Q180.996 1057.63 178.889 1060.22 Q178.311 1060.89 175.209 1064.11 Q172.107 1067.31 166.459 1073.07 Z" fill="#000000" fill-rule="evenodd" fill-opacity="1" /><path clip-path="url(#clip720)" d="M192.639 1042.45 L210.996 1042.45 L210.996 1046.38 L196.922 1046.38 L196.922 1054.85 Q197.94 1054.51 198.959 1054.34 Q199.977 1054.16 200.996 1054.16 Q206.783 1054.16 210.162 1057.33 Q213.542 1060.5 213.542 1065.92 Q213.542 1071.5 210.07 1074.6 Q206.598 1077.68 200.278 1077.68 Q198.102 1077.68 195.834 1077.31 Q193.588 1076.94 191.181 1076.19 L191.181 1071.5 Q193.264 1072.63 195.487 1073.19 Q197.709 1073.74 200.186 1073.74 Q204.19 1073.74 206.528 1071.63 Q208.866 1069.53 208.866 1065.92 Q208.866 1062.31 206.528 1060.2 Q204.19 1058.09 200.186 1058.09 Q198.311 1058.09 196.436 1058.51 Q194.584 1058.93 192.639 1059.81 L192.639 1042.45 Z" fill="#000000" fill-rule="evenodd" fill-opacity="1" /><path clip-path="url(#clip720)" d="M126.205 721.011 Q122.593 721.011 120.765 724.575 Q118.959 728.117 118.959 735.247 Q118.959 742.353 120.765 745.918 Q122.593 749.46 126.205 749.46 Q129.839 749.46 131.644 745.918 Q133.473 742.353 133.473 735.247 Q133.473 728.117 131.644 724.575 Q129.839 721.011 126.205 721.011 M126.205 717.307 Q132.015 717.307 135.07 721.913 Q138.149 726.497 138.149 735.247 Q138.149 743.973 135.07 748.58 Q132.015 753.163 126.205 753.163 Q120.394 753.163 117.316 748.58 Q114.26 743.973 114.26 735.247 Q114.26 726.497 117.316 721.913 Q120.394 717.307 126.205 717.307 Z" fill="#000000" fill-rule="evenodd" fill-opacity="1" /><path clip-path="url(#clip720)" d="M146.366 746.612 L151.251 746.612 L151.251 752.492 L146.366 752.492 L146.366 746.612 Z" fill="#000000" fill-rule="evenodd" fill-opacity="1" /><path clip-path="url(#clip720)" d="M161.482 717.932 L179.839 717.932 L179.839 721.867 L165.765 721.867 L165.765 730.339 Q166.783 729.992 167.802 729.83 Q168.82 729.645 169.839 729.645 Q175.626 729.645 179.005 732.816 Q182.385 735.987 182.385 741.404 Q182.385 746.983 178.913 750.085 Q175.44 753.163 169.121 753.163 Q166.945 753.163 164.677 752.793 Q162.431 752.423 160.024 751.682 L160.024 746.983 Q162.107 748.117 164.329 748.673 Q166.552 749.228 169.028 749.228 Q173.033 749.228 175.371 747.122 Q177.709 745.015 177.709 741.404 Q177.709 737.793 175.371 735.687 Q173.033 733.58 169.028 733.58 Q167.153 733.58 165.278 733.997 Q163.427 734.413 161.482 735.293 L161.482 717.932 Z" fill="#000000" fill-rule="evenodd" fill-opacity="1" /><path clip-path="url(#clip720)" d="M201.598 721.011 Q197.987 721.011 196.158 724.575 Q194.352 728.117 194.352 735.247 Q194.352 742.353 196.158 745.918 Q197.987 749.46 201.598 749.46 Q205.232 749.46 207.037 745.918 Q208.866 742.353 208.866 735.247 Q208.866 728.117 207.037 724.575 Q205.232 721.011 201.598 721.011 M201.598 717.307 Q207.408 717.307 210.463 721.913 Q213.542 726.497 213.542 735.247 Q213.542 743.973 210.463 748.58 Q207.408 753.163 201.598 753.163 Q195.787 753.163 192.709 748.58 Q189.653 743.973 189.653 735.247 Q189.653 726.497 192.709 721.913 Q195.787 717.307 201.598 717.307 Z" fill="#000000" fill-rule="evenodd" fill-opacity="1" /><path clip-path="url(#clip720)" d="M127.2 396.498 Q123.589 396.498 121.76 400.062 Q119.955 403.604 119.955 410.734 Q119.955 417.84 121.76 421.405 Q123.589 424.946 127.2 424.946 Q130.834 424.946 132.64 421.405 Q134.468 417.84 134.468 410.734 Q134.468 403.604 132.64 400.062 Q130.834 396.498 127.2 396.498 M127.2 392.794 Q133.01 392.794 136.066 397.4 Q139.144 401.984 139.144 410.734 Q139.144 419.46 136.066 424.067 Q133.01 428.65 127.2 428.65 Q121.39 428.65 118.311 424.067 Q115.256 419.46 115.256 410.734 Q115.256 401.984 118.311 397.4 Q121.39 392.794 127.2 392.794 Z" fill="#000000" fill-rule="evenodd" fill-opacity="1" /><path clip-path="url(#clip720)" d="M147.362 422.099 L152.246 422.099 L152.246 427.979 L147.362 427.979 L147.362 422.099 Z" fill="#000000" fill-rule="evenodd" fill-opacity="1" /><path clip-path="url(#clip720)" d="M161.251 393.419 L183.473 393.419 L183.473 395.41 L170.927 427.979 L166.042 427.979 L177.848 397.354 L161.251 397.354 L161.251 393.419 Z" fill="#000000" fill-rule="evenodd" fill-opacity="1" /><path clip-path="url(#clip720)" d="M192.639 393.419 L210.996 393.419 L210.996 397.354 L196.922 397.354 L196.922 405.826 Q197.94 405.479 198.959 405.317 Q199.977 405.132 200.996 405.132 Q206.783 405.132 210.162 408.303 Q213.542 411.474 213.542 416.891 Q213.542 422.47 210.07 425.571 Q206.598 428.65 200.278 428.65 Q198.102 428.65 195.834 428.28 Q193.588 427.909 191.181 427.169 L191.181 422.47 Q193.264 423.604 195.487 424.159 Q197.709 424.715 200.186 424.715 Q204.19 424.715 206.528 422.608 Q208.866 420.502 208.866 416.891 Q208.866 413.28 206.528 411.173 Q204.19 409.067 200.186 409.067 Q198.311 409.067 196.436 409.484 Q194.584 409.9 192.639 410.78 L192.639 393.419 Z" fill="#000000" fill-rule="evenodd" fill-opacity="1" /><path clip-path="url(#clip720)" d="M117.015 99.5305 L124.654 99.5305 L124.654 73.1649 L116.343 74.8316 L116.343 70.5723 L124.607 68.9057 L129.283 68.9057 L129.283 99.5305 L136.922 99.5305 L136.922 103.466 L117.015 103.466 L117.015 99.5305 Z" fill="#000000" fill-rule="evenodd" fill-opacity="1" /><path clip-path="url(#clip720)" d="M146.366 97.5861 L151.251 97.5861 L151.251 103.466 L146.366 103.466 L146.366 97.5861 Z" fill="#000000" fill-rule="evenodd" fill-opacity="1" /><path clip-path="url(#clip720)" d="M171.436 71.9844 Q167.825 71.9844 165.996 75.5492 Q164.19 79.0908 164.19 86.2204 Q164.19 93.3268 165.996 96.8916 Q167.825 100.433 171.436 100.433 Q175.07 100.433 176.876 96.8916 Q178.704 93.3268 178.704 86.2204 Q178.704 79.0908 176.876 75.5492 Q175.07 71.9844 171.436 71.9844 M171.436 68.2807 Q177.246 68.2807 180.301 72.8871 Q183.38 77.4704 183.38 86.2204 Q183.38 94.9472 180.301 99.5537 Q177.246 104.137 171.436 104.137 Q165.626 104.137 162.547 99.5537 Q159.491 94.9472 159.491 86.2204 Q159.491 77.4704 162.547 72.8871 Q165.626 68.2807 171.436 68.2807 Z" fill="#000000" fill-rule="evenodd" fill-opacity="1" /><path clip-path="url(#clip720)" d="M201.598 71.9844 Q197.987 71.9844 196.158 75.5492 Q194.352 79.0908 194.352 86.2204 Q194.352 93.3268 196.158 96.8916 Q197.987 100.433 201.598 100.433 Q205.232 100.433 207.037 96.8916 Q208.866 93.3268 208.866 86.2204 Q208.866 79.0908 207.037 75.5492 Q205.232 71.9844 201.598 71.9844 M201.598 68.2807 Q207.408 68.2807 210.463 72.8871 Q213.542 77.4704 213.542 86.2204 Q213.542 94.9472 210.463 99.5537 Q207.408 104.137 201.598 104.137 Q195.787 104.137 192.709 99.5537 Q189.653 94.9472 189.653 86.2204 Q189.653 77.4704 192.709 72.8871 Q195.787 68.2807 201.598 68.2807 Z" fill="#000000" fill-rule="evenodd" fill-opacity="1" /><path clip-path="url(#clip720)" d="M22.818 855.365 L46.4666 864.086 L46.4666 846.612 L22.818 855.365 M16.4842 858.993 L16.4842 851.704 L64.0042 833.594 L64.0042 840.278 L51.8138 844.607 L51.8138 866.027 L64.0042 870.356 L64.0042 877.135 L16.4842 858.993 Z" fill="#000000" fill-rule="evenodd" fill-opacity="1" /><path clip-path="url(#clip720)" d="M18.2347 822.263 L28.3562 822.263 L28.3562 810.2 L32.9077 810.2 L32.9077 822.263 L52.2594 822.263 Q56.6199 822.263 57.8613 821.085 Q59.1026 819.876 59.1026 816.216 L59.1026 810.2 L64.0042 810.2 L64.0042 816.216 Q64.0042 822.995 61.4897 825.573 Q58.9434 828.151 52.2594 828.151 L32.9077 828.151 L32.9077 832.448 L28.3562 832.448 L28.3562 828.151 L18.2347 828.151 L18.2347 822.263 Z" fill="#000000" fill-rule="evenodd" fill-opacity="1" /><path clip-path="url(#clip720)" d="M18.2347 796.705 L28.3562 796.705 L28.3562 784.642 L32.9077 784.642 L32.9077 796.705 L52.2594 796.705 Q56.6199 796.705 57.8613 795.527 Q59.1026 794.318 59.1026 790.657 L59.1026 784.642 L64.0042 784.642 L64.0042 790.657 Q64.0042 797.437 61.4897 800.015 Q58.9434 802.593 52.2594 802.593 L32.9077 802.593 L32.9077 806.89 L28.3562 806.89 L28.3562 802.593 L18.2347 802.593 L18.2347 796.705 Z" fill="#000000" fill-rule="evenodd" fill-opacity="1" /><path clip-path="url(#clip720)" d="M33.8307 756.282 Q33.2578 757.269 33.0032 758.447 Q32.7167 759.593 32.7167 760.993 Q32.7167 765.958 35.9632 768.632 Q39.1779 771.274 45.2253 771.274 L64.0042 771.274 L64.0042 777.162 L28.3562 777.162 L28.3562 771.274 L33.8944 771.274 Q30.6479 769.428 29.0883 766.468 Q27.4968 763.508 27.4968 759.274 Q27.4968 758.67 27.5923 757.938 Q27.656 757.205 27.8151 756.314 L33.8307 756.282 Z" fill="#000000" fill-rule="evenodd" fill-opacity="1" /><path clip-path="url(#clip720)" d="M28.3562 750.14 L28.3562 744.283 L64.0042 744.283 L64.0042 750.14 L28.3562 750.14 M14.479 750.14 L14.479 744.283 L21.895 744.283 L21.895 750.14 L14.479 750.14 Z" fill="#000000" fill-rule="evenodd" fill-opacity="1" /><path clip-path="url(#clip720)" d="M46.212 706.439 Q39.7508 706.439 36.0905 709.113 Q32.3984 711.754 32.3984 716.401 Q32.3984 721.048 36.0905 723.722 Q39.7508 726.364 46.212 726.364 Q52.6732 726.364 56.3653 723.722 Q60.0256 721.048 60.0256 716.401 Q60.0256 711.754 56.3653 709.113 Q52.6732 706.439 46.212 706.439 M33.7671 726.364 Q30.5842 724.518 29.0564 721.717 Q27.4968 718.884 27.4968 714.969 Q27.4968 708.476 32.6531 704.434 Q37.8093 700.36 46.212 700.36 Q54.6147 700.36 59.771 704.434 Q64.9272 708.476 64.9272 714.969 Q64.9272 718.884 63.3994 721.717 Q61.8398 724.518 58.657 726.364 L64.0042 726.364 L64.0042 732.252 L14.479 732.252 L14.479 726.364 L33.7671 726.364 Z" fill="#000000" fill-rule="evenodd" fill-opacity="1" /><path clip-path="url(#clip720)" d="M49.9359 691.257 L28.3562 691.257 L28.3562 685.4 L49.7131 685.4 Q54.7739 685.4 57.3202 683.427 Q59.8346 681.454 59.8346 677.507 Q59.8346 672.764 56.8109 670.027 Q53.7872 667.258 48.5673 667.258 L28.3562 667.258 L28.3562 661.402 L64.0042 661.402 L64.0042 667.258 L58.5296 667.258 Q61.7762 669.391 63.3676 672.223 Q64.9272 675.024 64.9272 678.748 Q64.9272 684.891 61.1078 688.074 Q57.2883 691.257 49.9359 691.257 M27.4968 676.52 L27.4968 676.52 Z" fill="#000000" fill-rule="evenodd" fill-opacity="1" /><path clip-path="url(#clip720)" d="M18.2347 643.546 L28.3562 643.546 L28.3562 631.483 L32.9077 631.483 L32.9077 643.546 L52.2594 643.546 Q56.6199 643.546 57.8613 642.368 Q59.1026 641.159 59.1026 637.498 L59.1026 631.483 L64.0042 631.483 L64.0042 637.498 Q64.0042 644.278 61.4897 646.856 Q58.9434 649.434 52.2594 649.434 L32.9077 649.434 L32.9077 653.731 L28.3562 653.731 L28.3562 649.434 L18.2347 649.434 L18.2347 643.546 Z" fill="#000000" fill-rule="evenodd" fill-opacity="1" /><path clip-path="url(#clip720)" d="M44.7161 593.289 L47.5806 593.289 L47.5806 620.215 Q53.6281 619.834 56.8109 616.587 Q59.9619 613.309 59.9619 607.484 Q59.9619 604.11 59.1344 600.959 Q58.3069 597.776 56.6518 594.657 L62.1899 594.657 Q63.5267 597.808 64.227 601.118 Q64.9272 604.429 64.9272 607.834 Q64.9272 616.364 59.9619 621.361 Q54.9967 626.327 46.5303 626.327 Q37.7774 626.327 32.6531 621.616 Q27.4968 616.873 27.4968 608.853 Q27.4968 601.659 32.1438 597.49 Q36.7589 593.289 44.7161 593.289 M42.9973 599.145 Q38.1912 599.209 35.3266 601.85 Q32.4621 604.46 32.4621 608.789 Q32.4621 613.691 35.2312 616.651 Q38.0002 619.579 43.0292 620.025 L42.9973 599.145 Z" fill="#000000" fill-rule="evenodd" fill-opacity="1" /><polyline clip-path="url(#clip722)" style="stroke:#009af9; stroke-linecap:round; stroke-linejoin:round; stroke-width:4; stroke-opacity:1; fill:none" points="309.067,86.1857 507.483,410.699 705.9,735.212 904.316,1059.73 1102.73,1384.24 "/>
<circle clip-path="url(#clip722)" cx="309.067" cy="86.1857" r="14.4" fill="#e26f46" fill-rule="evenodd" fill-opacity="1" stroke="#000000" stroke-opacity="1" stroke-width="3.2"/>
<circle clip-path="url(#clip722)" cx="507.483" cy="410.699" r="14.4" fill="#e26f46" fill-rule="evenodd" fill-opacity="1" stroke="#000000" stroke-opacity="1" stroke-width="3.2"/>
<circle clip-path="url(#clip722)" cx="705.9" cy="735.212" r="14.4" fill="#e26f46" fill-rule="evenodd" fill-opacity="1" stroke="#000000" stroke-opacity="1" stroke-width="3.2"/>
<circle clip-path="url(#clip722)" cx="904.316" cy="1059.73" r="14.4" fill="#e26f46" fill-rule="evenodd" fill-opacity="1" stroke="#000000" stroke-opacity="1" stroke-width="3.2"/>
<circle clip-path="url(#clip722)" cx="1102.73" cy="1384.24" r="14.4" fill="#e26f46" fill-rule="evenodd" fill-opacity="1" stroke="#000000" stroke-opacity="1" stroke-width="3.2"/>
<polyline clip-path="url(#clip722)" style="stroke:#3da44d; stroke-linecap:round; stroke-linejoin:round; stroke-width:4; stroke-opacity:1; fill:none" points="2293.23,86.1857 2094.81,410.699 1896.4,735.212 1697.98,1059.73 1499.57,1384.24 "/>
<circle clip-path="url(#clip722)" cx="2293.23" cy="86.1857" r="14.4" fill="#c271d2" fill-rule="evenodd" fill-opacity="1" stroke="#000000" stroke-opacity="1" stroke-width="3.2"/>
<circle clip-path="url(#clip722)" cx="2094.81" cy="410.699" r="14.4" fill="#c271d2" fill-rule="evenodd" fill-opacity="1" stroke="#000000" stroke-opacity="1" stroke-width="3.2"/>
<circle clip-path="url(#clip722)" cx="1896.4" cy="735.212" r="14.4" fill="#c271d2" fill-rule="evenodd" fill-opacity="1" stroke="#000000" stroke-opacity="1" stroke-width="3.2"/>
<circle clip-path="url(#clip722)" cx="1697.98" cy="1059.73" r="14.4" fill="#c271d2" fill-rule="evenodd" fill-opacity="1" stroke="#000000" stroke-opacity="1" stroke-width="3.2"/>
<circle clip-path="url(#clip722)" cx="1499.57" cy="1384.24" r="14.4" fill="#c271d2" fill-rule="evenodd" fill-opacity="1" stroke="#000000" stroke-opacity="1" stroke-width="3.2"/>
<path clip-path="url(#clip720)" d="M2017.44 1377.32 L2282.65 1377.32 L2282.65 1221.8 L2017.44 1221.8  Z" fill="#ffffff" fill-rule="evenodd" fill-opacity="1"/>
<polyline clip-path="url(#clip720)" style="stroke:#000000; stroke-linecap:round; stroke-linejoin:round; stroke-width:4; stroke-opacity:1; fill:none" points="2017.44,1377.32 2282.65,1377.32 2282.65,1221.8 2017.44,1221.8 2017.44,1377.32 "/>
<polyline clip-path="url(#clip720)" style="stroke:#009af9; stroke-linecap:round; stroke-linejoin:round; stroke-width:4; stroke-opacity:1; fill:none" points="2040.81,1273.64 2181.03,1273.64 "/>
<path clip-path="url(#clip720)" d="M2204.4 1256.36 L2233.63 1256.36 L2233.63 1260.29 L2221.36 1260.29 L2221.36 1290.92 L2216.66 1290.92 L2216.66 1260.29 L2204.4 1260.29 L2204.4 1256.36 Z" fill="#000000" fill-rule="evenodd" fill-opacity="1" /><path clip-path="url(#clip720)" d="M2239.37 1286.98 L2247.01 1286.98 L2247.01 1260.61 L2238.7 1262.28 L2238.7 1258.02 L2246.96 1256.36 L2251.64 1256.36 L2251.64 1286.98 L2259.28 1286.98 L2259.28 1290.92 L2239.37 1290.92 L2239.37 1286.98 Z" fill="#000000" fill-rule="evenodd" fill-opacity="1" /><polyline clip-path="url(#clip720)" style="stroke:#3da44d; stroke-linecap:round; stroke-linejoin:round; stroke-width:4; stroke-opacity:1; fill:none" points="2040.81,1325.48 2181.03,1325.48 "/>
<path clip-path="url(#clip720)" d="M2204.4 1308.2 L2233.63 1308.2 L2233.63 1312.13 L2221.36 1312.13 L2221.36 1342.76 L2216.66 1342.76 L2216.66 1312.13 L2204.4 1312.13 L2204.4 1308.2 Z" fill="#000000" fill-rule="evenodd" fill-opacity="1" /><path clip-path="url(#clip720)" d="M2242.59 1338.82 L2258.91 1338.82 L2258.91 1342.76 L2236.97 1342.76 L2236.97 1338.82 Q2239.63 1336.07 2244.21 1331.44 Q2248.82 1326.78 2250 1325.44 Q2252.24 1322.92 2253.12 1321.18 Q2254.03 1319.42 2254.03 1317.73 Q2254.03 1314.98 2252.08 1313.24 Q2250.16 1311.51 2247.06 1311.51 Q2244.86 1311.51 2242.4 1312.27 Q2239.97 1313.03 2237.2 1314.58 L2237.2 1309.86 Q2240.02 1308.73 2242.47 1308.15 Q2244.93 1307.57 2246.96 1307.57 Q2252.34 1307.57 2255.53 1310.26 Q2258.72 1312.94 2258.72 1317.43 Q2258.72 1319.56 2257.91 1321.48 Q2257.13 1323.38 2255.02 1325.97 Q2254.44 1326.64 2251.34 1329.86 Q2248.24 1333.06 2242.59 1338.82 Z" fill="#000000" fill-rule="evenodd" fill-opacity="1" /></svg>
