<?xml version="1.0" encoding="utf-8"?>
<svg xmlns="http://www.w3.org/2000/svg" xmlns:xlink="http://www.w3.org/1999/xlink" width="600" height="400" viewBox="0 0 2400 1600">
<defs>
  <clipPath id="clip810">
    <rect x="0" y="0" width="2400" height="1600"/>
  </clipPath>
</defs>
<path clip-path="url(#clip810)" d="M0 1600 L2400 1600 L2400 0 L0 0  Z" fill="#ffffff" fill-rule="evenodd" fill-opacity="1"/>
<defs>
  <clipPath id="clip811">
    <rect x="480" y="0" width="1681" height="1600"/>
  </clipPath>
</defs>
<path clip-path="url(#clip810)" d="M428.203 1423.18 L2352.76 1423.18 L2352.76 47.2441 L428.203 47.2441  Z" fill="#ffffff" fill-rule="evenodd" fill-opacity="1"/>
<defs>
  <clipPath id="clip812">
    <rect x="428" y="47" width="1926" height="1377"/>
  </clipPath>
</defs>
<polyline clip-path="url(#clip812)" style="stroke:#000000; stroke-linecap:round; stroke-linejoin:round; stroke-width:2; stroke-opacity:0.1; fill:none" points="482.671,1423.18 482.671,47.2441 "/>
<polyline clip-path="url(#clip812)" style="stroke:#000000; stroke-linecap:round; stroke-linejoin:round; stroke-width:2; stroke-opacity:0.1; fill:none" points="936.575,1423.18 936.575,47.2441 "/>
<polyline clip-path="url(#clip812)" style="stroke:#000000; stroke-linecap:round; stroke-linejoin:round; stroke-width:2; stroke-opacity:0.1; fill:none" points="1390.48,1423.18 1390.48,47.2441 "/>
<polyline clip-path="url(#clip812)" style="stroke:#000000; stroke-linecap:round; stroke-linejoin:round; stroke-width:2; stroke-opacity:0.1; fill:none" points="1844.38,1423.18 1844.38,47.2441 "/>
<polyline clip-path="url(#clip812)" style="stroke:#000000; stroke-linecap:round; stroke-linejoin:round; stroke-width:2; stroke-opacity:0.1; fill:none" points="2298.29,1423.18 2298.29,47.2441 "/>
<polyline clip-path="url(#clip810)" style="stroke:#000000; stroke-linecap:round; stroke-linejoin:round; stroke-width:4; stroke-opacity:1; fill:none" points="428.203,1423.18 2352.76,1423.18 "/>
<polyline clip-path="url(#clip810)" style="stroke:#000000; stroke-linecap:round; stroke-linejoin:round; stroke-width:4; stroke-opacity:1; fill:none" points="482.671,1423.18 482.671,1404.28 "/>
<polyline clip-path="url(#clip810)" style="stroke:#000000; stroke-linecap:round; stroke-linejoin:round; stroke-width:4; stroke-opacity:1; fill:none" points="936.575,1423.18 936.575,1404.28 "/>
<polyline clip-path="url(#clip810)" style="stroke:#000000; stroke-linecap:round; stroke-linejoin:round; stroke-width:4; stroke-opacity:1; fill:none" points="1390.48,1423.18 1390.48,1404.28 "/>
<polyline clip-path="url(#clip810)" style="stroke:#000000; stroke-linecap:round; stroke-linejoin:round; stroke-width:4; stroke-opacity:1; fill:none" points="1844.38,1423.18 1844.38,1404.28 "/>
<polyline clip-path="url(#clip810)" style="stroke:#000000; stroke-linecap:round; stroke-linejoin:round; stroke-width:4; stroke-opacity:1; fill:none" points="2298.29,1423.18 2298.29,1404.28 "/>
<path clip-path="url(#clip810)" d="M453.91 1481.64 L470.229 1481.64 L470.229 1485.58 L448.285 1485.58 L448.285 1481.64 Q450.947 1478.89 455.53 1474.26 Q460.137 1469.61 461.317 1468.27 Q463.563 1465.74 464.442 1464.01 Q465.345 1462.25 465.345 1460.56 Q465.345 1457.8 463.401 1456.07 Q461.479 1454.33 458.377 1454.33 Q456.178 1454.33 453.725 1455.09 Q451.294 1455.86 448.516 1457.41 L448.516 1452.69 Q451.34 1451.55 453.794 1450.97 Q456.248 1450.39 458.285 1450.39 Q463.655 1450.39 466.85 1453.08 Q470.044 1455.77 470.044 1460.26 Q470.044 1462.39 469.234 1464.31 Q468.447 1466.2 466.34 1468.8 Q465.762 1469.47 462.66 1472.69 Q459.558 1475.88 453.91 1481.64 Z" fill="#000000" fill-rule="evenodd" fill-opacity="1" /><path clip-path="url(#clip810)" d="M480.044 1479.7 L484.928 1479.7 L484.928 1485.58 L480.044 1485.58 L480.044 1479.7 Z" fill="#000000" fill-rule="evenodd" fill-opacity="1" /><path clip-path="url(#clip810)" d="M505.113 1454.1 Q501.502 1454.1 499.674 1457.66 Q497.868 1461.2 497.868 1468.33 Q497.868 1475.44 499.674 1479.01 Q501.502 1482.55 505.113 1482.55 Q508.748 1482.55 510.553 1479.01 Q512.382 1475.44 512.382 1468.33 Q512.382 1461.2 510.553 1457.66 Q508.748 1454.1 505.113 1454.1 M505.113 1450.39 Q510.923 1450.39 513.979 1455 Q517.058 1459.58 517.058 1468.33 Q517.058 1477.06 513.979 1481.67 Q510.923 1486.25 505.113 1486.25 Q499.303 1486.25 496.224 1481.67 Q493.169 1477.06 493.169 1468.33 Q493.169 1459.58 496.224 1455 Q499.303 1450.39 505.113 1450.39 Z" fill="#000000" fill-rule="evenodd" fill-opacity="1" /><path clip-path="url(#clip810)" d="M908.312 1481.64 L924.631 1481.64 L924.631 1485.58 L902.687 1485.58 L902.687 1481.64 Q905.349 1478.89 909.932 1474.26 Q914.538 1469.61 915.719 1468.27 Q917.964 1465.74 918.844 1464.01 Q919.747 1462.25 919.747 1460.56 Q919.747 1457.8 917.802 1456.07 Q915.881 1454.33 912.779 1454.33 Q910.58 1454.33 908.126 1455.09 Q905.696 1455.86 902.918 1457.41 L902.918 1452.69 Q905.742 1451.55 908.196 1450.97 Q910.65 1450.39 912.687 1450.39 Q918.057 1450.39 921.251 1453.08 Q924.446 1455.77 924.446 1460.26 Q924.446 1462.39 923.636 1464.31 Q922.849 1466.2 920.742 1468.8 Q920.163 1469.47 917.062 1472.69 Q913.96 1475.88 908.312 1481.64 Z" fill="#000000" fill-rule="evenodd" fill-opacity="1" /><path clip-path="url(#clip810)" d="M934.446 1479.7 L939.33 1479.7 L939.33 1485.58 L934.446 1485.58 L934.446 1479.7 Z" fill="#000000" fill-rule="evenodd" fill-opacity="1" /><path clip-path="url(#clip810)" d="M949.561 1451.02 L967.918 1451.02 L967.918 1454.96 L953.844 1454.96 L953.844 1463.43 Q954.862 1463.08 955.881 1462.92 Q956.899 1462.73 957.918 1462.73 Q963.705 1462.73 967.084 1465.9 Q970.464 1469.08 970.464 1474.49 Q970.464 1480.07 966.992 1483.17 Q963.52 1486.25 957.2 1486.25 Q955.024 1486.25 952.756 1485.88 Q950.51 1485.51 948.103 1484.77 L948.103 1480.07 Q950.186 1481.2 952.409 1481.76 Q954.631 1482.32 957.108 1482.32 Q961.112 1482.32 963.45 1480.21 Q965.788 1478.1 965.788 1474.49 Q965.788 1470.88 963.45 1468.77 Q961.112 1466.67 957.108 1466.67 Q955.233 1466.67 953.358 1467.08 Q951.506 1467.5 949.561 1468.38 L949.561 1451.02 Z" fill="#000000" fill-rule="evenodd" fill-opacity="1" /><path clip-path="url(#clip810)" d="M1371.79 1466.95 Q1375.14 1467.66 1377.02 1469.93 Q1378.92 1472.2 1378.92 1475.53 Q1378.92 1480.65 1375.4 1483.45 Q1371.88 1486.25 1365.4 1486.25 Q1363.22 1486.25 1360.91 1485.81 Q1358.62 1485.39 1356.16 1484.54 L1356.16 1480.02 Q1358.11 1481.16 1360.42 1481.74 Q1362.74 1482.32 1365.26 1482.32 Q1369.66 1482.32 1371.95 1480.58 Q1374.26 1478.84 1374.26 1475.53 Q1374.26 1472.48 1372.11 1470.77 Q1369.98 1469.03 1366.16 1469.03 L1362.13 1469.03 L1362.13 1465.19 L1366.35 1465.19 Q1369.8 1465.19 1371.63 1463.82 Q1373.45 1462.43 1373.45 1459.84 Q1373.45 1457.18 1371.56 1455.77 Q1369.68 1454.33 1366.16 1454.33 Q1364.24 1454.33 1362.04 1454.75 Q1359.84 1455.16 1357.2 1456.04 L1357.2 1451.88 Q1359.87 1451.14 1362.18 1450.77 Q1364.52 1450.39 1366.58 1450.39 Q1371.9 1450.39 1375 1452.83 Q1378.11 1455.23 1378.11 1459.35 Q1378.11 1462.22 1376.46 1464.21 Q1374.82 1466.18 1371.79 1466.95 Z" fill="#000000" fill-rule="evenodd" fill-opacity="1" /><path clip-path="url(#clip810)" d="M1387.78 1479.7 L1392.67 1479.7 L1392.67 1485.58 L1387.78 1485.58 L1387.78 1479.7 Z" fill="#000000" fill-rule="evenodd" fill-opacity="1" /><path clip-path="url(#clip810)" d="M1412.85 1454.1 Q1409.24 1454.1 1407.41 1457.66 Q1405.61 1461.2 1405.61 1468.33 Q1405.61 1475.44 1407.41 1479.01 Q1409.24 1482.55 1412.85 1482.55 Q1416.49 1482.55 1418.29 1479.01 Q1420.12 1475.44 1420.12 1468.33 Q1420.12 1461.2 1418.29 1457.66 Q1416.49 1454.1 1412.85 1454.1 M1412.85 1450.39 Q1418.66 1450.39 1421.72 1455 Q1424.8 1459.58 1424.8 1468.33 Q1424.8 1477.06 1421.72 1481.67 Q1418.66 1486.25 1412.85 1486.25 Q1407.04 1486.25 1403.96 1481.67 Q1400.91 1477.06 1400.91 1468.33 Q1400.91 1459.58 1403.96 1455 Q1407.04 1450.39 1412.85 1450.39 Z" fill="#000000" fill-rule="evenodd" fill-opacity="1" /><path clip-path="url(#clip810)" d="M1826.19 1466.95 Q1829.55 1467.66 1831.42 1469.93 Q1833.32 1472.2 1833.32 1475.53 Q1833.32 1480.65 1829.8 1483.45 Q1826.28 1486.25 1819.8 1486.25 Q1817.62 1486.25 1815.31 1485.81 Q1813.02 1485.39 1810.56 1484.54 L1810.56 1480.02 Q1812.51 1481.16 1814.82 1481.74 Q1817.14 1482.32 1819.66 1482.32 Q1824.06 1482.32 1826.35 1480.58 Q1828.67 1478.84 1828.67 1475.53 Q1828.67 1472.48 1826.51 1470.77 Q1824.38 1469.03 1820.56 1469.03 L1816.54 1469.03 L1816.54 1465.19 L1820.75 1465.19 Q1824.2 1465.19 1826.03 1463.82 Q1827.86 1462.43 1827.86 1459.84 Q1827.86 1457.18 1825.96 1455.77 Q1824.08 1454.33 1820.56 1454.33 Q1818.64 1454.33 1816.44 1454.75 Q1814.24 1455.16 1811.61 1456.04 L1811.61 1451.88 Q1814.27 1451.14 1816.58 1450.77 Q1818.92 1450.39 1820.98 1450.39 Q1826.3 1450.39 1829.41 1452.83 Q1832.51 1455.23 1832.51 1459.35 Q1832.51 1462.22 1830.86 1464.21 Q1829.22 1466.18 1826.19 1466.95 Z" fill="#000000" fill-rule="evenodd" fill-opacity="1" /><path clip-path="url(#clip810)" d="M1842.18 1479.7 L1847.07 1479.7 L1847.07 1485.58 L1842.18 1485.58 L1842.18 1479.7 Z" fill="#000000" fill-rule="evenodd" fill-opacity="1" /><path clip-path="url(#clip810)" d="M1857.3 1451.02 L1875.66 1451.02 L1875.66 1454.96 L1861.58 1454.96 L1861.58 1463.43 Q1862.6 1463.08 1863.62 1462.92 Q1864.64 1462.73 1865.66 1462.73 Q1871.44 1462.73 1874.82 1465.9 Q1878.2 1469.08 1878.2 1474.49 Q1878.2 1480.07 1874.73 1483.17 Q1871.26 1486.25 1864.94 1486.25 Q1862.76 1486.25 1860.49 1485.88 Q1858.25 1485.51 1855.84 1484.77 L1855.84 1480.07 Q1857.92 1481.2 1860.15 1481.76 Q1862.37 1482.32 1864.85 1482.32 Q1868.85 1482.32 1871.19 1480.21 Q1873.53 1478.1 1873.53 1474.49 Q1873.53 1470.88 1871.19 1468.77 Q1868.85 1466.67 1864.85 1466.67 Q1862.97 1466.67 1861.1 1467.08 Q1859.24 1467.5 1857.3 1468.38 L1857.3 1451.02 Z" fill="#000000" fill-rule="evenodd" fill-opacity="1" /><path clip-path="url(#clip810)" d="M2278.92 1455.09 L2267.12 1473.54 L2278.92 1473.54 L2278.92 1455.09 M2277.7 1451.02 L2283.58 1451.02 L2283.58 1473.54 L2288.51 1473.54 L2288.51 1477.43 L2283.58 1477.43 L2283.58 1485.58 L2278.92 1485.58 L2278.92 1477.43 L2263.32 1477.43 L2263.32 1472.92 L2277.7 1451.02 Z" fill="#000000" fill-rule="evenodd" fill-opacity="1" /><path clip-path="url(#clip810)" d="M2296.24 1479.7 L2301.12 1479.7 L2301.12 1485.58 L2296.24 1485.58 L2296.24 1479.7 Z" fill="#000000" fill-rule="evenodd" fill-opacity="1" /><path clip-path="url(#clip810)" d="M2321.31 1454.1 Q2317.7 1454.1 2315.87 1457.66 Q2314.06 1461.2 2314.06 1468.33 Q2314.06 1475.44 2315.87 1479.01 Q2317.7 1482.55 2321.31 1482.55 Q2324.94 1482.55 2326.75 1479.01 Q2328.58 1475.44 2328.58 1468.33 Q2328.58 1461.2 2326.75 1457.66 Q2324.94 1454.1 2321.31 1454.1 M2321.31 1450.39 Q2327.12 1450.39 2330.17 1455 Q2333.25 1459.58 2333.25 1468.33 Q2333.25 1477.06 2330.17 1481.67 Q2327.12 1486.25 2321.31 1486.25 Q2315.5 1486.25 2312.42 1481.67 Q2309.36 1477.06 2309.36 1468.33 Q2309.36 1459.58 2312.42 1455 Q2315.5 1450.39 2321.31 1450.39 Z" fill="#000000" fill-rule="evenodd" fill-opacity="1" /><path clip-path="url(#clip810)" d="M1228.03 1518.52 L1233.88 1518.52 L1233.88 1568.04 L1228.03 1568.04 L1228.03 1518.52 Z" fill="#000000" fill-rule="evenodd" fill-opacity="1" /><path clip-path="url(#clip810)" d="M1259.95 1536.5 Q1255.24 1536.5 1252.5 1540.19 Q1249.77 1543.85 1249.77 1550.25 Q1249.77 1556.65 1252.47 1560.34 Q1255.21 1564 1259.95 1564 Q1264.63 1564 1267.37 1560.31 Q1270.1 1556.62 1270.1 1550.25 Q1270.1 1543.92 1267.37 1540.23 Q1264.63 1536.5 1259.95 1536.5 M1259.95 1531.54 Q1267.59 1531.54 1271.95 1536.5 Q1276.31 1541.47 1276.31 1550.25 Q1276.31 1559 1271.95 1564 Q1267.59 1568.97 1259.95 1568.97 Q1252.28 1568.97 1247.92 1564 Q1243.59 1559 1243.59 1550.25 Q1243.59 1541.47 1247.92 1536.5 Q1252.28 1531.54 1259.95 1531.54 Z" fill="#000000" fill-rule="evenodd" fill-opacity="1" /><path clip-path="url(#clip810)" d="M1309.48 1549.81 Q1309.48 1543.44 1306.83 1539.94 Q1304.22 1536.44 1299.48 1536.44 Q1294.77 1536.44 1292.13 1539.94 Q1289.52 1543.44 1289.52 1549.81 Q1289.52 1556.14 1292.13 1559.64 Q1294.77 1563.14 1299.48 1563.14 Q1304.22 1563.14 1306.83 1559.64 Q1309.48 1556.14 1309.48 1549.81 M1315.33 1563.62 Q1315.33 1572.72 1311.29 1577.15 Q1307.25 1581.6 1298.91 1581.6 Q1295.82 1581.6 1293.08 1581.13 Q1290.35 1580.68 1287.77 1579.72 L1287.77 1574.03 Q1290.35 1575.43 1292.86 1576.1 Q1295.38 1576.76 1297.99 1576.76 Q1303.75 1576.76 1306.61 1573.74 Q1309.48 1570.75 1309.48 1564.67 L1309.48 1561.77 Q1307.66 1564.92 1304.83 1566.48 Q1302 1568.04 1298.05 1568.04 Q1291.49 1568.04 1287.48 1563.05 Q1283.47 1558.05 1283.47 1549.81 Q1283.47 1541.53 1287.48 1536.53 Q1291.49 1531.54 1298.05 1531.54 Q1302 1531.54 1304.83 1533.1 Q1307.66 1534.66 1309.48 1537.81 L1309.48 1532.4 L1315.33 1532.4 L1315.33 1563.62 Z" fill="#000000" fill-rule="evenodd" fill-opacity="1" /><path clip-path="url(#clip810)" d="M1329.34 1562.63 L1339.84 1562.63 L1339.84 1526.38 L1328.41 1528.67 L1328.41 1522.82 L1339.78 1520.52 L1346.21 1520.52 L1346.21 1562.63 L1356.71 1562.63 L1356.71 1568.04 L1329.34 1568.04 L1329.34 1562.63 Z" fill="#000000" fill-rule="evenodd" fill-opacity="1" /><path clip-path="url(#clip810)" d="M1383.45 1524.76 Q1378.48 1524.76 1375.97 1529.66 Q1373.48 1534.53 1373.48 1544.33 Q1373.48 1554.1 1375.97 1559 Q1378.48 1563.87 1383.45 1563.87 Q1388.44 1563.87 1390.92 1559 Q1393.44 1554.1 1393.44 1544.33 Q1393.44 1534.53 1390.92 1529.66 Q1388.44 1524.76 1383.45 1524.76 M1383.45 1519.66 Q1391.43 1519.66 1395.64 1526 Q1399.87 1532.3 1399.87 1544.33 Q1399.87 1556.33 1395.64 1562.66 Q1391.43 1568.97 1383.45 1568.97 Q1375.46 1568.97 1371.22 1562.66 Q1367.02 1556.33 1367.02 1544.33 Q1367.02 1532.3 1371.22 1526 Q1375.46 1519.66 1383.45 1519.66 Z" fill="#000000" fill-rule="evenodd" fill-opacity="1" /><path clip-path="url(#clip810)" d="M1459.8 1522.08 L1459.8 1528.35 Q1456.14 1526.6 1452.9 1525.74 Q1449.65 1524.88 1446.62 1524.88 Q1441.37 1524.88 1438.51 1526.92 Q1435.68 1528.96 1435.68 1532.71 Q1435.68 1535.87 1437.55 1537.49 Q1439.46 1539.08 1444.75 1540.07 L1448.63 1540.86 Q1455.82 1542.23 1459.23 1545.7 Q1462.67 1549.14 1462.67 1554.93 Q1462.67 1561.84 1458.02 1565.4 Q1453.4 1568.97 1444.46 1568.97 Q1441.09 1568.97 1437.27 1568.2 Q1433.48 1567.44 1429.41 1565.94 L1429.41 1559.32 Q1433.32 1561.52 1437.08 1562.63 Q1440.83 1563.75 1444.46 1563.75 Q1449.97 1563.75 1452.96 1561.58 Q1455.95 1559.42 1455.95 1555.41 Q1455.95 1551.91 1453.79 1549.93 Q1451.65 1547.96 1446.75 1546.97 L1442.84 1546.21 Q1435.64 1544.78 1432.43 1541.72 Q1429.21 1538.67 1429.21 1533.22 Q1429.21 1526.92 1433.64 1523.29 Q1438.09 1519.66 1445.89 1519.66 Q1449.23 1519.66 1452.7 1520.27 Q1456.17 1520.87 1459.8 1522.08 Z" fill="#000000" fill-rule="evenodd" fill-opacity="1" /><path clip-path="url(#clip810)" d="M1501.18 1522.08 L1501.18 1528.35 Q1497.52 1526.6 1494.27 1525.74 Q1491.03 1524.88 1488 1524.88 Q1482.75 1524.88 1479.89 1526.92 Q1477.05 1528.96 1477.05 1532.71 Q1477.05 1535.87 1478.93 1537.49 Q1480.84 1539.08 1486.12 1540.07 L1490.01 1540.86 Q1497.2 1542.23 1500.61 1545.7 Q1504.04 1549.14 1504.04 1554.93 Q1504.04 1561.84 1499.4 1565.4 Q1494.78 1568.97 1485.84 1568.97 Q1482.46 1568.97 1478.64 1568.2 Q1474.86 1567.44 1470.78 1565.94 L1470.78 1559.32 Q1474.7 1561.52 1478.45 1562.63 Q1482.21 1563.75 1485.84 1563.75 Q1491.34 1563.75 1494.34 1561.58 Q1497.33 1559.42 1497.33 1555.41 Q1497.33 1551.91 1495.16 1549.93 Q1493.03 1547.96 1488.13 1546.97 L1484.21 1546.21 Q1477.02 1544.78 1473.81 1541.72 Q1470.59 1538.67 1470.59 1533.22 Q1470.59 1526.92 1475.02 1523.29 Q1479.47 1519.66 1487.27 1519.66 Q1490.61 1519.66 1494.08 1520.27 Q1497.55 1520.87 1501.18 1522.08 Z" fill="#000000" fill-rule="evenodd" fill-opacity="1" /><path clip-path="url(#clip810)" d="M1531.16 1526.86 L1522.44 1550.51 L1539.91 1550.51 L1531.16 1526.86 M1527.53 1520.52 L1534.82 1520.52 L1552.93 1568.04 L1546.25 1568.04 L1541.92 1555.85 L1520.5 1555.85 L1516.17 1568.04 L1509.39 1568.04 L1527.53 1520.52 Z" fill="#000000" fill-rule="evenodd" fill-opacity="1" /><polyline clip-path="url(#clip812)" style="stroke:#000000; stroke-linecap:round; stroke-linejoin:round; stroke-width:2; stroke-opacity:0.1; fill:none" points="428.203,1118.55 2352.76,1118.55 "/>
<polyline clip-path="url(#clip812)" style="stroke:#000000; stroke-linecap:round; stroke-linejoin:round; stroke-width:2; stroke-opacity:0.1; fill:none" points="428.203,812.982 2352.76,812.982 "/>
<polyline clip-path="url(#clip812)" style="stroke:#000000; stroke-linecap:round; stroke-linejoin:round; stroke-width:2; stroke-opacity:0.1; fill:none" points="428.203,507.411 2352.76,507.411 "/>
<polyline clip-path="url(#clip812)" style="stroke:#000000; stroke-linecap:round; stroke-linejoin:round; stroke-width:2; stroke-opacity:0.1; fill:none" points="428.203,201.839 2352.76,201.839 "/>
<polyline clip-path="url(#clip810)" style="stroke:#000000; stroke-linecap:round; stroke-linejoin:round; stroke-width:4; stroke-opacity:1; fill:none" points="428.203,1423.18 428.203,47.2441 "/>
<polyline clip-path="url(#clip810)" style="stroke:#000000; stroke-linecap:round; stroke-linejoin:round; stroke-width:4; stroke-opacity:1; fill:none" points="428.203,1118.55 447.1,1118.55 "/>
<polyline clip-path="url(#clip810)" style="stroke:#000000; stroke-linecap:round; stroke-linejoin:round; stroke-width:4; stroke-opacity:1; fill:none" points="428.203,812.982 447.1,812.982 "/>
<polyline clip-path="url(#clip810)" style="stroke:#000000; stroke-linecap:round; stroke-linejoin:round; stroke-width:4; stroke-opacity:1; fill:none" points="428.203,507.411 447.1,507.411 "/>
<polyline clip-path="url(#clip810)" style="stroke:#000000; stroke-linecap:round; stroke-linejoin:round; stroke-width:4; stroke-opacity:1; fill:none" points="428.203,201.839 447.1,201.839 "/>
<path clip-path="url(#clip810)" d="M114.931 1138.35 L122.57 1138.35 L122.57 1111.98 L114.26 1113.65 L114.26 1109.39 L122.524 1107.72 L127.2 1107.72 L127.2 1138.35 L134.839 1138.35 L134.839 1142.28 L114.931 1142.28 L114.931 1138.35 Z" fill="#000000" fill-rule="evenodd" fill-opacity="1" /><path clip-path="url(#clip810)" d="M144.283 1136.4 L149.167 1136.4 L149.167 1142.28 L144.283 1142.28 L144.283 1136.4 Z" fill="#000000" fill-rule="evenodd" fill-opacity="1" /><path clip-path="url(#clip810)" d="M169.352 1110.8 Q165.741 1110.8 163.913 1114.37 Q162.107 1117.91 162.107 1125.04 Q162.107 1132.14 163.913 1135.71 Q165.741 1139.25 169.352 1139.25 Q172.987 1139.25 174.792 1135.71 Q176.621 1132.14 176.621 1125.04 Q176.621 1117.91 174.792 1114.37 Q172.987 1110.8 169.352 1110.8 M169.352 1107.1 Q175.163 1107.1 178.218 1111.7 Q181.297 1116.29 181.297 1125.04 Q181.297 1133.76 178.218 1138.37 Q175.163 1142.95 169.352 1142.95 Q163.542 1142.95 160.464 1138.37 Q157.408 1133.76 157.408 1125.04 Q157.408 1116.29 160.464 1111.7 Q163.542 1107.1 169.352 1107.1 Z" fill="#000000" fill-rule="evenodd" fill-opacity="1" /><path clip-path="url(#clip810)" d="M199.514 1110.8 Q195.903 1110.8 194.075 1114.37 Q192.269 1117.91 192.269 1125.04 Q192.269 1132.14 194.075 1135.71 Q195.903 1139.25 199.514 1139.25 Q203.149 1139.25 204.954 1135.71 Q206.783 1132.14 206.783 1125.04 Q206.783 1117.91 204.954 1114.37 Q203.149 1110.8 199.514 1110.8 M199.514 1107.1 Q205.324 1107.1 208.38 1111.7 Q211.459 1116.29 211.459 1125.04 Q211.459 1133.76 208.38 1138.37 Q205.324 1142.95 199.514 1142.95 Q193.704 1142.95 190.625 1138.37 Q187.57 1133.76 187.57 1125.04 Q187.57 1116.29 190.625 1111.7 Q193.704 1107.1 199.514 1107.1 Z" fill="#000000" fill-rule="evenodd" fill-opacity="1" /><path clip-path="url(#clip810)" d="M229.676 1110.8 Q226.065 1110.8 224.236 1114.37 Q222.431 1117.91 222.431 1125.04 Q222.431 1132.14 224.236 1135.71 Q226.065 1139.25 229.676 1139.25 Q233.31 1139.25 235.116 1135.71 Q236.945 1132.14 236.945 1125.04 Q236.945 1117.91 235.116 1114.37 Q233.31 1110.8 229.676 1110.8 M229.676 1107.1 Q235.486 1107.1 238.542 1111.7 Q241.621 1116.29 241.621 1125.04 Q241.621 1133.76 238.542 1138.37 Q235.486 1142.95 229.676 1142.95 Q223.866 1142.95 220.787 1138.37 Q217.732 1133.76 217.732 1125.04 Q217.732 1116.29 220.787 1111.7 Q223.866 1107.1 229.676 1107.1 Z" fill="#000000" fill-rule="evenodd" fill-opacity="1" /><path clip-path="url(#clip810)" d="M278.009 1116.82 L267.431 1127.44 L278.009 1138.02 L275.255 1140.82 L264.63 1130.2 L254.005 1140.82 L251.273 1138.02 L261.829 1127.44 L251.273 1116.82 L254.005 1114.02 L264.63 1124.64 L275.255 1114.02 L278.009 1116.82 Z" fill="#000000" fill-rule="evenodd" fill-opacity="1" /><path clip-path="url(#clip810)" d="M290.37 1138.35 L298.009 1138.35 L298.009 1111.98 L289.699 1113.65 L289.699 1109.39 L297.963 1107.72 L302.639 1107.72 L302.639 1138.35 L310.278 1138.35 L310.278 1142.28 L290.37 1142.28 L290.37 1138.35 Z" fill="#000000" fill-rule="evenodd" fill-opacity="1" /><path clip-path="url(#clip810)" d="M329.722 1110.8 Q326.111 1110.8 324.282 1114.37 Q322.477 1117.91 322.477 1125.04 Q322.477 1132.14 324.282 1135.71 Q326.111 1139.25 329.722 1139.25 Q333.356 1139.25 335.162 1135.71 Q336.99 1132.14 336.99 1125.04 Q336.99 1117.91 335.162 1114.37 Q333.356 1110.8 329.722 1110.8 M329.722 1107.1 Q335.532 1107.1 338.588 1111.7 Q341.666 1116.29 341.666 1125.04 Q341.666 1133.76 338.588 1138.37 Q335.532 1142.95 329.722 1142.95 Q323.912 1142.95 320.833 1138.37 Q317.778 1133.76 317.778 1125.04 Q317.778 1116.29 320.833 1111.7 Q323.912 1107.1 329.722 1107.1 Z" fill="#000000" fill-rule="evenodd" fill-opacity="1" /><path clip-path="url(#clip810)" d="M341.666 1101.2 L365.778 1101.2 L365.778 1104.4 L341.666 1104.4 L341.666 1101.2 Z" fill="#000000" fill-rule="evenodd" fill-opacity="1" /><path clip-path="url(#clip810)" d="M384.416 1090.1 L374.824 1105.09 L384.416 1105.09 L384.416 1090.1 M383.42 1086.79 L388.197 1086.79 L388.197 1105.09 L392.203 1105.09 L392.203 1108.25 L388.197 1108.25 L388.197 1114.87 L384.416 1114.87 L384.416 1108.25 L371.74 1108.25 L371.74 1104.58 L383.42 1086.79 Z" fill="#000000" fill-rule="evenodd" fill-opacity="1" /><path clip-path="url(#clip810)" d="M114.931 832.775 L122.57 832.775 L122.57 806.409 L114.26 808.076 L114.26 803.817 L122.524 802.15 L127.2 802.15 L127.2 832.775 L134.839 832.775 L134.839 836.71 L114.931 836.71 L114.931 832.775 Z" fill="#000000" fill-rule="evenodd" fill-opacity="1" /><path clip-path="url(#clip810)" d="M144.283 830.83 L149.167 830.83 L149.167 836.71 L144.283 836.71 L144.283 830.83 Z" fill="#000000" fill-rule="evenodd" fill-opacity="1" /><path clip-path="url(#clip810)" d="M163.38 832.775 L179.7 832.775 L179.7 836.71 L157.755 836.71 L157.755 832.775 Q160.417 830.02 165.001 825.391 Q169.607 820.738 170.788 819.395 Q173.033 816.872 173.913 815.136 Q174.815 813.377 174.815 811.687 Q174.815 808.932 172.871 807.196 Q170.95 805.46 167.848 805.46 Q165.649 805.46 163.195 806.224 Q160.765 806.988 157.987 808.539 L157.987 803.817 Q160.811 802.682 163.265 802.104 Q165.718 801.525 167.755 801.525 Q173.126 801.525 176.32 804.21 Q179.514 806.895 179.514 811.386 Q179.514 813.516 178.704 815.437 Q177.917 817.335 175.811 819.928 Q175.232 820.599 172.13 823.817 Q169.028 827.011 163.38 832.775 Z" fill="#000000" fill-rule="evenodd" fill-opacity="1" /><path clip-path="url(#clip810)" d="M189.561 802.15 L207.917 802.15 L207.917 806.085 L193.843 806.085 L193.843 814.557 Q194.862 814.21 195.88 814.048 Q196.899 813.863 197.917 813.863 Q203.704 813.863 207.084 817.034 Q210.463 820.206 210.463 825.622 Q210.463 831.201 206.991 834.303 Q203.519 837.381 197.2 837.381 Q195.024 837.381 192.755 837.011 Q190.51 836.641 188.102 835.9 L188.102 831.201 Q190.186 832.335 192.408 832.891 Q194.63 833.446 197.107 833.446 Q201.112 833.446 203.449 831.34 Q205.787 829.233 205.787 825.622 Q205.787 822.011 203.449 819.905 Q201.112 817.798 197.107 817.798 Q195.232 817.798 193.357 818.215 Q191.505 818.631 189.561 819.511 L189.561 802.15 Z" fill="#000000" fill-rule="evenodd" fill-opacity="1" /><path clip-path="url(#clip810)" d="M229.676 805.229 Q226.065 805.229 224.236 808.794 Q222.431 812.335 222.431 819.465 Q222.431 826.571 224.236 830.136 Q226.065 833.678 229.676 833.678 Q233.31 833.678 235.116 830.136 Q236.945 826.571 236.945 819.465 Q236.945 812.335 235.116 808.794 Q233.31 805.229 229.676 805.229 M229.676 801.525 Q235.486 801.525 238.542 806.132 Q241.621 810.715 241.621 819.465 Q241.621 828.192 238.542 832.798 Q235.486 837.381 229.676 837.381 Q223.866 837.381 220.787 832.798 Q217.732 828.192 217.732 819.465 Q217.732 810.715 220.787 806.132 Q223.866 801.525 229.676 801.525 Z" fill="#000000" fill-rule="evenodd" fill-opacity="1" /><path clip-path="url(#clip810)" d="M278.009 811.247 L267.431 821.872 L278.009 832.451 L275.255 835.252 L264.63 824.627 L254.005 835.252 L251.273 832.451 L261.829 821.872 L251.273 811.247 L254.005 808.446 L264.63 819.071 L275.255 808.446 L278.009 811.247 Z" fill="#000000" fill-rule="evenodd" fill-opacity="1" /><path clip-path="url(#clip810)" d="M290.37 832.775 L298.009 832.775 L298.009 806.409 L289.699 808.076 L289.699 803.817 L297.963 802.15 L302.639 802.15 L302.639 832.775 L310.278 832.775 L310.278 836.71 L290.37 836.71 L290.37 832.775 Z" fill="#000000" fill-rule="evenodd" fill-opacity="1" /><path clip-path="url(#clip810)" d="M329.722 805.229 Q326.111 805.229 324.282 808.794 Q322.477 812.335 322.477 819.465 Q322.477 826.571 324.282 830.136 Q326.111 833.678 329.722 833.678 Q333.356 833.678 335.162 830.136 Q336.99 826.571 336.99 819.465 Q336.99 812.335 335.162 808.794 Q333.356 805.229 329.722 805.229 M329.722 801.525 Q335.532 801.525 338.588 806.132 Q341.666 810.715 341.666 819.465 Q341.666 828.192 338.588 832.798 Q335.532 837.381 329.722 837.381 Q323.912 837.381 320.833 832.798 Q317.778 828.192 317.778 819.465 Q317.778 810.715 320.833 806.132 Q323.912 801.525 329.722 801.525 Z" fill="#000000" fill-rule="evenodd" fill-opacity="1" /><path clip-path="url(#clip810)" d="M341.666 795.626 L365.778 795.626 L365.778 798.824 L341.666 798.824 L341.666 795.626 Z" fill="#000000" fill-rule="evenodd" fill-opacity="1" /><path clip-path="url(#clip810)" d="M384.416 784.53 L374.824 799.52 L384.416 799.52 L384.416 784.53 M383.42 781.22 L388.197 781.22 L388.197 799.52 L392.203 799.52 L392.203 802.679 L388.197 802.679 L388.197 809.3 L384.416 809.3 L384.416 802.679 L371.74 802.679 L371.74 799.012 L383.42 781.22 Z" fill="#000000" fill-rule="evenodd" fill-opacity="1" /><path clip-path="url(#clip810)" d="M114.931 527.203 L122.57 527.203 L122.57 500.837 L114.26 502.504 L114.26 498.245 L122.524 496.578 L127.2 496.578 L127.2 527.203 L134.839 527.203 L134.839 531.138 L114.931 531.138 L114.931 527.203 Z" fill="#000000" fill-rule="evenodd" fill-opacity="1" /><path clip-path="url(#clip810)" d="M144.283 525.259 L149.167 525.259 L149.167 531.138 L144.283 531.138 L144.283 525.259 Z" fill="#000000" fill-rule="evenodd" fill-opacity="1" /><path clip-path="url(#clip810)" d="M159.399 496.578 L177.755 496.578 L177.755 500.513 L163.681 500.513 L163.681 508.985 Q164.7 508.638 165.718 508.476 Q166.737 508.291 167.755 508.291 Q173.542 508.291 176.922 511.462 Q180.301 514.634 180.301 520.05 Q180.301 525.629 176.829 528.731 Q173.357 531.809 167.038 531.809 Q164.862 531.809 162.593 531.439 Q160.348 531.069 157.94 530.328 L157.94 525.629 Q160.024 526.763 162.246 527.319 Q164.468 527.874 166.945 527.874 Q170.95 527.874 173.288 525.768 Q175.626 523.661 175.626 520.05 Q175.626 516.439 173.288 514.333 Q170.95 512.226 166.945 512.226 Q165.07 512.226 163.195 512.643 Q161.343 513.06 159.399 513.939 L159.399 496.578 Z" fill="#000000" fill-rule="evenodd" fill-opacity="1" /><path clip-path="url(#clip810)" d="M199.514 499.657 Q195.903 499.657 194.075 503.222 Q192.269 506.763 192.269 513.893 Q192.269 520.999 194.075 524.564 Q195.903 528.106 199.514 528.106 Q203.149 528.106 204.954 524.564 Q206.783 520.999 206.783 513.893 Q206.783 506.763 204.954 503.222 Q203.149 499.657 199.514 499.657 M199.514 495.953 Q205.324 495.953 208.38 500.56 Q211.459 505.143 211.459 513.893 Q211.459 522.62 208.38 527.226 Q205.324 531.809 199.514 531.809 Q193.704 531.809 190.625 527.226 Q187.57 522.62 187.57 513.893 Q187.57 505.143 190.625 500.56 Q193.704 495.953 199.514 495.953 Z" fill="#000000" fill-rule="evenodd" fill-opacity="1" /><path clip-path="url(#clip810)" d="M229.676 499.657 Q226.065 499.657 224.236 503.222 Q222.431 506.763 222.431 513.893 Q222.431 520.999 224.236 524.564 Q226.065 528.106 229.676 528.106 Q233.31 528.106 235.116 524.564 Q236.945 520.999 236.945 513.893 Q236.945 506.763 235.116 503.222 Q233.31 499.657 229.676 499.657 M229.676 495.953 Q235.486 495.953 238.542 500.56 Q241.621 505.143 241.621 513.893 Q241.621 522.62 238.542 527.226 Q235.486 531.809 229.676 531.809 Q223.866 531.809 220.787 527.226 Q217.732 522.62 217.732 513.893 Q217.732 505.143 220.787 500.56 Q223.866 495.953 229.676 495.953 Z" fill="#000000" fill-rule="evenodd" fill-opacity="1" /><path clip-path="url(#clip810)" d="M278.009 505.675 L267.431 516.3 L278.009 526.879 L275.255 529.68 L264.63 519.055 L254.005 529.68 L251.273 526.879 L261.829 516.3 L251.273 505.675 L254.005 502.874 L264.63 513.499 L275.255 502.874 L278.009 505.675 Z" fill="#000000" fill-rule="evenodd" fill-opacity="1" /><path clip-path="url(#clip810)" d="M290.37 527.203 L298.009 527.203 L298.009 500.837 L289.699 502.504 L289.699 498.245 L297.963 496.578 L302.639 496.578 L302.639 527.203 L310.278 527.203 L310.278 531.138 L290.37 531.138 L290.37 527.203 Z" fill="#000000" fill-rule="evenodd" fill-opacity="1" /><path clip-path="url(#clip810)" d="M329.722 499.657 Q326.111 499.657 324.282 503.222 Q322.477 506.763 322.477 513.893 Q322.477 520.999 324.282 524.564 Q326.111 528.106 329.722 528.106 Q333.356 528.106 335.162 524.564 Q336.99 520.999 336.99 513.893 Q336.99 506.763 335.162 503.222 Q333.356 499.657 329.722 499.657 M329.722 495.953 Q335.532 495.953 338.588 500.56 Q341.666 505.143 341.666 513.893 Q341.666 522.62 338.588 527.226 Q335.532 531.809 329.722 531.809 Q323.912 531.809 320.833 527.226 Q317.778 522.62 317.778 513.893 Q317.778 505.143 320.833 500.56 Q323.912 495.953 329.722 495.953 Z" fill="#000000" fill-rule="evenodd" fill-opacity="1" /><path clip-path="url(#clip810)" d="M341.666 490.054 L365.778 490.054 L365.778 493.252 L341.666 493.252 L341.666 490.054 Z" fill="#000000" fill-rule="evenodd" fill-opacity="1" /><path clip-path="url(#clip810)" d="M384.416 478.958 L374.824 493.948 L384.416 493.948 L384.416 478.958 M383.42 475.648 L388.197 475.648 L388.197 493.948 L392.203 493.948 L392.203 497.107 L388.197 497.107 L388.197 503.728 L384.416 503.728 L384.416 497.107 L371.74 497.107 L371.74 493.44 L383.42 475.648 Z" fill="#000000" fill-rule="evenodd" fill-opacity="1" /><path clip-path="url(#clip810)" d="M114.931 221.631 L122.57 221.631 L122.57 195.265 L114.26 196.932 L114.26 192.673 L122.524 191.006 L127.2 191.006 L127.2 221.631 L134.839 221.631 L134.839 225.566 L114.931 225.566 L114.931 221.631 Z" fill="#000000" fill-rule="evenodd" fill-opacity="1" /><path clip-path="url(#clip810)" d="M144.283 219.687 L149.167 219.687 L149.167 225.566 L144.283 225.566 L144.283 219.687 Z" fill="#000000" fill-rule="evenodd" fill-opacity="1" /><path clip-path="url(#clip810)" d="M158.172 191.006 L180.394 191.006 L180.394 192.997 L167.848 225.566 L162.964 225.566 L174.769 194.941 L158.172 194.941 L158.172 191.006 Z" fill="#000000" fill-rule="evenodd" fill-opacity="1" /><path clip-path="url(#clip810)" d="M189.561 191.006 L207.917 191.006 L207.917 194.941 L193.843 194.941 L193.843 203.413 Q194.862 203.066 195.88 202.904 Q196.899 202.719 197.917 202.719 Q203.704 202.719 207.084 205.89 Q210.463 209.062 210.463 214.478 Q210.463 220.057 206.991 223.159 Q203.519 226.237 197.2 226.237 Q195.024 226.237 192.755 225.867 Q190.51 225.497 188.102 224.756 L188.102 220.057 Q190.186 221.191 192.408 221.747 Q194.63 222.302 197.107 222.302 Q201.112 222.302 203.449 220.196 Q205.787 218.089 205.787 214.478 Q205.787 210.867 203.449 208.761 Q201.112 206.654 197.107 206.654 Q195.232 206.654 193.357 207.071 Q191.505 207.488 189.561 208.367 L189.561 191.006 Z" fill="#000000" fill-rule="evenodd" fill-opacity="1" /><path clip-path="url(#clip810)" d="M229.676 194.085 Q226.065 194.085 224.236 197.65 Q222.431 201.191 222.431 208.321 Q222.431 215.427 224.236 218.992 Q226.065 222.534 229.676 222.534 Q233.31 222.534 235.116 218.992 Q236.945 215.427 236.945 208.321 Q236.945 201.191 235.116 197.65 Q233.31 194.085 229.676 194.085 M229.676 190.381 Q235.486 190.381 238.542 194.988 Q241.621 199.571 241.621 208.321 Q241.621 217.048 238.542 221.654 Q235.486 226.237 229.676 226.237 Q223.866 226.237 220.787 221.654 Q217.732 217.048 217.732 208.321 Q217.732 199.571 220.787 194.988 Q223.866 190.381 229.676 190.381 Z" fill="#000000" fill-rule="evenodd" fill-opacity="1" /><path clip-path="url(#clip810)" d="M278.009 200.103 L267.431 210.728 L278.009 221.307 L275.255 224.108 L264.63 213.483 L254.005 224.108 L251.273 221.307 L261.829 210.728 L251.273 200.103 L254.005 197.302 L264.63 207.927 L275.255 197.302 L278.009 200.103 Z" fill="#000000" fill-rule="evenodd" fill-opacity="1" /><path clip-path="url(#clip810)" d="M290.37 221.631 L298.009 221.631 L298.009 195.265 L289.699 196.932 L289.699 192.673 L297.963 191.006 L302.639 191.006 L302.639 221.631 L310.278 221.631 L310.278 225.566 L290.37 225.566 L290.37 221.631 Z" fill="#000000" fill-rule="evenodd" fill-opacity="1" /><path clip-path="url(#clip810)" d="M329.722 194.085 Q326.111 194.085 324.282 197.65 Q322.477 201.191 322.477 208.321 Q322.477 215.427 324.282 218.992 Q326.111 222.534 329.722 222.534 Q333.356 222.534 335.162 218.992 Q336.99 215.427 336.99 208.321 Q336.99 201.191 335.162 197.65 Q333.356 194.085 329.722 194.085 M329.722 190.381 Q335.532 190.381 338.588 194.988 Q341.666 199.571 341.666 208.321 Q341.666 217.048 338.588 221.654 Q335.532 226.237 329.722 226.237 Q323.912 226.237 320.833 221.654 Q317.778 217.048 317.778 208.321 Q317.778 199.571 320.833 194.988 Q323.912 190.381 329.722 190.381 Z" fill="#000000" fill-rule="evenodd" fill-opacity="1" /><path clip-path="url(#clip810)" d="M341.666 184.483 L365.778 184.483 L365.778 187.68 L341.666 187.68 L341.666 184.483 Z" fill="#000000" fill-rule="evenodd" fill-opacity="1" /><path clip-path="url(#clip810)" d="M384.416 173.386 L374.824 188.376 L384.416 188.376 L384.416 173.386 M383.42 170.076 L388.197 170.076 L388.197 188.376 L392.203 188.376 L392.203 191.535 L388.197 191.535 L388.197 198.156 L384.416 198.156 L384.416 191.535 L371.74 191.535 L371.74 187.868 L383.42 170.076 Z" fill="#000000" fill-rule="evenodd" fill-opacity="1" /><path clip-path="url(#clip810)" d="M16.4842 839.021 L16.4842 829.44 L48.8219 817.314 L16.4842 805.123 L16.4842 795.543 L64.0042 795.543 L64.0042 801.813 L22.277 801.813 L54.8694 814.067 L54.8694 820.528 L22.277 832.782 L64.0042 832.782 L64.0042 839.021 L16.4842 839.021 Z" fill="#000000" fill-rule="evenodd" fill-opacity="1" /><path clip-path="url(#clip810)" d="M18.0438 754.293 L24.314 754.293 Q22.5634 757.953 21.704 761.2 Q20.8447 764.446 20.8447 767.47 Q20.8447 772.722 22.8817 775.586 Q24.9187 778.419 28.6745 778.419 Q31.8255 778.419 33.4488 776.541 Q35.0402 774.632 36.0269 769.348 L36.8226 765.465 Q38.1912 758.272 41.6605 754.866 Q45.098 751.429 50.8908 751.429 Q57.7976 751.429 61.3624 756.076 Q64.9272 760.691 64.9272 769.635 Q64.9272 773.008 64.1633 776.828 Q63.3994 780.615 61.9035 784.689 L55.2831 784.689 Q57.4793 780.775 58.5933 777.019 Q59.7073 773.263 59.7073 769.635 Q59.7073 764.128 57.543 761.136 Q55.3786 758.144 51.3682 758.144 Q47.8671 758.144 45.8937 760.309 Q43.9204 762.441 42.9337 767.343 L42.1698 771.258 Q40.7375 778.451 37.682 781.666 Q34.6264 784.88 29.1837 784.88 Q22.8817 784.88 19.2532 780.456 Q15.6248 776 15.6248 768.202 Q15.6248 764.86 16.2295 761.391 Q16.8343 757.922 18.0438 754.293 Z" fill="#000000" fill-rule="evenodd" fill-opacity="1" /><path clip-path="url(#clip810)" d="M16.4842 741.403 L16.4842 711.356 L21.895 711.356 L21.895 734.973 L35.9632 734.973 L35.9632 712.343 L41.3741 712.343 L41.3741 734.973 L58.5933 734.973 L58.5933 710.784 L64.0042 710.784 L64.0042 741.403 L16.4842 741.403 Z" fill="#000000" fill-rule="evenodd" fill-opacity="1" /><path clip-path="url(#clip810)" d="M74.8259 673.385 L79.3773 673.385 L79.3773 707.251 L74.8259 707.251 L74.8259 673.385 Z" fill="#000000" fill-rule="evenodd" fill-opacity="1" /><path clip-path="url(#clip810)" d="M16.4842 669.916 L16.4842 663.009 L34.149 651.201 L16.4842 639.329 L16.4842 632.422 L39.3052 647.699 L64.0042 631.403 L64.0042 638.31 L43.793 651.678 L64.0042 665.141 L64.0042 672.08 L38.6368 655.115 L16.4842 669.916 Z" fill="#000000" fill-rule="evenodd" fill-opacity="1" /><polyline clip-path="url(#clip812)" style="stroke:#009af9; stroke-linecap:round; stroke-linejoin:round; stroke-width:4; stroke-opacity:1; fill:none" points="482.671,86.1857 915.806,110.326 1390.48,487.218 1823.61,1132.79 2298.29,1173.97 "/>
<circle clip-path="url(#clip812)" cx="482.671" cy="86.1857" r="14.4" fill="#0000ff" fill-rule="evenodd" fill-opacity="1" stroke="#000000" stroke-opacity="1" stroke-width="3.2"/>
<circle clip-path="url(#clip812)" cx="915.806" cy="110.326" r="14.4" fill="#0000ff" fill-rule="evenodd" fill-opacity="1" stroke="#000000" stroke-opacity="1" stroke-width="3.2"/>
<circle clip-path="url(#clip812)" cx="1390.48" cy="487.218" r="14.4" fill="#0000ff" fill-rule="evenodd" fill-opacity="1" stroke="#000000" stroke-opacity="1" stroke-width="3.2"/>
<circle clip-path="url(#clip812)" cx="1823.61" cy="1132.79" r="14.4" fill="#0000ff" fill-rule="evenodd" fill-opacity="1" stroke="#000000" stroke-opacity="1" stroke-width="3.2"/>
<circle clip-path="url(#clip812)" cx="2298.29" cy="1173.97" r="14.4" fill="#0000ff" fill-rule="evenodd" fill-opacity="1" stroke="#000000" stroke-opacity="1" stroke-width="3.2"/>
<polyline clip-path="url(#clip812)" style="stroke:#3da44d; stroke-linecap:round; stroke-linejoin:round; stroke-width:4; stroke-opacity:1; fill:none" points="482.671,831.378 915.806,1215.82 1390.48,1325.52 1823.61,1384.24 2298.29,1338.77 "/>
<circle clip-path="url(#clip812)" cx="482.671" cy="831.378" r="14.4" fill="#008000" fill-rule="evenodd" fill-opacity="1" stroke="#000000" stroke-opacity="1" stroke-width="3.2"/>
<circle clip-path="url(#clip812)" cx="915.806" cy="1215.82" r="14.4" fill="#008000" fill-rule="evenodd" fill-opacity="1" stroke="#000000" stroke-opacity="1" stroke-width="3.2"/>
<circle clip-path="url(#clip812)" cx="1390.48" cy="1325.52" r="14.4" fill="#008000" fill-rule="evenodd" fill-opacity="1" stroke="#000000" stroke-opacity="1" stroke-width="3.2"/>
<circle clip-path="url(#clip812)" cx="1823.61" cy="1384.24" r="14.4" fill="#008000" fill-rule="evenodd" fill-opacity="1" stroke="#000000" stroke-opacity="1" stroke-width="3.2"/>
<circle clip-path="url(#clip812)" cx="2298.29" cy="1338.77" r="14.4" fill="#008000" fill-rule="evenodd" fill-opacity="1" stroke="#000000" stroke-opacity="1" stroke-width="3.2"/>
<path clip-path="url(#clip810)" d="M2006.52 248.629 L2288.6 248.629 L2288.6 93.1086 L2006.52 93.1086  Z" fill="#ffffff" fill-rule="evenodd" fill-opacity="1"/>
<polyline clip-path="url(#clip810)" style="stroke:#000000; stroke-linecap:round; stroke-linejoin:round; stroke-width:4; stroke-opacity:1; fill:none" points="2006.52,248.629 2288.6,248.629 2288.6,93.1086 2006.52,93.1086 2006.52,248.629 "/>
<polyline clip-path="url(#clip810)" style="stroke:#009af9; stroke-linecap:round; stroke-linejoin:round; stroke-width:4; stroke-opacity:1; fill:none" points="2027.9,144.949 2156.21,144.949 "/>
<path clip-path="url(#clip810)" d="M2177.59 127.669 L2184.56 127.669 L2193.38 151.187 L2202.24 127.669 L2209.21 127.669 L2209.21 162.229 L2204.65 162.229 L2204.65 131.882 L2195.74 155.585 L2191.04 155.585 L2182.13 131.882 L2182.13 162.229 L2177.59 162.229 L2177.59 127.669 Z" fill="#000000" fill-rule="evenodd" fill-opacity="1" /><path clip-path="url(#clip810)" d="M2218.49 127.669 L2223.17 127.669 L2223.17 158.293 L2240 158.293 L2240 162.229 L2218.49 162.229 L2218.49 127.669 Z" fill="#000000" fill-rule="evenodd" fill-opacity="1" /><path clip-path="url(#clip810)" d="M2249.58 131.511 L2249.58 144.497 L2255.46 144.497 Q2258.72 144.497 2260.51 142.807 Q2262.29 141.118 2262.29 137.993 Q2262.29 134.891 2260.51 133.201 Q2258.72 131.511 2255.46 131.511 L2249.58 131.511 M2244.91 127.669 L2255.46 127.669 Q2261.27 127.669 2264.23 130.307 Q2267.22 132.923 2267.22 137.993 Q2267.22 143.108 2264.23 145.724 Q2261.27 148.34 2255.46 148.34 L2249.58 148.34 L2249.58 162.229 L2244.91 162.229 L2244.91 127.669 Z" fill="#000000" fill-rule="evenodd" fill-opacity="1" /><polyline clip-path="url(#clip810)" style="stroke:#3da44d; stroke-linecap:round; stroke-linejoin:round; stroke-width:4; stroke-opacity:1; fill:none" points="2027.9,196.789 2156.21,196.789 "/>
<path clip-path="url(#clip810)" d="M2190.79 214.069 L2177.59 179.509 L2182.48 179.509 L2193.42 208.606 L2204.4 179.509 L2209.26 179.509 L2196.09 214.069 L2190.79 214.069 Z" fill="#000000" fill-rule="evenodd" fill-opacity="1" /><path clip-path="url(#clip810)" d="M2222.82 184.115 L2216.48 201.314 L2229.19 201.314 L2222.82 184.115 M2220.18 179.509 L2225.48 179.509 L2238.66 214.069 L2233.79 214.069 L2230.65 205.203 L2215.07 205.203 L2211.92 214.069 L2206.99 214.069 L2220.18 179.509 Z" fill="#000000" fill-rule="evenodd" fill-opacity="1" /><path clip-path="url(#clip810)" d="M2243.7 179.509 L2265.55 179.509 L2265.55 183.444 L2248.38 183.444 L2248.38 193.675 L2264.84 193.675 L2264.84 197.61 L2248.38 197.61 L2248.38 210.133 L2265.97 210.133 L2265.97 214.069 L2243.7 214.069 L2243.7 179.509 Z" fill="#000000" fill-rule="evenodd" fill-opacity="1" /></svg>
