<?xml version="1.0" encoding="utf-8"?>
<svg xmlns="http://www.w3.org/2000/svg" xmlns:xlink="http://www.w3.org/1999/xlink" width="600" height="400" viewBox="0 0 2400 1600">
<defs>
  <clipPath id="clip750">
    <rect x="0" y="0" width="2400" height="1600"/>
  </clipPath>
</defs>
<path clip-path="url(#clip750)" d="M0 1600 L2400 1600 L2400 0 L0 0  Z" fill="#ffffff" fill-rule="evenodd" fill-opacity="1"/>
<defs>
  <clipPath id="clip751">
    <rect x="480" y="0" width="1681" height="1600"/>
  </clipPath>
</defs>
<path clip-path="url(#clip750)" d="M370.19 1423.18 L2352.76 1423.18 L2352.76 47.2441 L370.19 47.2441  Z" fill="#ffffff" fill-rule="evenodd" fill-opacity="1"/>
<defs>
  <clipPath id="clip752">
    <rect x="370" y="47" width="1984" height="1377"/>
  </clipPath>
</defs>
<polyline clip-path="url(#clip752)" style="stroke:#000000; stroke-linecap:round; stroke-linejoin:round; stroke-width:2; stroke-opacity:0.1; fill:none" points="426.3,1423.18 426.3,47.2441 "/>
<polyline clip-path="url(#clip752)" style="stroke:#000000; stroke-linecap:round; stroke-linejoin:round; stroke-width:2; stroke-opacity:0.1; fill:none" points="893.886,1423.18 893.886,47.2441 "/>
<polyline clip-path="url(#clip752)" style="stroke:#000000; stroke-linecap:round; stroke-linejoin:round; stroke-width:2; stroke-opacity:0.1; fill:none" points="1361.47,1423.18 1361.47,47.2441 "/>
<polyline clip-path="url(#clip752)" style="stroke:#000000; stroke-linecap:round; stroke-linejoin:round; stroke-width:2; stroke-opacity:0.1; fill:none" points="1829.06,1423.18 1829.06,47.2441 "/>
<polyline clip-path="url(#clip752)" style="stroke:#000000; stroke-linecap:round; stroke-linejoin:round; stroke-width:2; stroke-opacity:0.1; fill:none" points="2296.65,1423.18 2296.65,47.2441 "/>
<polyline clip-path="url(#clip750)" style="stroke:#000000; stroke-linecap:round; stroke-linejoin:round; stroke-width:4; stroke-opacity:1; fill:none" points="370.19,1423.18 2352.76,1423.18 "/>
<polyline clip-path="url(#clip750)" style="stroke:#000000; stroke-linecap:round; stroke-linejoin:round; stroke-width:4; stroke-opacity:1; fill:none" points="426.3,1423.18 426.3,1404.28 "/>
<polyline clip-path="url(#clip750)" style="stroke:#000000; stroke-linecap:round; stroke-linejoin:round; stroke-width:4; stroke-opacity:1; fill:none" points="893.886,1423.18 893.886,1404.28 "/>
<polyline clip-path="url(#clip750)" style="stroke:#000000; stroke-linecap:round; stroke-linejoin:round; stroke-width:4; stroke-opacity:1; fill:none" points="1361.47,1423.18 1361.47,1404.28 "/>
<polyline clip-path="url(#clip750)" style="stroke:#000000; stroke-linecap:round; stroke-linejoin:round; stroke-width:4; stroke-opacity:1; fill:none" points="1829.06,1423.18 1829.06,1404.28 "/>
<polyline clip-path="url(#clip750)" style="stroke:#000000; stroke-linecap:round; stroke-linejoin:round; stroke-width:4; stroke-opacity:1; fill:none" points="2296.65,1423.18 2296.65,1404.28 "/>
<path clip-path="url(#clip750)" d="M397.538 1481.64 L413.858 1481.64 L413.858 1485.58 L391.914 1485.58 L391.914 1481.64 Q394.576 1478.89 399.159 1474.26 Q403.765 1469.61 404.946 1468.27 Q407.191 1465.74 408.071 1464.01 Q408.974 1462.25 408.974 1460.56 Q408.974 1457.8 407.029 1456.07 Q405.108 1454.33 402.006 1454.33 Q399.807 1454.33 397.353 1455.09 Q394.923 1455.86 392.145 1457.41 L392.145 1452.69 Q394.969 1451.55 397.423 1450.97 Q399.876 1450.39 401.913 1450.39 Q407.284 1450.39 410.478 1453.08 Q413.673 1455.77 413.673 1460.26 Q413.673 1462.39 412.862 1464.31 Q412.075 1466.2 409.969 1468.8 Q409.39 1469.47 406.288 1472.69 Q403.187 1475.88 397.538 1481.64 Z" fill="#000000" fill-rule="evenodd" fill-opacity="1" /><path clip-path="url(#clip750)" d="M423.673 1479.7 L428.557 1479.7 L428.557 1485.58 L423.673 1485.58 L423.673 1479.7 Z" fill="#000000" fill-rule="evenodd" fill-opacity="1" /><path clip-path="url(#clip750)" d="M448.742 1454.1 Q445.131 1454.1 443.302 1457.66 Q441.497 1461.2 441.497 1468.33 Q441.497 1475.44 443.302 1479.01 Q445.131 1482.55 448.742 1482.55 Q452.376 1482.55 454.182 1479.01 Q456.01 1475.44 456.01 1468.33 Q456.01 1461.2 454.182 1457.66 Q452.376 1454.1 448.742 1454.1 M448.742 1450.39 Q454.552 1450.39 457.608 1455 Q460.686 1459.58 460.686 1468.33 Q460.686 1477.06 457.608 1481.67 Q454.552 1486.25 448.742 1486.25 Q442.932 1486.25 439.853 1481.67 Q436.798 1477.06 436.798 1468.33 Q436.798 1459.58 439.853 1455 Q442.932 1450.39 448.742 1450.39 Z" fill="#000000" fill-rule="evenodd" fill-opacity="1" /><path clip-path="url(#clip750)" d="M865.623 1481.64 L881.942 1481.64 L881.942 1485.58 L859.998 1485.58 L859.998 1481.64 Q862.66 1478.89 867.243 1474.26 Q871.849 1469.61 873.03 1468.27 Q875.275 1465.74 876.155 1464.01 Q877.058 1462.25 877.058 1460.56 Q877.058 1457.8 875.113 1456.07 Q873.192 1454.33 870.09 1454.33 Q867.891 1454.33 865.437 1455.09 Q863.007 1455.86 860.229 1457.41 L860.229 1452.69 Q863.053 1451.55 865.507 1450.97 Q867.961 1450.39 869.998 1450.39 Q875.368 1450.39 878.562 1453.08 Q881.757 1455.77 881.757 1460.26 Q881.757 1462.39 880.947 1464.31 Q880.16 1466.2 878.053 1468.8 Q877.474 1469.47 874.373 1472.69 Q871.271 1475.88 865.623 1481.64 Z" fill="#000000" fill-rule="evenodd" fill-opacity="1" /><path clip-path="url(#clip750)" d="M891.757 1479.7 L896.641 1479.7 L896.641 1485.58 L891.757 1485.58 L891.757 1479.7 Z" fill="#000000" fill-rule="evenodd" fill-opacity="1" /><path clip-path="url(#clip750)" d="M906.872 1451.02 L925.229 1451.02 L925.229 1454.96 L911.155 1454.96 L911.155 1463.43 Q912.173 1463.08 913.192 1462.92 Q914.21 1462.73 915.229 1462.73 Q921.016 1462.73 924.395 1465.9 Q927.775 1469.08 927.775 1474.49 Q927.775 1480.07 924.303 1483.17 Q920.831 1486.25 914.511 1486.25 Q912.335 1486.25 910.067 1485.88 Q907.821 1485.51 905.414 1484.77 L905.414 1480.07 Q907.497 1481.2 909.72 1481.76 Q911.942 1482.32 914.419 1482.32 Q918.423 1482.32 920.761 1480.21 Q923.099 1478.1 923.099 1474.49 Q923.099 1470.88 920.761 1468.77 Q918.423 1466.67 914.419 1466.67 Q912.544 1466.67 910.669 1467.08 Q908.817 1467.5 906.872 1468.38 L906.872 1451.02 Z" fill="#000000" fill-rule="evenodd" fill-opacity="1" /><path clip-path="url(#clip750)" d="M1342.78 1466.95 Q1346.14 1467.66 1348.01 1469.93 Q1349.91 1472.2 1349.91 1475.53 Q1349.91 1480.65 1346.39 1483.45 Q1342.87 1486.25 1336.39 1486.25 Q1334.22 1486.25 1331.9 1485.81 Q1329.61 1485.39 1327.16 1484.54 L1327.16 1480.02 Q1329.1 1481.16 1331.42 1481.74 Q1333.73 1482.32 1336.25 1482.32 Q1340.65 1482.32 1342.94 1480.58 Q1345.26 1478.84 1345.26 1475.53 Q1345.26 1472.48 1343.1 1470.77 Q1340.98 1469.03 1337.16 1469.03 L1333.13 1469.03 L1333.13 1465.19 L1337.34 1465.19 Q1340.79 1465.19 1342.62 1463.82 Q1344.45 1462.43 1344.45 1459.84 Q1344.45 1457.18 1342.55 1455.77 Q1340.67 1454.33 1337.16 1454.33 Q1335.23 1454.33 1333.04 1454.75 Q1330.84 1455.16 1328.2 1456.04 L1328.2 1451.88 Q1330.86 1451.14 1333.17 1450.77 Q1335.51 1450.39 1337.57 1450.39 Q1342.9 1450.39 1346 1452.83 Q1349.1 1455.23 1349.1 1459.35 Q1349.1 1462.22 1347.46 1464.21 Q1345.81 1466.18 1342.78 1466.95 Z" fill="#000000" fill-rule="evenodd" fill-opacity="1" /><path clip-path="url(#clip750)" d="M1358.78 1479.7 L1363.66 1479.7 L1363.66 1485.58 L1358.78 1485.58 L1358.78 1479.7 Z" fill="#000000" fill-rule="evenodd" fill-opacity="1" /><path clip-path="url(#clip750)" d="M1383.85 1454.1 Q1380.23 1454.1 1378.41 1457.66 Q1376.6 1461.2 1376.6 1468.33 Q1376.6 1475.44 1378.41 1479.01 Q1380.23 1482.55 1383.85 1482.55 Q1387.48 1482.55 1389.29 1479.01 Q1391.11 1475.44 1391.11 1468.33 Q1391.11 1461.2 1389.29 1457.66 Q1387.48 1454.1 1383.85 1454.1 M1383.85 1450.39 Q1389.66 1450.39 1392.71 1455 Q1395.79 1459.58 1395.79 1468.33 Q1395.79 1477.06 1392.71 1481.67 Q1389.66 1486.25 1383.85 1486.25 Q1378.04 1486.25 1374.96 1481.67 Q1371.9 1477.06 1371.9 1468.33 Q1371.9 1459.58 1374.96 1455 Q1378.04 1450.39 1383.85 1450.39 Z" fill="#000000" fill-rule="evenodd" fill-opacity="1" /><path clip-path="url(#clip750)" d="M1810.86 1466.95 Q1814.22 1467.66 1816.1 1469.93 Q1817.99 1472.2 1817.99 1475.53 Q1817.99 1480.65 1814.48 1483.45 Q1810.96 1486.25 1804.48 1486.25 Q1802.3 1486.25 1799.99 1485.81 Q1797.69 1485.39 1795.24 1484.54 L1795.24 1480.02 Q1797.18 1481.16 1799.5 1481.74 Q1801.81 1482.32 1804.34 1482.32 Q1808.74 1482.32 1811.03 1480.58 Q1813.34 1478.84 1813.34 1475.53 Q1813.34 1472.48 1811.19 1470.77 Q1809.06 1469.03 1805.24 1469.03 L1801.21 1469.03 L1801.21 1465.19 L1805.42 1465.19 Q1808.87 1465.19 1810.7 1463.82 Q1812.53 1462.43 1812.53 1459.84 Q1812.53 1457.18 1810.63 1455.77 Q1808.76 1454.33 1805.24 1454.33 Q1803.32 1454.33 1801.12 1454.75 Q1798.92 1455.16 1796.28 1456.04 L1796.28 1451.88 Q1798.94 1451.14 1801.26 1450.77 Q1803.6 1450.39 1805.66 1450.39 Q1810.98 1450.39 1814.08 1452.83 Q1817.18 1455.23 1817.18 1459.35 Q1817.18 1462.22 1815.54 1464.21 Q1813.9 1466.18 1810.86 1466.95 Z" fill="#000000" fill-rule="evenodd" fill-opacity="1" /><path clip-path="url(#clip750)" d="M1826.86 1479.7 L1831.74 1479.7 L1831.74 1485.58 L1826.86 1485.58 L1826.86 1479.7 Z" fill="#000000" fill-rule="evenodd" fill-opacity="1" /><path clip-path="url(#clip750)" d="M1841.98 1451.02 L1860.33 1451.02 L1860.33 1454.96 L1846.26 1454.96 L1846.26 1463.43 Q1847.28 1463.08 1848.3 1462.92 Q1849.31 1462.73 1850.33 1462.73 Q1856.12 1462.73 1859.5 1465.9 Q1862.88 1469.08 1862.88 1474.49 Q1862.88 1480.07 1859.41 1483.17 Q1855.93 1486.25 1849.61 1486.25 Q1847.44 1486.25 1845.17 1485.88 Q1842.92 1485.51 1840.52 1484.77 L1840.52 1480.07 Q1842.6 1481.2 1844.82 1481.76 Q1847.05 1482.32 1849.52 1482.32 Q1853.53 1482.32 1855.86 1480.21 Q1858.2 1478.1 1858.2 1474.49 Q1858.2 1470.88 1855.86 1468.77 Q1853.53 1466.67 1849.52 1466.67 Q1847.65 1466.67 1845.77 1467.08 Q1843.92 1467.5 1841.98 1468.38 L1841.98 1451.02 Z" fill="#000000" fill-rule="evenodd" fill-opacity="1" /><path clip-path="url(#clip750)" d="M2277.28 1455.09 L2265.48 1473.54 L2277.28 1473.54 L2277.28 1455.09 M2276.06 1451.02 L2281.93 1451.02 L2281.93 1473.54 L2286.87 1473.54 L2286.87 1477.43 L2281.93 1477.43 L2281.93 1485.58 L2277.28 1485.58 L2277.28 1477.43 L2261.68 1477.43 L2261.68 1472.92 L2276.06 1451.02 Z" fill="#000000" fill-rule="evenodd" fill-opacity="1" /><path clip-path="url(#clip750)" d="M2294.6 1479.7 L2299.48 1479.7 L2299.48 1485.58 L2294.6 1485.58 L2294.6 1479.7 Z" fill="#000000" fill-rule="evenodd" fill-opacity="1" /><path clip-path="url(#clip750)" d="M2319.67 1454.1 Q2316.06 1454.1 2314.23 1457.66 Q2312.42 1461.2 2312.42 1468.33 Q2312.42 1475.44 2314.23 1479.01 Q2316.06 1482.55 2319.67 1482.55 Q2323.3 1482.55 2325.11 1479.01 Q2326.93 1475.44 2326.93 1468.33 Q2326.93 1461.2 2325.11 1457.66 Q2323.3 1454.1 2319.67 1454.1 M2319.67 1450.39 Q2325.48 1450.39 2328.53 1455 Q2331.61 1459.58 2331.61 1468.33 Q2331.61 1477.06 2328.53 1481.67 Q2325.48 1486.25 2319.67 1486.25 Q2313.86 1486.25 2310.78 1481.67 Q2307.72 1477.06 2307.72 1468.33 Q2307.72 1459.58 2310.78 1455 Q2313.86 1450.39 2319.67 1450.39 Z" fill="#000000" fill-rule="evenodd" fill-opacity="1" /><path clip-path="url(#clip750)" d="M1199.02 1518.52 L1204.88 1518.52 L1204.88 1568.04 L1199.02 1568.04 L1199.02 1518.52 Z" fill="#000000" fill-rule="evenodd" fill-opacity="1" /><path clip-path="url(#clip750)" d="M1230.94 1536.5 Q1226.23 1536.5 1223.5 1540.19 Q1220.76 1543.85 1220.76 1550.25 Q1220.76 1556.65 1223.46 1560.34 Q1226.2 1564 1230.94 1564 Q1235.62 1564 1238.36 1560.31 Q1241.1 1556.62 1241.1 1550.25 Q1241.1 1543.92 1238.36 1540.23 Q1235.62 1536.5 1230.94 1536.5 M1230.94 1531.54 Q1238.58 1531.54 1242.94 1536.5 Q1247.3 1541.47 1247.3 1550.25 Q1247.3 1559 1242.94 1564 Q1238.58 1568.97 1230.94 1568.97 Q1223.27 1568.97 1218.91 1564 Q1214.58 1559 1214.58 1550.25 Q1214.58 1541.47 1218.91 1536.5 Q1223.27 1531.54 1230.94 1531.54 Z" fill="#000000" fill-rule="evenodd" fill-opacity="1" /><path clip-path="url(#clip750)" d="M1280.47 1549.81 Q1280.47 1543.44 1277.83 1539.94 Q1275.22 1536.44 1270.47 1536.44 Q1265.76 1536.44 1263.12 1539.94 Q1260.51 1543.44 1260.51 1549.81 Q1260.51 1556.14 1263.12 1559.64 Q1265.76 1563.14 1270.47 1563.14 Q1275.22 1563.14 1277.83 1559.64 Q1280.47 1556.14 1280.47 1549.81 M1286.33 1563.62 Q1286.33 1572.72 1282.28 1577.15 Q1278.24 1581.6 1269.9 1581.6 Q1266.81 1581.6 1264.08 1581.13 Q1261.34 1580.68 1258.76 1579.72 L1258.76 1574.03 Q1261.34 1575.43 1263.85 1576.1 Q1266.37 1576.76 1268.98 1576.76 Q1274.74 1576.76 1277.6 1573.74 Q1280.47 1570.75 1280.47 1564.67 L1280.47 1561.77 Q1278.65 1564.92 1275.82 1566.48 Q1272.99 1568.04 1269.04 1568.04 Q1262.49 1568.04 1258.48 1563.05 Q1254.47 1558.05 1254.47 1549.81 Q1254.47 1541.53 1258.48 1536.53 Q1262.49 1531.54 1269.04 1531.54 Q1272.99 1531.54 1275.82 1533.1 Q1278.65 1534.66 1280.47 1537.81 L1280.47 1532.4 L1286.33 1532.4 L1286.33 1563.62 Z" fill="#000000" fill-rule="evenodd" fill-opacity="1" /><path clip-path="url(#clip750)" d="M1300.33 1562.63 L1310.83 1562.63 L1310.83 1526.38 L1299.41 1528.67 L1299.41 1522.82 L1310.77 1520.52 L1317.2 1520.52 L1317.2 1562.63 L1327.7 1562.63 L1327.7 1568.04 L1300.33 1568.04 L1300.33 1562.63 Z" fill="#000000" fill-rule="evenodd" fill-opacity="1" /><path clip-path="url(#clip750)" d="M1354.44 1524.76 Q1349.47 1524.76 1346.96 1529.66 Q1344.48 1534.53 1344.48 1544.33 Q1344.48 1554.1 1346.96 1559 Q1349.47 1563.87 1354.44 1563.87 Q1359.44 1563.87 1361.92 1559 Q1364.43 1554.1 1364.43 1544.33 Q1364.43 1534.53 1361.92 1529.66 Q1359.44 1524.76 1354.44 1524.76 M1354.44 1519.66 Q1362.43 1519.66 1366.63 1526 Q1370.86 1532.3 1370.86 1544.33 Q1370.86 1556.33 1366.63 1562.66 Q1362.43 1568.97 1354.44 1568.97 Q1346.45 1568.97 1342.22 1562.66 Q1338.02 1556.33 1338.02 1544.33 Q1338.02 1532.3 1342.22 1526 Q1346.45 1519.66 1354.44 1519.66 Z" fill="#000000" fill-rule="evenodd" fill-opacity="1" /><path clip-path="url(#clip750)" d="M1430.8 1522.08 L1430.8 1528.35 Q1427.13 1526.6 1423.89 1525.74 Q1420.64 1524.88 1417.62 1524.88 Q1412.37 1524.88 1409.5 1526.92 Q1406.67 1528.96 1406.67 1532.71 Q1406.67 1535.87 1408.55 1537.49 Q1410.46 1539.08 1415.74 1540.07 L1419.62 1540.86 Q1426.82 1542.23 1430.22 1545.7 Q1433.66 1549.14 1433.66 1554.93 Q1433.66 1561.84 1429.01 1565.4 Q1424.4 1568.97 1415.45 1568.97 Q1412.08 1568.97 1408.26 1568.2 Q1404.47 1567.44 1400.4 1565.94 L1400.4 1559.32 Q1404.31 1561.52 1408.07 1562.63 Q1411.83 1563.75 1415.45 1563.75 Q1420.96 1563.75 1423.95 1561.58 Q1426.94 1559.42 1426.94 1555.41 Q1426.94 1551.91 1424.78 1549.93 Q1422.65 1547.96 1417.75 1546.97 L1413.83 1546.21 Q1406.64 1544.78 1403.42 1541.72 Q1400.21 1538.67 1400.21 1533.22 Q1400.21 1526.92 1404.63 1523.29 Q1409.09 1519.66 1416.89 1519.66 Q1420.23 1519.66 1423.7 1520.27 Q1427.17 1520.87 1430.8 1522.08 Z" fill="#000000" fill-rule="evenodd" fill-opacity="1" /><path clip-path="url(#clip750)" d="M1472.17 1522.08 L1472.17 1528.35 Q1468.51 1526.6 1465.27 1525.74 Q1462.02 1524.88 1459 1524.88 Q1453.74 1524.88 1450.88 1526.92 Q1448.05 1528.96 1448.05 1532.71 Q1448.05 1535.87 1449.92 1537.49 Q1451.83 1539.08 1457.12 1540.07 L1461 1540.86 Q1468.19 1542.23 1471.6 1545.7 Q1475.04 1549.14 1475.04 1554.93 Q1475.04 1561.84 1470.39 1565.4 Q1465.77 1568.97 1456.83 1568.97 Q1453.46 1568.97 1449.64 1568.2 Q1445.85 1567.44 1441.78 1565.94 L1441.78 1559.32 Q1445.69 1561.52 1449.45 1562.63 Q1453.2 1563.75 1456.83 1563.75 Q1462.34 1563.75 1465.33 1561.58 Q1468.32 1559.42 1468.32 1555.41 Q1468.32 1551.91 1466.16 1549.93 Q1464.02 1547.96 1459.12 1546.97 L1455.21 1546.21 Q1448.01 1544.78 1444.8 1541.72 Q1441.59 1538.67 1441.59 1533.22 Q1441.59 1526.92 1446.01 1523.29 Q1450.47 1519.66 1458.26 1519.66 Q1461.61 1519.66 1465.07 1520.27 Q1468.54 1520.87 1472.17 1522.08 Z" fill="#000000" fill-rule="evenodd" fill-opacity="1" /><path clip-path="url(#clip750)" d="M1502.15 1526.86 L1493.43 1550.51 L1510.91 1550.51 L1502.15 1526.86 M1498.53 1520.52 L1505.82 1520.52 L1523.93 1568.04 L1517.24 1568.04 L1512.91 1555.85 L1491.49 1555.85 L1487.16 1568.04 L1480.38 1568.04 L1498.53 1520.52 Z" fill="#000000" fill-rule="evenodd" fill-opacity="1" /><polyline clip-path="url(#clip752)" style="stroke:#000000; stroke-linecap:round; stroke-linejoin:round; stroke-width:2; stroke-opacity:0.1; fill:none" points="370.19,1397.92 2352.76,1397.92 "/>
<polyline clip-path="url(#clip752)" style="stroke:#000000; stroke-linecap:round; stroke-linejoin:round; stroke-width:2; stroke-opacity:0.1; fill:none" points="370.19,1078.28 2352.76,1078.28 "/>
<polyline clip-path="url(#clip752)" style="stroke:#000000; stroke-linecap:round; stroke-linejoin:round; stroke-width:2; stroke-opacity:0.1; fill:none" points="370.19,758.648 2352.76,758.648 "/>
<polyline clip-path="url(#clip752)" style="stroke:#000000; stroke-linecap:round; stroke-linejoin:round; stroke-width:2; stroke-opacity:0.1; fill:none" points="370.19,439.012 2352.76,439.012 "/>
<polyline clip-path="url(#clip752)" style="stroke:#000000; stroke-linecap:round; stroke-linejoin:round; stroke-width:2; stroke-opacity:0.1; fill:none" points="370.19,119.377 2352.76,119.377 "/>
<polyline clip-path="url(#clip750)" style="stroke:#000000; stroke-linecap:round; stroke-linejoin:round; stroke-width:4; stroke-opacity:1; fill:none" points="370.19,1423.18 370.19,47.2441 "/>
<polyline clip-path="url(#clip750)" style="stroke:#000000; stroke-linecap:round; stroke-linejoin:round; stroke-width:4; stroke-opacity:1; fill:none" points="370.19,1397.92 389.087,1397.92 "/>
<polyline clip-path="url(#clip750)" style="stroke:#000000; stroke-linecap:round; stroke-linejoin:round; stroke-width:4; stroke-opacity:1; fill:none" points="370.19,1078.28 389.087,1078.28 "/>
<polyline clip-path="url(#clip750)" style="stroke:#000000; stroke-linecap:round; stroke-linejoin:round; stroke-width:4; stroke-opacity:1; fill:none" points="370.19,758.648 389.087,758.648 "/>
<polyline clip-path="url(#clip750)" style="stroke:#000000; stroke-linecap:round; stroke-linejoin:round; stroke-width:4; stroke-opacity:1; fill:none" points="370.19,439.012 389.087,439.012 "/>
<polyline clip-path="url(#clip750)" style="stroke:#000000; stroke-linecap:round; stroke-linejoin:round; stroke-width:4; stroke-opacity:1; fill:none" points="370.19,119.377 389.087,119.377 "/>
<path clip-path="url(#clip750)" d="M127.2 1383.72 Q123.589 1383.72 121.76 1387.28 Q119.955 1390.83 119.955 1397.95 Q119.955 1405.06 121.76 1408.63 Q123.589 1412.17 127.2 1412.17 Q130.834 1412.17 132.64 1408.63 Q134.468 1405.06 134.468 1397.95 Q134.468 1390.83 132.64 1387.28 Q130.834 1383.72 127.2 1383.72 M127.2 1380.01 Q133.01 1380.01 136.066 1384.62 Q139.144 1389.2 139.144 1397.95 Q139.144 1406.68 136.066 1411.29 Q133.01 1415.87 127.2 1415.87 Q121.39 1415.87 118.311 1411.29 Q115.256 1406.68 115.256 1397.95 Q115.256 1389.2 118.311 1384.62 Q121.39 1380.01 127.2 1380.01 Z" fill="#000000" fill-rule="evenodd" fill-opacity="1" /><path clip-path="url(#clip750)" d="M147.362 1409.32 L152.246 1409.32 L152.246 1415.2 L147.362 1415.2 L147.362 1409.32 Z" fill="#000000" fill-rule="evenodd" fill-opacity="1" /><path clip-path="url(#clip750)" d="M172.431 1383.72 Q168.82 1383.72 166.991 1387.28 Q165.186 1390.83 165.186 1397.95 Q165.186 1405.06 166.991 1408.63 Q168.82 1412.17 172.431 1412.17 Q176.065 1412.17 177.871 1408.63 Q179.7 1405.06 179.7 1397.95 Q179.7 1390.83 177.871 1387.28 Q176.065 1383.72 172.431 1383.72 M172.431 1380.01 Q178.241 1380.01 181.297 1384.62 Q184.376 1389.2 184.376 1397.95 Q184.376 1406.68 181.297 1411.29 Q178.241 1415.87 172.431 1415.87 Q166.621 1415.87 163.542 1411.29 Q160.487 1406.68 160.487 1397.95 Q160.487 1389.2 163.542 1384.62 Q166.621 1380.01 172.431 1380.01 Z" fill="#000000" fill-rule="evenodd" fill-opacity="1" /><path clip-path="url(#clip750)" d="M202.593 1383.72 Q198.982 1383.72 197.153 1387.28 Q195.348 1390.83 195.348 1397.95 Q195.348 1405.06 197.153 1408.63 Q198.982 1412.17 202.593 1412.17 Q206.227 1412.17 208.033 1408.63 Q209.861 1405.06 209.861 1397.95 Q209.861 1390.83 208.033 1387.28 Q206.227 1383.72 202.593 1383.72 M202.593 1380.01 Q208.403 1380.01 211.459 1384.62 Q214.537 1389.2 214.537 1397.95 Q214.537 1406.68 211.459 1411.29 Q208.403 1415.87 202.593 1415.87 Q196.783 1415.87 193.704 1411.29 Q190.649 1406.68 190.649 1397.95 Q190.649 1389.2 193.704 1384.62 Q196.783 1380.01 202.593 1380.01 Z" fill="#000000" fill-rule="evenodd" fill-opacity="1" /><path clip-path="url(#clip750)" d="M232.755 1383.72 Q229.144 1383.72 227.315 1387.28 Q225.51 1390.83 225.51 1397.95 Q225.51 1405.06 227.315 1408.63 Q229.144 1412.17 232.755 1412.17 Q236.389 1412.17 238.195 1408.63 Q240.023 1405.06 240.023 1397.95 Q240.023 1390.83 238.195 1387.28 Q236.389 1383.72 232.755 1383.72 M232.755 1380.01 Q238.565 1380.01 241.621 1384.62 Q244.699 1389.2 244.699 1397.95 Q244.699 1406.68 241.621 1411.29 Q238.565 1415.87 232.755 1415.87 Q226.945 1415.87 223.866 1411.29 Q220.811 1406.68 220.811 1397.95 Q220.811 1389.2 223.866 1384.62 Q226.945 1380.01 232.755 1380.01 Z" fill="#000000" fill-rule="evenodd" fill-opacity="1" /><path clip-path="url(#clip750)" d="M262.917 1383.72 Q259.306 1383.72 257.477 1387.28 Q255.671 1390.83 255.671 1397.95 Q255.671 1405.06 257.477 1408.63 Q259.306 1412.17 262.917 1412.17 Q266.551 1412.17 268.357 1408.63 Q270.185 1405.06 270.185 1397.95 Q270.185 1390.83 268.357 1387.28 Q266.551 1383.72 262.917 1383.72 M262.917 1380.01 Q268.727 1380.01 271.782 1384.62 Q274.861 1389.2 274.861 1397.95 Q274.861 1406.68 271.782 1411.29 Q268.727 1415.87 262.917 1415.87 Q257.107 1415.87 254.028 1411.29 Q250.972 1406.68 250.972 1397.95 Q250.972 1389.2 254.028 1384.62 Q257.107 1380.01 262.917 1380.01 Z" fill="#000000" fill-rule="evenodd" fill-opacity="1" /><path clip-path="url(#clip750)" d="M281.898 1380.64 L304.12 1380.64 L304.12 1382.63 L291.574 1415.2 L286.69 1415.2 L298.495 1384.58 L281.898 1384.58 L281.898 1380.64 Z" fill="#000000" fill-rule="evenodd" fill-opacity="1" /><path clip-path="url(#clip750)" d="M313.287 1380.64 L331.643 1380.64 L331.643 1384.58 L317.569 1384.58 L317.569 1393.05 Q318.588 1392.7 319.606 1392.54 Q320.625 1392.35 321.643 1392.35 Q327.43 1392.35 330.81 1395.52 Q334.19 1398.7 334.19 1404.11 Q334.19 1409.69 330.717 1412.79 Q327.245 1415.87 320.926 1415.87 Q318.75 1415.87 316.481 1415.5 Q314.236 1415.13 311.829 1414.39 L311.829 1409.69 Q313.912 1410.82 316.134 1411.38 Q318.356 1411.94 320.833 1411.94 Q324.838 1411.94 327.176 1409.83 Q329.514 1407.72 329.514 1404.11 Q329.514 1400.5 327.176 1398.39 Q324.838 1396.29 320.833 1396.29 Q318.958 1396.29 317.083 1396.7 Q315.231 1397.12 313.287 1398 L313.287 1380.64 Z" fill="#000000" fill-rule="evenodd" fill-opacity="1" /><path clip-path="url(#clip750)" d="M126.205 1064.08 Q122.593 1064.08 120.765 1067.65 Q118.959 1071.19 118.959 1078.32 Q118.959 1085.43 120.765 1088.99 Q122.593 1092.53 126.205 1092.53 Q129.839 1092.53 131.644 1088.99 Q133.473 1085.43 133.473 1078.32 Q133.473 1071.19 131.644 1067.65 Q129.839 1064.08 126.205 1064.08 M126.205 1060.38 Q132.015 1060.38 135.07 1064.99 Q138.149 1069.57 138.149 1078.32 Q138.149 1087.05 135.07 1091.65 Q132.015 1096.24 126.205 1096.24 Q120.394 1096.24 117.316 1091.65 Q114.26 1087.05 114.26 1078.32 Q114.26 1069.57 117.316 1064.99 Q120.394 1060.38 126.205 1060.38 Z" fill="#000000" fill-rule="evenodd" fill-opacity="1" /><path clip-path="url(#clip750)" d="M146.366 1089.68 L151.251 1089.68 L151.251 1095.56 L146.366 1095.56 L146.366 1089.68 Z" fill="#000000" fill-rule="evenodd" fill-opacity="1" /><path clip-path="url(#clip750)" d="M171.436 1064.08 Q167.825 1064.08 165.996 1067.65 Q164.19 1071.19 164.19 1078.32 Q164.19 1085.43 165.996 1088.99 Q167.825 1092.53 171.436 1092.53 Q175.07 1092.53 176.876 1088.99 Q178.704 1085.43 178.704 1078.32 Q178.704 1071.19 176.876 1067.65 Q175.07 1064.08 171.436 1064.08 M171.436 1060.38 Q177.246 1060.38 180.301 1064.99 Q183.38 1069.57 183.38 1078.32 Q183.38 1087.05 180.301 1091.65 Q177.246 1096.24 171.436 1096.24 Q165.626 1096.24 162.547 1091.65 Q159.491 1087.05 159.491 1078.32 Q159.491 1069.57 162.547 1064.99 Q165.626 1060.38 171.436 1060.38 Z" fill="#000000" fill-rule="evenodd" fill-opacity="1" /><path clip-path="url(#clip750)" d="M201.598 1064.08 Q197.987 1064.08 196.158 1067.65 Q194.352 1071.19 194.352 1078.32 Q194.352 1085.43 196.158 1088.99 Q197.987 1092.53 201.598 1092.53 Q205.232 1092.53 207.037 1088.99 Q208.866 1085.43 208.866 1078.32 Q208.866 1071.19 207.037 1067.65 Q205.232 1064.08 201.598 1064.08 M201.598 1060.38 Q207.408 1060.38 210.463 1064.99 Q213.542 1069.57 213.542 1078.32 Q213.542 1087.05 210.463 1091.65 Q207.408 1096.24 201.598 1096.24 Q195.787 1096.24 192.709 1091.65 Q189.653 1087.05 189.653 1078.32 Q189.653 1069.57 192.709 1064.99 Q195.787 1060.38 201.598 1060.38 Z" fill="#000000" fill-rule="evenodd" fill-opacity="1" /><path clip-path="url(#clip750)" d="M231.76 1064.08 Q228.148 1064.08 226.32 1067.65 Q224.514 1071.19 224.514 1078.32 Q224.514 1085.43 226.32 1088.99 Q228.148 1092.53 231.76 1092.53 Q235.394 1092.53 237.199 1088.99 Q239.028 1085.43 239.028 1078.32 Q239.028 1071.19 237.199 1067.65 Q235.394 1064.08 231.76 1064.08 M231.76 1060.38 Q237.57 1060.38 240.625 1064.99 Q243.704 1069.57 243.704 1078.32 Q243.704 1087.05 240.625 1091.65 Q237.57 1096.24 231.76 1096.24 Q225.949 1096.24 222.871 1091.65 Q219.815 1087.05 219.815 1078.32 Q219.815 1069.57 222.871 1064.99 Q225.949 1060.38 231.76 1060.38 Z" fill="#000000" fill-rule="evenodd" fill-opacity="1" /><path clip-path="url(#clip750)" d="M252.732 1091.63 L260.37 1091.63 L260.37 1065.26 L252.06 1066.93 L252.06 1062.67 L260.324 1061 L265 1061 L265 1091.63 L272.639 1091.63 L272.639 1095.56 L252.732 1095.56 L252.732 1091.63 Z" fill="#000000" fill-rule="evenodd" fill-opacity="1" /><path clip-path="url(#clip750)" d="M292.083 1064.08 Q288.472 1064.08 286.643 1067.65 Q284.838 1071.19 284.838 1078.32 Q284.838 1085.43 286.643 1088.99 Q288.472 1092.53 292.083 1092.53 Q295.718 1092.53 297.523 1088.99 Q299.352 1085.43 299.352 1078.32 Q299.352 1071.19 297.523 1067.65 Q295.718 1064.08 292.083 1064.08 M292.083 1060.38 Q297.893 1060.38 300.949 1064.99 Q304.028 1069.57 304.028 1078.32 Q304.028 1087.05 300.949 1091.65 Q297.893 1096.24 292.083 1096.24 Q286.273 1096.24 283.194 1091.65 Q280.139 1087.05 280.139 1078.32 Q280.139 1069.57 283.194 1064.99 Q286.273 1060.38 292.083 1060.38 Z" fill="#000000" fill-rule="evenodd" fill-opacity="1" /><path clip-path="url(#clip750)" d="M322.245 1064.08 Q318.634 1064.08 316.805 1067.65 Q315 1071.19 315 1078.32 Q315 1085.43 316.805 1088.99 Q318.634 1092.53 322.245 1092.53 Q325.879 1092.53 327.685 1088.99 Q329.514 1085.43 329.514 1078.32 Q329.514 1071.19 327.685 1067.65 Q325.879 1064.08 322.245 1064.08 M322.245 1060.38 Q328.055 1060.38 331.111 1064.99 Q334.19 1069.57 334.19 1078.32 Q334.19 1087.05 331.111 1091.65 Q328.055 1096.24 322.245 1096.24 Q316.435 1096.24 313.356 1091.65 Q310.301 1087.05 310.301 1078.32 Q310.301 1069.57 313.356 1064.99 Q316.435 1060.38 322.245 1060.38 Z" fill="#000000" fill-rule="evenodd" fill-opacity="1" /><path clip-path="url(#clip750)" d="M127.2 744.447 Q123.589 744.447 121.76 748.012 Q119.955 751.553 119.955 758.683 Q119.955 765.789 121.76 769.354 Q123.589 772.896 127.2 772.896 Q130.834 772.896 132.64 769.354 Q134.468 765.789 134.468 758.683 Q134.468 751.553 132.64 748.012 Q130.834 744.447 127.2 744.447 M127.2 740.743 Q133.01 740.743 136.066 745.35 Q139.144 749.933 139.144 758.683 Q139.144 767.41 136.066 772.016 Q133.01 776.6 127.2 776.6 Q121.39 776.6 118.311 772.016 Q115.256 767.41 115.256 758.683 Q115.256 749.933 118.311 745.35 Q121.39 740.743 127.2 740.743 Z" fill="#000000" fill-rule="evenodd" fill-opacity="1" /><path clip-path="url(#clip750)" d="M147.362 770.049 L152.246 770.049 L152.246 775.928 L147.362 775.928 L147.362 770.049 Z" fill="#000000" fill-rule="evenodd" fill-opacity="1" /><path clip-path="url(#clip750)" d="M172.431 744.447 Q168.82 744.447 166.991 748.012 Q165.186 751.553 165.186 758.683 Q165.186 765.789 166.991 769.354 Q168.82 772.896 172.431 772.896 Q176.065 772.896 177.871 769.354 Q179.7 765.789 179.7 758.683 Q179.7 751.553 177.871 748.012 Q176.065 744.447 172.431 744.447 M172.431 740.743 Q178.241 740.743 181.297 745.35 Q184.376 749.933 184.376 758.683 Q184.376 767.41 181.297 772.016 Q178.241 776.6 172.431 776.6 Q166.621 776.6 163.542 772.016 Q160.487 767.41 160.487 758.683 Q160.487 749.933 163.542 745.35 Q166.621 740.743 172.431 740.743 Z" fill="#000000" fill-rule="evenodd" fill-opacity="1" /><path clip-path="url(#clip750)" d="M202.593 744.447 Q198.982 744.447 197.153 748.012 Q195.348 751.553 195.348 758.683 Q195.348 765.789 197.153 769.354 Q198.982 772.896 202.593 772.896 Q206.227 772.896 208.033 769.354 Q209.861 765.789 209.861 758.683 Q209.861 751.553 208.033 748.012 Q206.227 744.447 202.593 744.447 M202.593 740.743 Q208.403 740.743 211.459 745.35 Q214.537 749.933 214.537 758.683 Q214.537 767.41 211.459 772.016 Q208.403 776.6 202.593 776.6 Q196.783 776.6 193.704 772.016 Q190.649 767.41 190.649 758.683 Q190.649 749.933 193.704 745.35 Q196.783 740.743 202.593 740.743 Z" fill="#000000" fill-rule="evenodd" fill-opacity="1" /><path clip-path="url(#clip750)" d="M232.755 744.447 Q229.144 744.447 227.315 748.012 Q225.51 751.553 225.51 758.683 Q225.51 765.789 227.315 769.354 Q229.144 772.896 232.755 772.896 Q236.389 772.896 238.195 769.354 Q240.023 765.789 240.023 758.683 Q240.023 751.553 238.195 748.012 Q236.389 744.447 232.755 744.447 M232.755 740.743 Q238.565 740.743 241.621 745.35 Q244.699 749.933 244.699 758.683 Q244.699 767.41 241.621 772.016 Q238.565 776.6 232.755 776.6 Q226.945 776.6 223.866 772.016 Q220.811 767.41 220.811 758.683 Q220.811 749.933 223.866 745.35 Q226.945 740.743 232.755 740.743 Z" fill="#000000" fill-rule="evenodd" fill-opacity="1" /><path clip-path="url(#clip750)" d="M253.727 771.993 L261.366 771.993 L261.366 745.628 L253.056 747.294 L253.056 743.035 L261.32 741.368 L265.995 741.368 L265.995 771.993 L273.634 771.993 L273.634 775.928 L253.727 775.928 L253.727 771.993 Z" fill="#000000" fill-rule="evenodd" fill-opacity="1" /><path clip-path="url(#clip750)" d="M287.106 771.993 L303.426 771.993 L303.426 775.928 L281.481 775.928 L281.481 771.993 Q284.144 769.239 288.727 764.609 Q293.333 759.956 294.514 758.614 Q296.759 756.09 297.639 754.354 Q298.542 752.595 298.542 750.905 Q298.542 748.151 296.597 746.415 Q294.676 744.678 291.574 744.678 Q289.375 744.678 286.921 745.442 Q284.491 746.206 281.713 747.757 L281.713 743.035 Q284.537 741.901 286.991 741.322 Q289.444 740.743 291.481 740.743 Q296.852 740.743 300.046 743.428 Q303.241 746.114 303.241 750.604 Q303.241 752.734 302.43 754.655 Q301.643 756.553 299.537 759.146 Q298.958 759.817 295.856 763.035 Q292.755 766.229 287.106 771.993 Z" fill="#000000" fill-rule="evenodd" fill-opacity="1" /><path clip-path="url(#clip750)" d="M313.287 741.368 L331.643 741.368 L331.643 745.303 L317.569 745.303 L317.569 753.776 Q318.588 753.428 319.606 753.266 Q320.625 753.081 321.643 753.081 Q327.43 753.081 330.81 756.252 Q334.19 759.424 334.19 764.84 Q334.19 770.419 330.717 773.521 Q327.245 776.6 320.926 776.6 Q318.75 776.6 316.481 776.229 Q314.236 775.859 311.829 775.118 L311.829 770.419 Q313.912 771.553 316.134 772.109 Q318.356 772.664 320.833 772.664 Q324.838 772.664 327.176 770.558 Q329.514 768.451 329.514 764.84 Q329.514 761.229 327.176 759.123 Q324.838 757.016 320.833 757.016 Q318.958 757.016 317.083 757.433 Q315.231 757.85 313.287 758.729 L313.287 741.368 Z" fill="#000000" fill-rule="evenodd" fill-opacity="1" /><path clip-path="url(#clip750)" d="M126.205 424.811 Q122.593 424.811 120.765 428.376 Q118.959 431.918 118.959 439.047 Q118.959 446.154 120.765 449.718 Q122.593 453.26 126.205 453.26 Q129.839 453.26 131.644 449.718 Q133.473 446.154 133.473 439.047 Q133.473 431.918 131.644 428.376 Q129.839 424.811 126.205 424.811 M126.205 421.107 Q132.015 421.107 135.07 425.714 Q138.149 430.297 138.149 439.047 Q138.149 447.774 135.07 452.38 Q132.015 456.964 126.205 456.964 Q120.394 456.964 117.316 452.38 Q114.26 447.774 114.26 439.047 Q114.26 430.297 117.316 425.714 Q120.394 421.107 126.205 421.107 Z" fill="#000000" fill-rule="evenodd" fill-opacity="1" /><path clip-path="url(#clip750)" d="M146.366 450.413 L151.251 450.413 L151.251 456.292 L146.366 456.292 L146.366 450.413 Z" fill="#000000" fill-rule="evenodd" fill-opacity="1" /><path clip-path="url(#clip750)" d="M171.436 424.811 Q167.825 424.811 165.996 428.376 Q164.19 431.918 164.19 439.047 Q164.19 446.154 165.996 449.718 Q167.825 453.26 171.436 453.26 Q175.07 453.26 176.876 449.718 Q178.704 446.154 178.704 439.047 Q178.704 431.918 176.876 428.376 Q175.07 424.811 171.436 424.811 M171.436 421.107 Q177.246 421.107 180.301 425.714 Q183.38 430.297 183.38 439.047 Q183.38 447.774 180.301 452.38 Q177.246 456.964 171.436 456.964 Q165.626 456.964 162.547 452.38 Q159.491 447.774 159.491 439.047 Q159.491 430.297 162.547 425.714 Q165.626 421.107 171.436 421.107 Z" fill="#000000" fill-rule="evenodd" fill-opacity="1" /><path clip-path="url(#clip750)" d="M201.598 424.811 Q197.987 424.811 196.158 428.376 Q194.352 431.918 194.352 439.047 Q194.352 446.154 196.158 449.718 Q197.987 453.26 201.598 453.26 Q205.232 453.26 207.037 449.718 Q208.866 446.154 208.866 439.047 Q208.866 431.918 207.037 428.376 Q205.232 424.811 201.598 424.811 M201.598 421.107 Q207.408 421.107 210.463 425.714 Q213.542 430.297 213.542 439.047 Q213.542 447.774 210.463 452.38 Q207.408 456.964 201.598 456.964 Q195.787 456.964 192.709 452.38 Q189.653 447.774 189.653 439.047 Q189.653 430.297 192.709 425.714 Q195.787 421.107 201.598 421.107 Z" fill="#000000" fill-rule="evenodd" fill-opacity="1" /><path clip-path="url(#clip750)" d="M231.76 424.811 Q228.148 424.811 226.32 428.376 Q224.514 431.918 224.514 439.047 Q224.514 446.154 226.32 449.718 Q228.148 453.26 231.76 453.26 Q235.394 453.26 237.199 449.718 Q239.028 446.154 239.028 439.047 Q239.028 431.918 237.199 428.376 Q235.394 424.811 231.76 424.811 M231.76 421.107 Q237.57 421.107 240.625 425.714 Q243.704 430.297 243.704 439.047 Q243.704 447.774 240.625 452.38 Q237.57 456.964 231.76 456.964 Q225.949 456.964 222.871 452.38 Q219.815 447.774 219.815 439.047 Q219.815 430.297 222.871 425.714 Q225.949 421.107 231.76 421.107 Z" fill="#000000" fill-rule="evenodd" fill-opacity="1" /><path clip-path="url(#clip750)" d="M252.732 452.357 L260.37 452.357 L260.37 425.992 L252.06 427.658 L252.06 423.399 L260.324 421.732 L265 421.732 L265 452.357 L272.639 452.357 L272.639 456.292 L252.732 456.292 L252.732 452.357 Z" fill="#000000" fill-rule="evenodd" fill-opacity="1" /><path clip-path="url(#clip750)" d="M282.13 421.732 L300.486 421.732 L300.486 425.668 L286.412 425.668 L286.412 434.14 Q287.431 433.793 288.449 433.631 Q289.468 433.445 290.486 433.445 Q296.273 433.445 299.653 436.617 Q303.032 439.788 303.032 445.205 Q303.032 450.783 299.56 453.885 Q296.088 456.964 289.768 456.964 Q287.593 456.964 285.324 456.593 Q283.079 456.223 280.671 455.482 L280.671 450.783 Q282.755 451.918 284.977 452.473 Q287.199 453.029 289.676 453.029 Q293.68 453.029 296.018 450.922 Q298.356 448.816 298.356 445.205 Q298.356 441.593 296.018 439.487 Q293.68 437.381 289.676 437.381 Q287.801 437.381 285.926 437.797 Q284.074 438.214 282.13 439.093 L282.13 421.732 Z" fill="#000000" fill-rule="evenodd" fill-opacity="1" /><path clip-path="url(#clip750)" d="M322.245 424.811 Q318.634 424.811 316.805 428.376 Q315 431.918 315 439.047 Q315 446.154 316.805 449.718 Q318.634 453.26 322.245 453.26 Q325.879 453.26 327.685 449.718 Q329.514 446.154 329.514 439.047 Q329.514 431.918 327.685 428.376 Q325.879 424.811 322.245 424.811 M322.245 421.107 Q328.055 421.107 331.111 425.714 Q334.19 430.297 334.19 439.047 Q334.19 447.774 331.111 452.38 Q328.055 456.964 322.245 456.964 Q316.435 456.964 313.356 452.38 Q310.301 447.774 310.301 439.047 Q310.301 430.297 313.356 425.714 Q316.435 421.107 322.245 421.107 Z" fill="#000000" fill-rule="evenodd" fill-opacity="1" /><path clip-path="url(#clip750)" d="M127.2 105.175 Q123.589 105.175 121.76 108.74 Q119.955 112.282 119.955 119.411 Q119.955 126.518 121.76 130.083 Q123.589 133.624 127.2 133.624 Q130.834 133.624 132.64 130.083 Q134.468 126.518 134.468 119.411 Q134.468 112.282 132.64 108.74 Q130.834 105.175 127.2 105.175 M127.2 101.472 Q133.01 101.472 136.066 106.078 Q139.144 110.661 139.144 119.411 Q139.144 128.138 136.066 132.745 Q133.01 137.328 127.2 137.328 Q121.39 137.328 118.311 132.745 Q115.256 128.138 115.256 119.411 Q115.256 110.661 118.311 106.078 Q121.39 101.472 127.2 101.472 Z" fill="#000000" fill-rule="evenodd" fill-opacity="1" /><path clip-path="url(#clip750)" d="M147.362 130.777 L152.246 130.777 L152.246 136.657 L147.362 136.657 L147.362 130.777 Z" fill="#000000" fill-rule="evenodd" fill-opacity="1" /><path clip-path="url(#clip750)" d="M172.431 105.175 Q168.82 105.175 166.991 108.74 Q165.186 112.282 165.186 119.411 Q165.186 126.518 166.991 130.083 Q168.82 133.624 172.431 133.624 Q176.065 133.624 177.871 130.083 Q179.7 126.518 179.7 119.411 Q179.7 112.282 177.871 108.74 Q176.065 105.175 172.431 105.175 M172.431 101.472 Q178.241 101.472 181.297 106.078 Q184.376 110.661 184.376 119.411 Q184.376 128.138 181.297 132.745 Q178.241 137.328 172.431 137.328 Q166.621 137.328 163.542 132.745 Q160.487 128.138 160.487 119.411 Q160.487 110.661 163.542 106.078 Q166.621 101.472 172.431 101.472 Z" fill="#000000" fill-rule="evenodd" fill-opacity="1" /><path clip-path="url(#clip750)" d="M202.593 105.175 Q198.982 105.175 197.153 108.74 Q195.348 112.282 195.348 119.411 Q195.348 126.518 197.153 130.083 Q198.982 133.624 202.593 133.624 Q206.227 133.624 208.033 130.083 Q209.861 126.518 209.861 119.411 Q209.861 112.282 208.033 108.74 Q206.227 105.175 202.593 105.175 M202.593 101.472 Q208.403 101.472 211.459 106.078 Q214.537 110.661 214.537 119.411 Q214.537 128.138 211.459 132.745 Q208.403 137.328 202.593 137.328 Q196.783 137.328 193.704 132.745 Q190.649 128.138 190.649 119.411 Q190.649 110.661 193.704 106.078 Q196.783 101.472 202.593 101.472 Z" fill="#000000" fill-rule="evenodd" fill-opacity="1" /><path clip-path="url(#clip750)" d="M232.755 105.175 Q229.144 105.175 227.315 108.74 Q225.51 112.282 225.51 119.411 Q225.51 126.518 227.315 130.083 Q229.144 133.624 232.755 133.624 Q236.389 133.624 238.195 130.083 Q240.023 126.518 240.023 119.411 Q240.023 112.282 238.195 108.74 Q236.389 105.175 232.755 105.175 M232.755 101.472 Q238.565 101.472 241.621 106.078 Q244.699 110.661 244.699 119.411 Q244.699 128.138 241.621 132.745 Q238.565 137.328 232.755 137.328 Q226.945 137.328 223.866 132.745 Q220.811 128.138 220.811 119.411 Q220.811 110.661 223.866 106.078 Q226.945 101.472 232.755 101.472 Z" fill="#000000" fill-rule="evenodd" fill-opacity="1" /><path clip-path="url(#clip750)" d="M253.727 132.721 L261.366 132.721 L261.366 106.356 L253.056 108.023 L253.056 103.763 L261.32 102.097 L265.995 102.097 L265.995 132.721 L273.634 132.721 L273.634 136.657 L253.727 136.657 L253.727 132.721 Z" fill="#000000" fill-rule="evenodd" fill-opacity="1" /><path clip-path="url(#clip750)" d="M281.898 102.097 L304.12 102.097 L304.12 104.087 L291.574 136.657 L286.69 136.657 L298.495 106.032 L281.898 106.032 L281.898 102.097 Z" fill="#000000" fill-rule="evenodd" fill-opacity="1" /><path clip-path="url(#clip750)" d="M313.287 102.097 L331.643 102.097 L331.643 106.032 L317.569 106.032 L317.569 114.504 Q318.588 114.157 319.606 113.995 Q320.625 113.81 321.643 113.81 Q327.43 113.81 330.81 116.981 Q334.19 120.152 334.19 125.569 Q334.19 131.147 330.717 134.249 Q327.245 137.328 320.926 137.328 Q318.75 137.328 316.481 136.958 Q314.236 136.587 311.829 135.846 L311.829 131.147 Q313.912 132.282 316.134 132.837 Q318.356 133.393 320.833 133.393 Q324.838 133.393 327.176 131.286 Q329.514 129.18 329.514 125.569 Q329.514 121.958 327.176 119.851 Q324.838 117.745 320.833 117.745 Q318.958 117.745 317.083 118.161 Q315.231 118.578 313.287 119.458 L313.287 102.097 Z" fill="#000000" fill-rule="evenodd" fill-opacity="1" /><path clip-path="url(#clip750)" d="M16.4842 839.021 L16.4842 829.44 L48.8219 817.314 L16.4842 805.123 L16.4842 795.543 L64.0042 795.543 L64.0042 801.813 L22.277 801.813 L54.8694 814.067 L54.8694 820.528 L22.277 832.782 L64.0042 832.782 L64.0042 839.021 L16.4842 839.021 Z" fill="#000000" fill-rule="evenodd" fill-opacity="1" /><path clip-path="url(#clip750)" d="M18.0438 754.293 L24.314 754.293 Q22.5634 757.953 21.704 761.2 Q20.8447 764.446 20.8447 767.47 Q20.8447 772.722 22.8817 775.586 Q24.9187 778.419 28.6745 778.419 Q31.8255 778.419 33.4488 776.541 Q35.0402 774.632 36.0269 769.348 L36.8226 765.465 Q38.1912 758.272 41.6605 754.866 Q45.098 751.429 50.8908 751.429 Q57.7976 751.429 61.3624 756.076 Q64.9272 760.691 64.9272 769.635 Q64.9272 773.008 64.1633 776.828 Q63.3994 780.615 61.9035 784.689 L55.2831 784.689 Q57.4793 780.775 58.5933 777.019 Q59.7073 773.263 59.7073 769.635 Q59.7073 764.128 57.543 761.136 Q55.3786 758.144 51.3682 758.144 Q47.8671 758.144 45.8937 760.309 Q43.9204 762.441 42.9337 767.343 L42.1698 771.258 Q40.7375 778.451 37.682 781.666 Q34.6264 784.88 29.1837 784.88 Q22.8817 784.88 19.2532 780.456 Q15.6248 776 15.6248 768.202 Q15.6248 764.86 16.2295 761.391 Q16.8343 757.922 18.0438 754.293 Z" fill="#000000" fill-rule="evenodd" fill-opacity="1" /><path clip-path="url(#clip750)" d="M16.4842 741.403 L16.4842 711.356 L21.895 711.356 L21.895 734.973 L35.9632 734.973 L35.9632 712.343 L41.3741 712.343 L41.3741 734.973 L58.5933 734.973 L58.5933 710.784 L64.0042 710.784 L64.0042 741.403 L16.4842 741.403 Z" fill="#000000" fill-rule="evenodd" fill-opacity="1" /><path clip-path="url(#clip750)" d="M74.8259 673.385 L79.3773 673.385 L79.3773 707.251 L74.8259 707.251 L74.8259 673.385 Z" fill="#000000" fill-rule="evenodd" fill-opacity="1" /><path clip-path="url(#clip750)" d="M16.4842 669.916 L16.4842 663.009 L34.149 651.201 L16.4842 639.329 L16.4842 632.422 L39.3052 647.699 L64.0042 631.403 L64.0042 638.31 L43.793 651.678 L64.0042 665.141 L64.0042 672.08 L38.6368 655.115 L16.4842 669.916 Z" fill="#000000" fill-rule="evenodd" fill-opacity="1" /><polyline clip-path="url(#clip752)" style="stroke:#009af9; stroke-linecap:round; stroke-linejoin:round; stroke-width:4; stroke-opacity:1; fill:none" points="426.3,86.1857 872.491,784.117 1361.47,971.014 1807.66,1126.1 2296.65,1218.83 "/>
<circle clip-path="url(#clip752)" cx="426.3" cy="86.1857" r="14.4" fill="#0000ff" fill-rule="evenodd" fill-opacity="1" stroke="#000000" stroke-opacity="1" stroke-width="3.2"/>
<circle clip-path="url(#clip752)" cx="872.491" cy="784.117" r="14.4" fill="#0000ff" fill-rule="evenodd" fill-opacity="1" stroke="#000000" stroke-opacity="1" stroke-width="3.2"/>
<circle clip-path="url(#clip752)" cx="1361.47" cy="971.014" r="14.4" fill="#0000ff" fill-rule="evenodd" fill-opacity="1" stroke="#000000" stroke-opacity="1" stroke-width="3.2"/>
<circle clip-path="url(#clip752)" cx="1807.66" cy="1126.1" r="14.4" fill="#0000ff" fill-rule="evenodd" fill-opacity="1" stroke="#000000" stroke-opacity="1" stroke-width="3.2"/>
<circle clip-path="url(#clip752)" cx="2296.65" cy="1218.83" r="14.4" fill="#0000ff" fill-rule="evenodd" fill-opacity="1" stroke="#000000" stroke-opacity="1" stroke-width="3.2"/>
<polyline clip-path="url(#clip752)" style="stroke:#3da44d; stroke-linecap:round; stroke-linejoin:round; stroke-width:4; stroke-opacity:1; fill:none" points="426.3,1143.18 872.491,1257.7 1361.47,1329.27 1807.66,1384.24 2296.65,1357.2 "/>
<circle clip-path="url(#clip752)" cx="426.3" cy="1143.18" r="14.4" fill="#008000" fill-rule="evenodd" fill-opacity="1" stroke="#000000" stroke-opacity="1" stroke-width="3.2"/>
<circle clip-path="url(#clip752)" cx="872.491" cy="1257.7" r="14.4" fill="#008000" fill-rule="evenodd" fill-opacity="1" stroke="#000000" stroke-opacity="1" stroke-width="3.2"/>
<circle clip-path="url(#clip752)" cx="1361.47" cy="1329.27" r="14.4" fill="#008000" fill-rule="evenodd" fill-opacity="1" stroke="#000000" stroke-opacity="1" stroke-width="3.2"/>
<circle clip-path="url(#clip752)" cx="1807.66" cy="1384.24" r="14.4" fill="#008000" fill-rule="evenodd" fill-opacity="1" stroke="#000000" stroke-opacity="1" stroke-width="3.2"/>
<circle clip-path="url(#clip752)" cx="2296.65" cy="1357.2" r="14.4" fill="#008000" fill-rule="evenodd" fill-opacity="1" stroke="#000000" stroke-opacity="1" stroke-width="3.2"/>
<path clip-path="url(#clip750)" d="M1998.78 248.629 L2286.67 248.629 L2286.67 93.1086 L1998.78 93.1086  Z" fill="#ffffff" fill-rule="evenodd" fill-opacity="1"/>
<polyline clip-path="url(#clip750)" style="stroke:#000000; stroke-linecap:round; stroke-linejoin:round; stroke-width:4; stroke-opacity:1; fill:none" points="1998.78,248.629 2286.67,248.629 2286.67,93.1086 1998.78,93.1086 1998.78,248.629 "/>
<polyline clip-path="url(#clip750)" style="stroke:#009af9; stroke-linecap:round; stroke-linejoin:round; stroke-width:4; stroke-opacity:1; fill:none" points="2020.81,144.949 2152.98,144.949 "/>
<path clip-path="url(#clip750)" d="M2175.01 127.669 L2181.98 127.669 L2190.8 151.187 L2199.67 127.669 L2206.63 127.669 L2206.63 162.229 L2202.07 162.229 L2202.07 131.882 L2193.16 155.585 L2188.46 155.585 L2179.55 131.882 L2179.55 162.229 L2175.01 162.229 L2175.01 127.669 Z" fill="#000000" fill-rule="evenodd" fill-opacity="1" /><path clip-path="url(#clip750)" d="M2215.92 127.669 L2220.59 127.669 L2220.59 158.293 L2237.42 158.293 L2237.42 162.229 L2215.92 162.229 L2215.92 127.669 Z" fill="#000000" fill-rule="evenodd" fill-opacity="1" /><path clip-path="url(#clip750)" d="M2247 131.511 L2247 144.497 L2252.88 144.497 Q2256.15 144.497 2257.93 142.807 Q2259.71 141.118 2259.71 137.993 Q2259.71 134.891 2257.93 133.201 Q2256.15 131.511 2252.88 131.511 L2247 131.511 M2242.33 127.669 L2252.88 127.669 Q2258.69 127.669 2261.66 130.307 Q2264.64 132.923 2264.64 137.993 Q2264.64 143.108 2261.66 145.724 Q2258.69 148.34 2252.88 148.34 L2247 148.34 L2247 162.229 L2242.33 162.229 L2242.33 127.669 Z" fill="#000000" fill-rule="evenodd" fill-opacity="1" /><polyline clip-path="url(#clip750)" style="stroke:#3da44d; stroke-linecap:round; stroke-linejoin:round; stroke-width:4; stroke-opacity:1; fill:none" points="2020.81,196.789 2152.98,196.789 "/>
<path clip-path="url(#clip750)" d="M2188.21 214.069 L2175.01 179.509 L2179.9 179.509 L2190.85 208.606 L2201.82 179.509 L2206.68 179.509 L2193.51 214.069 L2188.21 214.069 Z" fill="#000000" fill-rule="evenodd" fill-opacity="1" /><path clip-path="url(#clip750)" d="M2220.24 184.115 L2213.9 201.314 L2226.61 201.314 L2220.24 184.115 M2217.61 179.509 L2222.91 179.509 L2236.08 214.069 L2231.22 214.069 L2228.07 205.203 L2212.49 205.203 L2209.34 214.069 L2204.41 214.069 L2217.61 179.509 Z" fill="#000000" fill-rule="evenodd" fill-opacity="1" /><path clip-path="url(#clip750)" d="M2241.12 179.509 L2262.98 179.509 L2262.98 183.444 L2245.8 183.444 L2245.8 193.675 L2262.26 193.675 L2262.26 197.61 L2245.8 197.61 L2245.8 210.133 L2263.39 210.133 L2263.39 214.069 L2241.12 214.069 L2241.12 179.509 Z" fill="#000000" fill-rule="evenodd" fill-opacity="1" /></svg>
